%TF.GenerationSoftware,KiCad,Pcbnew,9.0.5*%
%TF.CreationDate,2025-10-12T15:19:20+05:30*%
%TF.ProjectId,transformerless power supply ,7472616e-7366-46f7-926d-65726c657373,rev?*%
%TF.SameCoordinates,Original*%
%TF.FileFunction,Copper,L2,Bot*%
%TF.FilePolarity,Positive*%
%FSLAX46Y46*%
G04 Gerber Fmt 4.6, Leading zero omitted, Abs format (unit mm)*
G04 Created by KiCad (PCBNEW 9.0.5) date 2025-10-12 15:19:20*
%MOMM*%
%LPD*%
G01*
G04 APERTURE LIST*
G04 Aperture macros list*
%AMRoundRect*
0 Rectangle with rounded corners*
0 $1 Rounding radius*
0 $2 $3 $4 $5 $6 $7 $8 $9 X,Y pos of 4 corners*
0 Add a 4 corners polygon primitive as box body*
4,1,4,$2,$3,$4,$5,$6,$7,$8,$9,$2,$3,0*
0 Add four circle primitives for the rounded corners*
1,1,$1+$1,$2,$3*
1,1,$1+$1,$4,$5*
1,1,$1+$1,$6,$7*
1,1,$1+$1,$8,$9*
0 Add four rect primitives between the rounded corners*
20,1,$1+$1,$2,$3,$4,$5,0*
20,1,$1+$1,$4,$5,$6,$7,0*
20,1,$1+$1,$6,$7,$8,$9,0*
20,1,$1+$1,$8,$9,$2,$3,0*%
G04 Aperture macros list end*
%TA.AperFunction,ComponentPad*%
%ADD10RoundRect,0.249999X-0.850001X0.850001X-0.850001X-0.850001X0.850001X-0.850001X0.850001X0.850001X0*%
%TD*%
%TA.AperFunction,ComponentPad*%
%ADD11C,2.200000*%
%TD*%
%TA.AperFunction,ComponentPad*%
%ADD12RoundRect,0.250000X-0.650000X0.650000X-0.650000X-0.650000X0.650000X-0.650000X0.650000X0.650000X0*%
%TD*%
%TA.AperFunction,ComponentPad*%
%ADD13C,1.800000*%
%TD*%
%TA.AperFunction,ComponentPad*%
%ADD14C,1.600000*%
%TD*%
%TA.AperFunction,ComponentPad*%
%ADD15RoundRect,0.250000X-0.750000X0.750000X-0.750000X-0.750000X0.750000X-0.750000X0.750000X0.750000X0*%
%TD*%
%TA.AperFunction,ComponentPad*%
%ADD16C,2.000000*%
%TD*%
%TA.AperFunction,ComponentPad*%
%ADD17R,1.905000X2.000000*%
%TD*%
%TA.AperFunction,ComponentPad*%
%ADD18O,1.905000X2.000000*%
%TD*%
%TA.AperFunction,ComponentPad*%
%ADD19C,2.400000*%
%TD*%
%TA.AperFunction,ComponentPad*%
%ADD20R,1.800000X1.800000*%
%TD*%
%TA.AperFunction,ComponentPad*%
%ADD21RoundRect,0.250000X0.750000X-0.750000X0.750000X0.750000X-0.750000X0.750000X-0.750000X-0.750000X0*%
%TD*%
%TA.AperFunction,Conductor*%
%ADD22C,1.000000*%
%TD*%
%TA.AperFunction,Conductor*%
%ADD23C,0.500000*%
%TD*%
G04 APERTURE END LIST*
D10*
%TO.P,D1,1,K*%
%TO.N,Net-(D1-K)*%
X64521750Y-88420000D03*
D11*
%TO.P,D1,2,A*%
%TO.N,Net-(D1-A)*%
X64521750Y-98580000D03*
%TD*%
D10*
%TO.P,D4,1,K*%
%TO.N,Net-(D3-A)*%
X70021750Y-104500000D03*
D11*
%TO.P,D4,2,A*%
%TO.N,GND*%
X70021750Y-114660000D03*
%TD*%
D12*
%TO.P,D6,1,K*%
%TO.N,Net-(D1-K)*%
X87521750Y-99880000D03*
D13*
%TO.P,D6,2,A*%
%TO.N,Net-(D6-A)*%
X87521750Y-107500000D03*
%TD*%
D14*
%TO.P,R3,1*%
%TO.N,Net-(D5-A)*%
X82831750Y-113500000D03*
%TO.P,R3,2*%
%TO.N,GND*%
X75211750Y-113500000D03*
%TD*%
%TO.P,R1,1*%
%TO.N,Net-(D1-K)*%
X60521750Y-112810000D03*
%TO.P,R1,2*%
%TO.N,Net-(D7-A)*%
X60521750Y-105190000D03*
%TD*%
%TO.P,C2,1*%
%TO.N,Net-(D1-K)*%
X76521750Y-89500000D03*
%TO.P,C2,2*%
%TO.N,GND*%
X81521750Y-89500000D03*
%TD*%
D15*
%TO.P,J2,1,Pin_1*%
%TO.N,/5v*%
X98304250Y-101725000D03*
D16*
%TO.P,J2,2,Pin_2*%
%TO.N,GND*%
X98304250Y-104265000D03*
%TD*%
D17*
%TO.P,U1,1,VI*%
%TO.N,Net-(D1-K)*%
X86981750Y-82450000D03*
D18*
%TO.P,U1,2,GND*%
%TO.N,GND*%
X89521750Y-82450000D03*
%TO.P,U1,3,VO*%
%TO.N,/5v*%
X92061750Y-82450000D03*
%TD*%
D10*
%TO.P,D3,1,K*%
%TO.N,Net-(D1-K)*%
X69521750Y-88500000D03*
D11*
%TO.P,D3,2,A*%
%TO.N,Net-(D3-A)*%
X69521750Y-98660000D03*
%TD*%
D14*
%TO.P,R2,1*%
%TO.N,Net-(J1-Pin_2)*%
X56021750Y-91310000D03*
%TO.P,R2,2*%
%TO.N,Net-(D1-A)*%
X56021750Y-83690000D03*
%TD*%
D19*
%TO.P,C1,1*%
%TO.N,Net-(J1-Pin_2)*%
X64521750Y-82500000D03*
%TO.P,C1,2*%
%TO.N,Net-(D1-A)*%
X79521750Y-82500000D03*
%TD*%
D14*
%TO.P,C3,1*%
%TO.N,Net-(D1-K)*%
X76021750Y-100000000D03*
%TO.P,C3,2*%
%TO.N,GND*%
X81021750Y-100000000D03*
%TD*%
%TO.P,R4,1*%
%TO.N,Net-(D6-A)*%
X82831750Y-107500000D03*
%TO.P,R4,2*%
%TO.N,GND*%
X75211750Y-107500000D03*
%TD*%
%TO.P,C4,1*%
%TO.N,/5v*%
X93521750Y-90500000D03*
%TO.P,C4,2*%
%TO.N,GND*%
X98521750Y-90500000D03*
%TD*%
D10*
%TO.P,D2,1,K*%
%TO.N,Net-(D1-A)*%
X65271750Y-104500000D03*
D11*
%TO.P,D2,2,A*%
%TO.N,GND*%
X65271750Y-114660000D03*
%TD*%
D12*
%TO.P,D5,1,K*%
%TO.N,Net-(D1-K)*%
X86021750Y-88690000D03*
D13*
%TO.P,D5,2,A*%
%TO.N,Net-(D5-A)*%
X86021750Y-96310000D03*
%TD*%
D20*
%TO.P,D7,1,K*%
%TO.N,GND*%
X52746750Y-108500000D03*
D13*
%TO.P,D7,2,A*%
%TO.N,Net-(D7-A)*%
X55286750Y-108500000D03*
%TD*%
D21*
%TO.P,J1,1,Pin_1*%
%TO.N,Net-(D3-A)*%
X54521750Y-99000000D03*
D16*
%TO.P,J1,2,Pin_2*%
%TO.N,Net-(J1-Pin_2)*%
X54521750Y-96460000D03*
%TD*%
D22*
%TO.N,Net-(D1-A)*%
X64521750Y-98580000D02*
X64521750Y-103750000D01*
X64521750Y-103750000D02*
X65271750Y-104500000D01*
%TO.N,Net-(J1-Pin_2)*%
X54521750Y-96460000D02*
X54521750Y-92810000D01*
X54521750Y-92810000D02*
X56021750Y-91310000D01*
X64521750Y-82810000D02*
X64521750Y-82500000D01*
X56021750Y-91310000D02*
X64521750Y-82810000D01*
%TO.N,Net-(D1-K)*%
X81211750Y-93500000D02*
X76021750Y-93500000D01*
X75521750Y-88500000D02*
X76521750Y-89500000D01*
X76021750Y-90000000D02*
X76521750Y-89500000D01*
D23*
X86981750Y-87730000D02*
X86021750Y-88690000D01*
X86981750Y-82450000D02*
X86981750Y-87730000D01*
X86021750Y-88690000D02*
X87521750Y-90190000D01*
D22*
X76021750Y-93500000D02*
X76021750Y-90000000D01*
X76021750Y-100000000D02*
X76021750Y-93500000D01*
X69441750Y-88420000D02*
X69521750Y-88500000D01*
X69521750Y-88500000D02*
X75521750Y-88500000D01*
X64521750Y-88420000D02*
X69441750Y-88420000D01*
X86021750Y-88690000D02*
X81211750Y-93500000D01*
D23*
X87521750Y-90190000D02*
X87521750Y-99880000D01*
%TO.N,/5v*%
X93521750Y-96942500D02*
X98304250Y-101725000D01*
X93521750Y-90500000D02*
X93521750Y-96942500D01*
X92061750Y-89040000D02*
X93521750Y-90500000D01*
X92061750Y-82450000D02*
X92061750Y-89040000D01*
D22*
%TO.N,Net-(D3-A)*%
X69521750Y-98660000D02*
X69521750Y-104000000D01*
X54521750Y-99000000D02*
X54521750Y-98865578D01*
X66361750Y-95500000D02*
X69521750Y-98660000D01*
X69521750Y-104000000D02*
X70021750Y-104500000D01*
X54521750Y-98865578D02*
X57887328Y-95500000D01*
X57887328Y-95500000D02*
X66361750Y-95500000D01*
D23*
%TO.N,Net-(D5-A)*%
X78021750Y-112000000D02*
X79521750Y-113500000D01*
X86021750Y-96310000D02*
X86021750Y-101500000D01*
X79521750Y-113500000D02*
X82831750Y-113500000D01*
X86021750Y-101500000D02*
X78021750Y-109500000D01*
X78021750Y-109500000D02*
X78021750Y-112000000D01*
%TO.N,Net-(D6-A)*%
X82831750Y-107500000D02*
X87521750Y-107500000D01*
%TO.N,Net-(D7-A)*%
X58596750Y-105190000D02*
X60521750Y-105190000D01*
X55286750Y-108500000D02*
X58596750Y-105190000D01*
%TD*%
%TA.AperFunction,Conductor*%
%TO.N,GND*%
G36*
X102825561Y-75520185D02*
G01*
X102871316Y-75572989D01*
X102882522Y-75624500D01*
X102882522Y-116736772D01*
X102862837Y-116803811D01*
X102810033Y-116849566D01*
X102758522Y-116860772D01*
X49646250Y-116860772D01*
X49579211Y-116841087D01*
X49533456Y-116788283D01*
X49522250Y-116736772D01*
X49522250Y-115191732D01*
X49541935Y-115124693D01*
X49594739Y-115078938D01*
X49663897Y-115068994D01*
X49727453Y-115098019D01*
X49760811Y-115144279D01*
X49861221Y-115386690D01*
X49861225Y-115386700D01*
X49992342Y-115613803D01*
X50151985Y-115821851D01*
X50151993Y-115821860D01*
X50337407Y-116007274D01*
X50337415Y-116007281D01*
X50545463Y-116166924D01*
X50772566Y-116298041D01*
X50772576Y-116298046D01*
X51014838Y-116398394D01*
X51014848Y-116398398D01*
X51268151Y-116466270D01*
X51528147Y-116500500D01*
X51528154Y-116500500D01*
X51790380Y-116500500D01*
X51790387Y-116500500D01*
X52050383Y-116466270D01*
X52303686Y-116398398D01*
X52545964Y-116298043D01*
X52773070Y-116166924D01*
X52981118Y-116007282D01*
X52981122Y-116007277D01*
X52981127Y-116007274D01*
X53166541Y-115821860D01*
X53166544Y-115821855D01*
X53166549Y-115821851D01*
X53326191Y-115613803D01*
X53457310Y-115386697D01*
X53557665Y-115144419D01*
X53625537Y-114891116D01*
X53659767Y-114631120D01*
X53659767Y-114534071D01*
X63671750Y-114534071D01*
X63671750Y-114785928D01*
X63711147Y-115034669D01*
X63788969Y-115274184D01*
X63903307Y-115498583D01*
X63977498Y-115600697D01*
X63977498Y-115600698D01*
X64747962Y-114830233D01*
X64759232Y-114872292D01*
X64831640Y-114997708D01*
X64934042Y-115100110D01*
X65059458Y-115172518D01*
X65101515Y-115183787D01*
X64331050Y-115954250D01*
X64433166Y-116028442D01*
X64657565Y-116142780D01*
X64897080Y-116220602D01*
X65145822Y-116260000D01*
X65397678Y-116260000D01*
X65646419Y-116220602D01*
X65885934Y-116142780D01*
X66110325Y-116028446D01*
X66110331Y-116028442D01*
X66212447Y-115954250D01*
X66212448Y-115954250D01*
X65441984Y-115183787D01*
X65484042Y-115172518D01*
X65609458Y-115100110D01*
X65711860Y-114997708D01*
X65784268Y-114872292D01*
X65795537Y-114830235D01*
X66566000Y-115600698D01*
X66566000Y-115600697D01*
X66640192Y-115498581D01*
X66640196Y-115498575D01*
X66754530Y-115274184D01*
X66832352Y-115034669D01*
X66871750Y-114785928D01*
X66871750Y-114534071D01*
X68421750Y-114534071D01*
X68421750Y-114785928D01*
X68461147Y-115034669D01*
X68538969Y-115274184D01*
X68653307Y-115498583D01*
X68727498Y-115600697D01*
X68727498Y-115600698D01*
X69497962Y-114830233D01*
X69509232Y-114872292D01*
X69581640Y-114997708D01*
X69684042Y-115100110D01*
X69809458Y-115172518D01*
X69851515Y-115183787D01*
X69081050Y-115954250D01*
X69183166Y-116028442D01*
X69407565Y-116142780D01*
X69647080Y-116220602D01*
X69895822Y-116260000D01*
X70147678Y-116260000D01*
X70396419Y-116220602D01*
X70635934Y-116142780D01*
X70860325Y-116028446D01*
X70860331Y-116028442D01*
X70962447Y-115954250D01*
X70962448Y-115954250D01*
X70191984Y-115183787D01*
X70234042Y-115172518D01*
X70359458Y-115100110D01*
X70461860Y-114997708D01*
X70534268Y-114872292D01*
X70545537Y-114830235D01*
X71316000Y-115600698D01*
X71316000Y-115600697D01*
X71390192Y-115498581D01*
X71390196Y-115498575D01*
X71504530Y-115274184D01*
X71582352Y-115034669D01*
X71621750Y-114785928D01*
X71621750Y-114534071D01*
X71582352Y-114285330D01*
X71504530Y-114045815D01*
X71390192Y-113821416D01*
X71316000Y-113719301D01*
X71316000Y-113719300D01*
X70545537Y-114489764D01*
X70534268Y-114447708D01*
X70461860Y-114322292D01*
X70359458Y-114219890D01*
X70234042Y-114147482D01*
X70191982Y-114136212D01*
X70930514Y-113397682D01*
X73911750Y-113397682D01*
X73911750Y-113602317D01*
X73943759Y-113804417D01*
X74006994Y-113999031D01*
X74099891Y-114181350D01*
X74099897Y-114181359D01*
X74132273Y-114225921D01*
X74132274Y-114225922D01*
X74811750Y-113546446D01*
X74811750Y-113552661D01*
X74839009Y-113654394D01*
X74891670Y-113745606D01*
X74966144Y-113820080D01*
X75057356Y-113872741D01*
X75159089Y-113900000D01*
X75165303Y-113900000D01*
X74485826Y-114579474D01*
X74530400Y-114611859D01*
X74712718Y-114704755D01*
X74907332Y-114767990D01*
X75109433Y-114800000D01*
X75314067Y-114800000D01*
X75516167Y-114767990D01*
X75710781Y-114704755D01*
X75893099Y-114611859D01*
X75937671Y-114579474D01*
X75258197Y-113900000D01*
X75264411Y-113900000D01*
X75366144Y-113872741D01*
X75457356Y-113820080D01*
X75531830Y-113745606D01*
X75584491Y-113654394D01*
X75611750Y-113552661D01*
X75611750Y-113546447D01*
X76291224Y-114225921D01*
X76323609Y-114181349D01*
X76416505Y-113999031D01*
X76479740Y-113804417D01*
X76511750Y-113602317D01*
X76511750Y-113397682D01*
X76479740Y-113195582D01*
X76416505Y-113000968D01*
X76323609Y-112818650D01*
X76291224Y-112774077D01*
X76291224Y-112774076D01*
X75611750Y-113453551D01*
X75611750Y-113447339D01*
X75584491Y-113345606D01*
X75531830Y-113254394D01*
X75457356Y-113179920D01*
X75366144Y-113127259D01*
X75264411Y-113100000D01*
X75258196Y-113100000D01*
X75937672Y-112420524D01*
X75937671Y-112420523D01*
X75893109Y-112388147D01*
X75893100Y-112388141D01*
X75710781Y-112295244D01*
X75516167Y-112232009D01*
X75314067Y-112200000D01*
X75109433Y-112200000D01*
X74907332Y-112232009D01*
X74712718Y-112295244D01*
X74530394Y-112388143D01*
X74485827Y-112420523D01*
X74485827Y-112420524D01*
X75165304Y-113100000D01*
X75159089Y-113100000D01*
X75057356Y-113127259D01*
X74966144Y-113179920D01*
X74891670Y-113254394D01*
X74839009Y-113345606D01*
X74811750Y-113447339D01*
X74811750Y-113453553D01*
X74132274Y-112774077D01*
X74132273Y-112774077D01*
X74099893Y-112818644D01*
X74006994Y-113000968D01*
X73943759Y-113195582D01*
X73911750Y-113397682D01*
X70930514Y-113397682D01*
X70962448Y-113365748D01*
X70860333Y-113291557D01*
X70635934Y-113177219D01*
X70396419Y-113099397D01*
X70147678Y-113060000D01*
X69895822Y-113060000D01*
X69647080Y-113099397D01*
X69407565Y-113177219D01*
X69183163Y-113291559D01*
X69081051Y-113365747D01*
X69081050Y-113365748D01*
X69851515Y-114136212D01*
X69809458Y-114147482D01*
X69684042Y-114219890D01*
X69581640Y-114322292D01*
X69509232Y-114447708D01*
X69497962Y-114489765D01*
X68727498Y-113719300D01*
X68727497Y-113719301D01*
X68653309Y-113821413D01*
X68538969Y-114045815D01*
X68461147Y-114285330D01*
X68421750Y-114534071D01*
X66871750Y-114534071D01*
X66832352Y-114285330D01*
X66754530Y-114045815D01*
X66640192Y-113821416D01*
X66566000Y-113719301D01*
X66566000Y-113719300D01*
X65795537Y-114489764D01*
X65784268Y-114447708D01*
X65711860Y-114322292D01*
X65609458Y-114219890D01*
X65484042Y-114147482D01*
X65441982Y-114136212D01*
X66212448Y-113365748D01*
X66110333Y-113291557D01*
X65885934Y-113177219D01*
X65646419Y-113099397D01*
X65397678Y-113060000D01*
X65145822Y-113060000D01*
X64897080Y-113099397D01*
X64657565Y-113177219D01*
X64433163Y-113291559D01*
X64331051Y-113365747D01*
X64331050Y-113365748D01*
X65101515Y-114136212D01*
X65059458Y-114147482D01*
X64934042Y-114219890D01*
X64831640Y-114322292D01*
X64759232Y-114447708D01*
X64747962Y-114489765D01*
X63977498Y-113719300D01*
X63977497Y-113719301D01*
X63903309Y-113821413D01*
X63788969Y-114045815D01*
X63711147Y-114285330D01*
X63671750Y-114534071D01*
X53659767Y-114534071D01*
X53659767Y-114368880D01*
X53625537Y-114108884D01*
X53557665Y-113855581D01*
X53556825Y-113853553D01*
X53457313Y-113613309D01*
X53457308Y-113613299D01*
X53326191Y-113386196D01*
X53166548Y-113178148D01*
X53166541Y-113178140D01*
X52981127Y-112992726D01*
X52981118Y-112992718D01*
X52773070Y-112833075D01*
X52733384Y-112810163D01*
X52555822Y-112707648D01*
X59221250Y-112707648D01*
X59221250Y-112912351D01*
X59253272Y-113114534D01*
X59316531Y-113309223D01*
X59409465Y-113491613D01*
X59529778Y-113657213D01*
X59674536Y-113801971D01*
X59829499Y-113914556D01*
X59840140Y-113922287D01*
X59950297Y-113978415D01*
X60022526Y-114015218D01*
X60022528Y-114015218D01*
X60022531Y-114015220D01*
X60116693Y-114045815D01*
X60217215Y-114078477D01*
X60318307Y-114094488D01*
X60419398Y-114110500D01*
X60419399Y-114110500D01*
X60624101Y-114110500D01*
X60624102Y-114110500D01*
X60826284Y-114078477D01*
X61020969Y-114015220D01*
X61203360Y-113922287D01*
X61297965Y-113853553D01*
X61368963Y-113801971D01*
X61368965Y-113801968D01*
X61368969Y-113801966D01*
X61513716Y-113657219D01*
X61513718Y-113657215D01*
X61513721Y-113657213D01*
X61627941Y-113500000D01*
X61634037Y-113491610D01*
X61708430Y-113345606D01*
X61726967Y-113309226D01*
X61726967Y-113309222D01*
X61726970Y-113309219D01*
X61790227Y-113114534D01*
X61822250Y-112912352D01*
X61822250Y-112707648D01*
X61790227Y-112505466D01*
X61726970Y-112310781D01*
X61726968Y-112310778D01*
X61726968Y-112310776D01*
X61693253Y-112244607D01*
X61634037Y-112128390D01*
X61594461Y-112073918D01*
X61513721Y-111962786D01*
X61368963Y-111818028D01*
X61203363Y-111697715D01*
X61203362Y-111697714D01*
X61203360Y-111697713D01*
X61137446Y-111664128D01*
X61020973Y-111604781D01*
X60826284Y-111541522D01*
X60651745Y-111513878D01*
X60624102Y-111509500D01*
X60419398Y-111509500D01*
X60395079Y-111513351D01*
X60217215Y-111541522D01*
X60022526Y-111604781D01*
X59840136Y-111697715D01*
X59674536Y-111818028D01*
X59529778Y-111962786D01*
X59409465Y-112128386D01*
X59316531Y-112310776D01*
X59253272Y-112505465D01*
X59221250Y-112707648D01*
X52555822Y-112707648D01*
X52545967Y-112701958D01*
X52545957Y-112701953D01*
X52303695Y-112601605D01*
X52303688Y-112601603D01*
X52303686Y-112601602D01*
X52050383Y-112533730D01*
X51992606Y-112526123D01*
X51790394Y-112499500D01*
X51790387Y-112499500D01*
X51528147Y-112499500D01*
X51528139Y-112499500D01*
X51297039Y-112529926D01*
X51268151Y-112533730D01*
X51014848Y-112601602D01*
X51014838Y-112601605D01*
X50772576Y-112701953D01*
X50772566Y-112701958D01*
X50545463Y-112833075D01*
X50337415Y-112992718D01*
X50151985Y-113178148D01*
X49992342Y-113386196D01*
X49861225Y-113613299D01*
X49861220Y-113613309D01*
X49760811Y-113855720D01*
X49716970Y-113910123D01*
X49650676Y-113932188D01*
X49582976Y-113914909D01*
X49535366Y-113863771D01*
X49522250Y-113808267D01*
X49522250Y-107552155D01*
X51346750Y-107552155D01*
X51346750Y-108250000D01*
X52371472Y-108250000D01*
X52327417Y-108326306D01*
X52296750Y-108440756D01*
X52296750Y-108559244D01*
X52327417Y-108673694D01*
X52371472Y-108750000D01*
X51346750Y-108750000D01*
X51346750Y-109447844D01*
X51353151Y-109507372D01*
X51353153Y-109507379D01*
X51403395Y-109642086D01*
X51403399Y-109642093D01*
X51489559Y-109757187D01*
X51489562Y-109757190D01*
X51604656Y-109843350D01*
X51604663Y-109843354D01*
X51739370Y-109893596D01*
X51739377Y-109893598D01*
X51798905Y-109899999D01*
X51798922Y-109900000D01*
X52496750Y-109900000D01*
X52496750Y-108875277D01*
X52573056Y-108919333D01*
X52687506Y-108950000D01*
X52805994Y-108950000D01*
X52920444Y-108919333D01*
X52996750Y-108875277D01*
X52996750Y-109900000D01*
X53694578Y-109900000D01*
X53694594Y-109899999D01*
X53754122Y-109893598D01*
X53754129Y-109893596D01*
X53888836Y-109843354D01*
X53888843Y-109843350D01*
X54003937Y-109757190D01*
X54003940Y-109757187D01*
X54090100Y-109642093D01*
X54090104Y-109642086D01*
X54119963Y-109562031D01*
X54161834Y-109506097D01*
X54227298Y-109481680D01*
X54295571Y-109496531D01*
X54323826Y-109517683D01*
X54374386Y-109568243D01*
X54374391Y-109568247D01*
X54529942Y-109681260D01*
X54552728Y-109697815D01*
X54669251Y-109757187D01*
X54749143Y-109797895D01*
X54749146Y-109797896D01*
X54789068Y-109810867D01*
X54958799Y-109866015D01*
X55176528Y-109900500D01*
X55176529Y-109900500D01*
X55396971Y-109900500D01*
X55396972Y-109900500D01*
X55614701Y-109866015D01*
X55824356Y-109797895D01*
X56020772Y-109697815D01*
X56199115Y-109568242D01*
X56354992Y-109412365D01*
X56484565Y-109234022D01*
X56584645Y-109037606D01*
X56652765Y-108827951D01*
X56687250Y-108610222D01*
X56687250Y-108389778D01*
X56665834Y-108254566D01*
X56674788Y-108185276D01*
X56700623Y-108147493D01*
X57450435Y-107397682D01*
X73911750Y-107397682D01*
X73911750Y-107602317D01*
X73943759Y-107804417D01*
X74006994Y-107999031D01*
X74099891Y-108181350D01*
X74099897Y-108181359D01*
X74132273Y-108225921D01*
X74132274Y-108225922D01*
X74811750Y-107546446D01*
X74811750Y-107552661D01*
X74839009Y-107654394D01*
X74891670Y-107745606D01*
X74966144Y-107820080D01*
X75057356Y-107872741D01*
X75159089Y-107900000D01*
X75165303Y-107900000D01*
X74485826Y-108579474D01*
X74530400Y-108611859D01*
X74712718Y-108704755D01*
X74907332Y-108767990D01*
X75109433Y-108800000D01*
X75314067Y-108800000D01*
X75516167Y-108767990D01*
X75710781Y-108704755D01*
X75893099Y-108611859D01*
X75937671Y-108579474D01*
X75258197Y-107900000D01*
X75264411Y-107900000D01*
X75366144Y-107872741D01*
X75457356Y-107820080D01*
X75531830Y-107745606D01*
X75584491Y-107654394D01*
X75611750Y-107552661D01*
X75611750Y-107546447D01*
X76291224Y-108225921D01*
X76323609Y-108181349D01*
X76416505Y-107999031D01*
X76479740Y-107804417D01*
X76511750Y-107602317D01*
X76511750Y-107397682D01*
X76479740Y-107195582D01*
X76416505Y-107000968D01*
X76323609Y-106818650D01*
X76291224Y-106774077D01*
X76291224Y-106774076D01*
X75611750Y-107453551D01*
X75611750Y-107447339D01*
X75584491Y-107345606D01*
X75531830Y-107254394D01*
X75457356Y-107179920D01*
X75366144Y-107127259D01*
X75264411Y-107100000D01*
X75258196Y-107100000D01*
X75937672Y-106420524D01*
X75937671Y-106420523D01*
X75893109Y-106388147D01*
X75893100Y-106388141D01*
X75710781Y-106295244D01*
X75516167Y-106232009D01*
X75314067Y-106200000D01*
X75109433Y-106200000D01*
X74907332Y-106232009D01*
X74712718Y-106295244D01*
X74530394Y-106388143D01*
X74485827Y-106420523D01*
X74485827Y-106420524D01*
X75165304Y-107100000D01*
X75159089Y-107100000D01*
X75057356Y-107127259D01*
X74966144Y-107179920D01*
X74891670Y-107254394D01*
X74839009Y-107345606D01*
X74811750Y-107447339D01*
X74811750Y-107453553D01*
X74132274Y-106774077D01*
X74132273Y-106774077D01*
X74099893Y-106818644D01*
X74006994Y-107000968D01*
X73943759Y-107195582D01*
X73911750Y-107397682D01*
X57450435Y-107397682D01*
X58871299Y-105976819D01*
X58932622Y-105943334D01*
X58958980Y-105940500D01*
X59396332Y-105940500D01*
X59463371Y-105960185D01*
X59496650Y-105991615D01*
X59529778Y-106037212D01*
X59529782Y-106037217D01*
X59674536Y-106181971D01*
X59829499Y-106294556D01*
X59840140Y-106302287D01*
X59948105Y-106357298D01*
X60022526Y-106395218D01*
X60022528Y-106395218D01*
X60022531Y-106395220D01*
X60100406Y-106420523D01*
X60217215Y-106458477D01*
X60318307Y-106474488D01*
X60419398Y-106490500D01*
X60419399Y-106490500D01*
X60624101Y-106490500D01*
X60624102Y-106490500D01*
X60826284Y-106458477D01*
X61020969Y-106395220D01*
X61203360Y-106302287D01*
X61300759Y-106231523D01*
X61368963Y-106181971D01*
X61368965Y-106181968D01*
X61368969Y-106181966D01*
X61513716Y-106037219D01*
X61513718Y-106037215D01*
X61513721Y-106037213D01*
X61583986Y-105940500D01*
X61634037Y-105871610D01*
X61726970Y-105689219D01*
X61790227Y-105494534D01*
X61822250Y-105292352D01*
X61822250Y-105087648D01*
X61790227Y-104885466D01*
X61726970Y-104690781D01*
X61726968Y-104690778D01*
X61726968Y-104690776D01*
X61659219Y-104557813D01*
X61634037Y-104508390D01*
X61583986Y-104439500D01*
X61513721Y-104342786D01*
X61368963Y-104198028D01*
X61203363Y-104077715D01*
X61203362Y-104077714D01*
X61203360Y-104077713D01*
X61146403Y-104048691D01*
X61020973Y-103984781D01*
X60826284Y-103921522D01*
X60651745Y-103893878D01*
X60624102Y-103889500D01*
X60419398Y-103889500D01*
X60395079Y-103893351D01*
X60217215Y-103921522D01*
X60022526Y-103984781D01*
X59840136Y-104077715D01*
X59674536Y-104198028D01*
X59529782Y-104342782D01*
X59529778Y-104342787D01*
X59496650Y-104388385D01*
X59441321Y-104431051D01*
X59396332Y-104439500D01*
X58522830Y-104439500D01*
X58377842Y-104468340D01*
X58377836Y-104468342D01*
X58241258Y-104524914D01*
X58241246Y-104524921D01*
X58192019Y-104557813D01*
X58118338Y-104607044D01*
X58118330Y-104607050D01*
X55639258Y-107086122D01*
X55577935Y-107119607D01*
X55532179Y-107120914D01*
X55396977Y-107099500D01*
X55396972Y-107099500D01*
X55176528Y-107099500D01*
X55103951Y-107110995D01*
X54958797Y-107133985D01*
X54749146Y-107202103D01*
X54749143Y-107202104D01*
X54552724Y-107302187D01*
X54374391Y-107431752D01*
X54374386Y-107431756D01*
X54323825Y-107482317D01*
X54262502Y-107515801D01*
X54192810Y-107510816D01*
X54136877Y-107468945D01*
X54119963Y-107437968D01*
X54090104Y-107357913D01*
X54090100Y-107357906D01*
X54003940Y-107242812D01*
X54003937Y-107242809D01*
X53888843Y-107156649D01*
X53888836Y-107156645D01*
X53754129Y-107106403D01*
X53754122Y-107106401D01*
X53694594Y-107100000D01*
X52996750Y-107100000D01*
X52996750Y-108124722D01*
X52920444Y-108080667D01*
X52805994Y-108050000D01*
X52687506Y-108050000D01*
X52573056Y-108080667D01*
X52496750Y-108124722D01*
X52496750Y-107100000D01*
X51798905Y-107100000D01*
X51739377Y-107106401D01*
X51739370Y-107106403D01*
X51604663Y-107156645D01*
X51604656Y-107156649D01*
X51489562Y-107242809D01*
X51489559Y-107242812D01*
X51403399Y-107357906D01*
X51403395Y-107357913D01*
X51353153Y-107492620D01*
X51353151Y-107492627D01*
X51346750Y-107552155D01*
X49522250Y-107552155D01*
X49522250Y-96341902D01*
X53021250Y-96341902D01*
X53021250Y-96578097D01*
X53058196Y-96811368D01*
X53131183Y-97035996D01*
X53163240Y-97098910D01*
X53238407Y-97246433D01*
X53377233Y-97437510D01*
X53377240Y-97437517D01*
X53380397Y-97441214D01*
X53378614Y-97442736D01*
X53407476Y-97495591D01*
X53402492Y-97565283D01*
X53360620Y-97621216D01*
X53351408Y-97627487D01*
X53303094Y-97657287D01*
X53179039Y-97781342D01*
X53086937Y-97930663D01*
X53086935Y-97930668D01*
X53075353Y-97965621D01*
X53031751Y-98097203D01*
X53031751Y-98097204D01*
X53031750Y-98097204D01*
X53021250Y-98199983D01*
X53021250Y-99800001D01*
X53021251Y-99800018D01*
X53031750Y-99902796D01*
X53031751Y-99902799D01*
X53086935Y-100069331D01*
X53086937Y-100069336D01*
X53121819Y-100125888D01*
X53179038Y-100218656D01*
X53303094Y-100342712D01*
X53452416Y-100434814D01*
X53618953Y-100489999D01*
X53721741Y-100500500D01*
X55321758Y-100500499D01*
X55334289Y-100499219D01*
X55339645Y-100498671D01*
X55424547Y-100489999D01*
X55591084Y-100434814D01*
X55740406Y-100342712D01*
X55864462Y-100218656D01*
X55956564Y-100069334D01*
X56011749Y-99902797D01*
X56022250Y-99800009D01*
X56022249Y-98831358D01*
X56041933Y-98764320D01*
X56058563Y-98743683D01*
X56348208Y-98454038D01*
X62921250Y-98454038D01*
X62921250Y-98705962D01*
X62955233Y-98920523D01*
X62960660Y-98954785D01*
X63038510Y-99194383D01*
X63152882Y-99418848D01*
X63300951Y-99622649D01*
X63300955Y-99622654D01*
X63482539Y-99804238D01*
X63481464Y-99805312D01*
X63515975Y-99858180D01*
X63521250Y-99893962D01*
X63521250Y-103848541D01*
X63521250Y-103848543D01*
X63521249Y-103848543D01*
X63559697Y-104041829D01*
X63559700Y-104041839D01*
X63635114Y-104223907D01*
X63635119Y-104223916D01*
X63650351Y-104246711D01*
X63671230Y-104313388D01*
X63671250Y-104315604D01*
X63671250Y-105400017D01*
X63681750Y-105502796D01*
X63736935Y-105669332D01*
X63736937Y-105669337D01*
X63749203Y-105689223D01*
X63829038Y-105818656D01*
X63953094Y-105942712D01*
X64102415Y-106034814D01*
X64268952Y-106089999D01*
X64371740Y-106100500D01*
X64371745Y-106100500D01*
X66171755Y-106100500D01*
X66171760Y-106100500D01*
X66274548Y-106089999D01*
X66441085Y-106034814D01*
X66590406Y-105942712D01*
X66714462Y-105818656D01*
X66806564Y-105669335D01*
X66861749Y-105502798D01*
X66872250Y-105400010D01*
X66872250Y-103599990D01*
X66861749Y-103497202D01*
X66806564Y-103330665D01*
X66714462Y-103181344D01*
X66590406Y-103057288D01*
X66441085Y-102965186D01*
X66274548Y-102910001D01*
X66274546Y-102910000D01*
X66171767Y-102899500D01*
X66171760Y-102899500D01*
X65646250Y-102899500D01*
X65579211Y-102879815D01*
X65533456Y-102827011D01*
X65522250Y-102775500D01*
X65522250Y-99893962D01*
X65541935Y-99826923D01*
X65561373Y-99804650D01*
X65560961Y-99804238D01*
X65610805Y-99754394D01*
X65742543Y-99622656D01*
X65890620Y-99418845D01*
X66004991Y-99194379D01*
X66082840Y-98954785D01*
X66122250Y-98705962D01*
X66122250Y-98454038D01*
X66082840Y-98205215D01*
X66004991Y-97965621D01*
X66004989Y-97965618D01*
X66004989Y-97965616D01*
X65911096Y-97781342D01*
X65890620Y-97741155D01*
X65829687Y-97657288D01*
X65742548Y-97537350D01*
X65742544Y-97537345D01*
X65564404Y-97359205D01*
X65564399Y-97359201D01*
X65360598Y-97211132D01*
X65360597Y-97211131D01*
X65360595Y-97211130D01*
X65263008Y-97161407D01*
X65136133Y-97096760D01*
X64896535Y-97018910D01*
X64880801Y-97016418D01*
X64647712Y-96979500D01*
X64395788Y-96979500D01*
X64271376Y-96999205D01*
X64146964Y-97018910D01*
X63907366Y-97096760D01*
X63682901Y-97211132D01*
X63479100Y-97359201D01*
X63479095Y-97359205D01*
X63300955Y-97537345D01*
X63300951Y-97537350D01*
X63152882Y-97741151D01*
X63038510Y-97965616D01*
X63012515Y-98045621D01*
X62960660Y-98205215D01*
X62921250Y-98454038D01*
X56348208Y-98454038D01*
X58265429Y-96536819D01*
X58326752Y-96503334D01*
X58353110Y-96500500D01*
X65895968Y-96500500D01*
X65963007Y-96520185D01*
X65983649Y-96536819D01*
X67885177Y-98438347D01*
X67918662Y-98499670D01*
X67920671Y-98529166D01*
X67921250Y-98529166D01*
X67921250Y-98785961D01*
X67960660Y-99034785D01*
X68038510Y-99274383D01*
X68152882Y-99498848D01*
X68300951Y-99702649D01*
X68300955Y-99702654D01*
X68482539Y-99884238D01*
X68481464Y-99885312D01*
X68515975Y-99938180D01*
X68521250Y-99973962D01*
X68521250Y-103239866D01*
X68502790Y-103304961D01*
X68486938Y-103330660D01*
X68486935Y-103330667D01*
X68465321Y-103395894D01*
X68431751Y-103497202D01*
X68431751Y-103497203D01*
X68431750Y-103497203D01*
X68421250Y-103599982D01*
X68421250Y-105400017D01*
X68431750Y-105502796D01*
X68486935Y-105669332D01*
X68486937Y-105669337D01*
X68499203Y-105689223D01*
X68579038Y-105818656D01*
X68703094Y-105942712D01*
X68852415Y-106034814D01*
X69018952Y-106089999D01*
X69121740Y-106100500D01*
X69121745Y-106100500D01*
X70921755Y-106100500D01*
X70921760Y-106100500D01*
X71024548Y-106089999D01*
X71191085Y-106034814D01*
X71340406Y-105942712D01*
X71464462Y-105818656D01*
X71556564Y-105669335D01*
X71611749Y-105502798D01*
X71622250Y-105400010D01*
X71622250Y-103599990D01*
X71611749Y-103497202D01*
X71556564Y-103330665D01*
X71464462Y-103181344D01*
X71340406Y-103057288D01*
X71191085Y-102965186D01*
X71024548Y-102910001D01*
X71024546Y-102910000D01*
X70921767Y-102899500D01*
X70921760Y-102899500D01*
X70646250Y-102899500D01*
X70579211Y-102879815D01*
X70533456Y-102827011D01*
X70522250Y-102775500D01*
X70522250Y-99973962D01*
X70541935Y-99906923D01*
X70561373Y-99884650D01*
X70560961Y-99884238D01*
X70645198Y-99800001D01*
X70742543Y-99702656D01*
X70890620Y-99498845D01*
X71004991Y-99274379D01*
X71082840Y-99034785D01*
X71122250Y-98785962D01*
X71122250Y-98534038D01*
X71082840Y-98285215D01*
X71004991Y-98045621D01*
X71004989Y-98045618D01*
X71004989Y-98045616D01*
X70963497Y-97964184D01*
X70890620Y-97821155D01*
X70771564Y-97657288D01*
X70742548Y-97617350D01*
X70742544Y-97617345D01*
X70564404Y-97439205D01*
X70564399Y-97439201D01*
X70360598Y-97291132D01*
X70360597Y-97291131D01*
X70360595Y-97291130D01*
X70272872Y-97246433D01*
X70136133Y-97176760D01*
X69896535Y-97098910D01*
X69647712Y-97059500D01*
X69395788Y-97059500D01*
X69390916Y-97059500D01*
X69390916Y-97057988D01*
X69329096Y-97044982D01*
X69300097Y-97023427D01*
X67143229Y-94866559D01*
X67143209Y-94866537D01*
X66999535Y-94722863D01*
X66999531Y-94722860D01*
X66835670Y-94613371D01*
X66835661Y-94613366D01*
X66763065Y-94583296D01*
X66706915Y-94560038D01*
X66653586Y-94537949D01*
X66653582Y-94537948D01*
X66653578Y-94537946D01*
X66556938Y-94518724D01*
X66460294Y-94499500D01*
X66460291Y-94499500D01*
X57788787Y-94499500D01*
X57788783Y-94499500D01*
X57692140Y-94518724D01*
X57595495Y-94537947D01*
X57595489Y-94537949D01*
X57542162Y-94560037D01*
X57542162Y-94560038D01*
X57496643Y-94578892D01*
X57413417Y-94613366D01*
X57413407Y-94613371D01*
X57249547Y-94722859D01*
X57179868Y-94792538D01*
X57110189Y-94862218D01*
X57110186Y-94862221D01*
X56092435Y-95879971D01*
X56031112Y-95913456D01*
X55961420Y-95908472D01*
X55905487Y-95866600D01*
X55894269Y-95848585D01*
X55805092Y-95673566D01*
X55666267Y-95482490D01*
X55558569Y-95374792D01*
X55525084Y-95313469D01*
X55522250Y-95287111D01*
X55522250Y-93275781D01*
X55541935Y-93208742D01*
X55558565Y-93188104D01*
X56109953Y-92636715D01*
X56171274Y-92603232D01*
X56178223Y-92601927D01*
X56326284Y-92578477D01*
X56520969Y-92515220D01*
X56703360Y-92422287D01*
X56821997Y-92336093D01*
X56868963Y-92301971D01*
X56868965Y-92301968D01*
X56868969Y-92301966D01*
X57013716Y-92157219D01*
X57013718Y-92157215D01*
X57013721Y-92157213D01*
X57066482Y-92084590D01*
X57134037Y-91991610D01*
X57226970Y-91809219D01*
X57290227Y-91614534D01*
X57313675Y-91466483D01*
X57343604Y-91403350D01*
X57348449Y-91398219D01*
X61226688Y-87519982D01*
X62921250Y-87519982D01*
X62921250Y-89320017D01*
X62931750Y-89422796D01*
X62957499Y-89500500D01*
X62986936Y-89589335D01*
X63079038Y-89738656D01*
X63203094Y-89862712D01*
X63352415Y-89954814D01*
X63518952Y-90009999D01*
X63621740Y-90020500D01*
X63621745Y-90020500D01*
X65421755Y-90020500D01*
X65421760Y-90020500D01*
X65524548Y-90009999D01*
X65691085Y-89954814D01*
X65840406Y-89862712D01*
X65964462Y-89738656D01*
X66056564Y-89589335D01*
X66084346Y-89505494D01*
X66124118Y-89448051D01*
X66188633Y-89421228D01*
X66202051Y-89420500D01*
X67814939Y-89420500D01*
X67881978Y-89440185D01*
X67927733Y-89492989D01*
X67932645Y-89505496D01*
X67986935Y-89669332D01*
X67986937Y-89669337D01*
X68010890Y-89708171D01*
X68079038Y-89818656D01*
X68203094Y-89942712D01*
X68352415Y-90034814D01*
X68518952Y-90089999D01*
X68621740Y-90100500D01*
X68621745Y-90100500D01*
X70421755Y-90100500D01*
X70421760Y-90100500D01*
X70524548Y-90089999D01*
X70691085Y-90034814D01*
X70840406Y-89942712D01*
X70964462Y-89818656D01*
X71056564Y-89669335D01*
X71084346Y-89585494D01*
X71124118Y-89528051D01*
X71188633Y-89501228D01*
X71202051Y-89500500D01*
X74960138Y-89500500D01*
X75027177Y-89520185D01*
X75072932Y-89572989D01*
X75082876Y-89642147D01*
X75074699Y-89671952D01*
X75059699Y-89708163D01*
X75059697Y-89708171D01*
X75021250Y-89901456D01*
X75021250Y-99124237D01*
X75001565Y-99191276D01*
X74997568Y-99197122D01*
X74909465Y-99318386D01*
X74816531Y-99500776D01*
X74753272Y-99695465D01*
X74721250Y-99897648D01*
X74721250Y-100102351D01*
X74753272Y-100304534D01*
X74816531Y-100499223D01*
X74857698Y-100580016D01*
X74909335Y-100681359D01*
X74909465Y-100681613D01*
X75029778Y-100847213D01*
X75174536Y-100991971D01*
X75294976Y-101079474D01*
X75340140Y-101112287D01*
X75456357Y-101171503D01*
X75522526Y-101205218D01*
X75522528Y-101205218D01*
X75522531Y-101205220D01*
X75584796Y-101225451D01*
X75717215Y-101268477D01*
X75793125Y-101280500D01*
X75919398Y-101300500D01*
X75919399Y-101300500D01*
X76124101Y-101300500D01*
X76124102Y-101300500D01*
X76326284Y-101268477D01*
X76520969Y-101205220D01*
X76703360Y-101112287D01*
X76859760Y-100998657D01*
X76868963Y-100991971D01*
X76868965Y-100991968D01*
X76868969Y-100991966D01*
X77013716Y-100847219D01*
X77013718Y-100847215D01*
X77013721Y-100847213D01*
X77066482Y-100774590D01*
X77134037Y-100681610D01*
X77226970Y-100499219D01*
X77290227Y-100304534D01*
X77322250Y-100102352D01*
X77322250Y-99897682D01*
X79721750Y-99897682D01*
X79721750Y-100102317D01*
X79753759Y-100304417D01*
X79816994Y-100499031D01*
X79909891Y-100681350D01*
X79909897Y-100681359D01*
X79942273Y-100725921D01*
X79942274Y-100725922D01*
X80621750Y-100046446D01*
X80621750Y-100052661D01*
X80649009Y-100154394D01*
X80701670Y-100245606D01*
X80776144Y-100320080D01*
X80867356Y-100372741D01*
X80969089Y-100400000D01*
X80975303Y-100400000D01*
X80295826Y-101079474D01*
X80340400Y-101111859D01*
X80522718Y-101204755D01*
X80717332Y-101267990D01*
X80919433Y-101300000D01*
X81124067Y-101300000D01*
X81326167Y-101267990D01*
X81520781Y-101204755D01*
X81703099Y-101111859D01*
X81747671Y-101079474D01*
X81068197Y-100400000D01*
X81074411Y-100400000D01*
X81176144Y-100372741D01*
X81267356Y-100320080D01*
X81341830Y-100245606D01*
X81394491Y-100154394D01*
X81421750Y-100052661D01*
X81421750Y-100046447D01*
X82101224Y-100725921D01*
X82133609Y-100681349D01*
X82226505Y-100499031D01*
X82289740Y-100304417D01*
X82321750Y-100102317D01*
X82321750Y-99897682D01*
X82289740Y-99695582D01*
X82226505Y-99500968D01*
X82133609Y-99318650D01*
X82101224Y-99274077D01*
X82101224Y-99274076D01*
X81421750Y-99953551D01*
X81421750Y-99947339D01*
X81394491Y-99845606D01*
X81341830Y-99754394D01*
X81267356Y-99679920D01*
X81176144Y-99627259D01*
X81074411Y-99600000D01*
X81068196Y-99600000D01*
X81747672Y-98920524D01*
X81747671Y-98920523D01*
X81703109Y-98888147D01*
X81703100Y-98888141D01*
X81520781Y-98795244D01*
X81326167Y-98732009D01*
X81124067Y-98700000D01*
X80919433Y-98700000D01*
X80717332Y-98732009D01*
X80522718Y-98795244D01*
X80340394Y-98888143D01*
X80295827Y-98920523D01*
X80295827Y-98920524D01*
X80975304Y-99600000D01*
X80969089Y-99600000D01*
X80867356Y-99627259D01*
X80776144Y-99679920D01*
X80701670Y-99754394D01*
X80649009Y-99845606D01*
X80621750Y-99947339D01*
X80621750Y-99953553D01*
X79942274Y-99274077D01*
X79942273Y-99274077D01*
X79909893Y-99318644D01*
X79816994Y-99500968D01*
X79753759Y-99695582D01*
X79721750Y-99897682D01*
X77322250Y-99897682D01*
X77322250Y-99897648D01*
X77307455Y-99804238D01*
X77290227Y-99695465D01*
X77259208Y-99600000D01*
X77226970Y-99500781D01*
X77226968Y-99500778D01*
X77226968Y-99500776D01*
X77134169Y-99318650D01*
X77134037Y-99318390D01*
X77102064Y-99274383D01*
X77045932Y-99197122D01*
X77038779Y-99177077D01*
X77027273Y-99159172D01*
X77023818Y-99135145D01*
X77022452Y-99131316D01*
X77022250Y-99124237D01*
X77022250Y-94624500D01*
X77041935Y-94557461D01*
X77094739Y-94511706D01*
X77146250Y-94500500D01*
X81310292Y-94500500D01*
X81341316Y-94494328D01*
X81406938Y-94481275D01*
X81503586Y-94462051D01*
X81556915Y-94439961D01*
X81685664Y-94386632D01*
X81849532Y-94277139D01*
X81988889Y-94137782D01*
X81988890Y-94137779D01*
X81995956Y-94130714D01*
X81995959Y-94130710D01*
X85999851Y-90126818D01*
X86026778Y-90112114D01*
X86052597Y-90095522D01*
X86058797Y-90094630D01*
X86061174Y-90093333D01*
X86087532Y-90090499D01*
X86309519Y-90090499D01*
X86376558Y-90110184D01*
X86397200Y-90126818D01*
X86734931Y-90464548D01*
X86768416Y-90525871D01*
X86771250Y-90552229D01*
X86771250Y-94917720D01*
X86751565Y-94984759D01*
X86698761Y-95030514D01*
X86629603Y-95040458D01*
X86590956Y-95028205D01*
X86559362Y-95012107D01*
X86559353Y-95012103D01*
X86349702Y-94943985D01*
X86240836Y-94926742D01*
X86131972Y-94909500D01*
X85911528Y-94909500D01*
X85859629Y-94917720D01*
X85693797Y-94943985D01*
X85484146Y-95012103D01*
X85484143Y-95012104D01*
X85287724Y-95112187D01*
X85109391Y-95241752D01*
X85109386Y-95241756D01*
X84953506Y-95397636D01*
X84953502Y-95397641D01*
X84823937Y-95575974D01*
X84723854Y-95772393D01*
X84723853Y-95772396D01*
X84655735Y-95982047D01*
X84621250Y-96199778D01*
X84621250Y-96420221D01*
X84655735Y-96637952D01*
X84723853Y-96847603D01*
X84723854Y-96847606D01*
X84791059Y-96979500D01*
X84819843Y-97035992D01*
X84823937Y-97044025D01*
X84953502Y-97222358D01*
X84953506Y-97222363D01*
X85109388Y-97378245D01*
X85220134Y-97458705D01*
X85262801Y-97514035D01*
X85271250Y-97559024D01*
X85271250Y-101137770D01*
X85251565Y-101204809D01*
X85234931Y-101225451D01*
X77438799Y-109021582D01*
X77428093Y-109037606D01*
X77356663Y-109144508D01*
X77300093Y-109281082D01*
X77300090Y-109281092D01*
X77271250Y-109426079D01*
X77271250Y-109426082D01*
X77271250Y-112073918D01*
X77271250Y-112073920D01*
X77271249Y-112073920D01*
X77300090Y-112218907D01*
X77300093Y-112218917D01*
X77356664Y-112355492D01*
X77356665Y-112355494D01*
X77356666Y-112355495D01*
X77378483Y-112388147D01*
X77389562Y-112404727D01*
X77389563Y-112404730D01*
X77438796Y-112478414D01*
X77438802Y-112478421D01*
X78573682Y-113613299D01*
X78938798Y-113978415D01*
X78938799Y-113978416D01*
X79006198Y-114045815D01*
X79043335Y-114082952D01*
X79166248Y-114165080D01*
X79166261Y-114165087D01*
X79302832Y-114221656D01*
X79302837Y-114221658D01*
X79302841Y-114221658D01*
X79302842Y-114221659D01*
X79447829Y-114250500D01*
X79447832Y-114250500D01*
X81706332Y-114250500D01*
X81773371Y-114270185D01*
X81806650Y-114301615D01*
X81839778Y-114347212D01*
X81839782Y-114347217D01*
X81984536Y-114491971D01*
X82130431Y-114597968D01*
X82150140Y-114612287D01*
X82243780Y-114659999D01*
X82332526Y-114705218D01*
X82332528Y-114705218D01*
X82332531Y-114705220D01*
X82416210Y-114732409D01*
X82527215Y-114768477D01*
X82628307Y-114784488D01*
X82729398Y-114800500D01*
X82729399Y-114800500D01*
X82934101Y-114800500D01*
X82934102Y-114800500D01*
X83136284Y-114768477D01*
X83330969Y-114705220D01*
X83513360Y-114612287D01*
X83621016Y-114534071D01*
X83678963Y-114491971D01*
X83678965Y-114491968D01*
X83678969Y-114491966D01*
X83802063Y-114368872D01*
X97056587Y-114368872D01*
X97056587Y-114631127D01*
X97074671Y-114768477D01*
X97090817Y-114891116D01*
X97158689Y-115144418D01*
X97158692Y-115144428D01*
X97259040Y-115386690D01*
X97259045Y-115386700D01*
X97390162Y-115613803D01*
X97549805Y-115821851D01*
X97549813Y-115821860D01*
X97735227Y-116007274D01*
X97735235Y-116007281D01*
X97943283Y-116166924D01*
X98170386Y-116298041D01*
X98170396Y-116298046D01*
X98412658Y-116398394D01*
X98412668Y-116398398D01*
X98665971Y-116466270D01*
X98925967Y-116500500D01*
X98925974Y-116500500D01*
X99188200Y-116500500D01*
X99188207Y-116500500D01*
X99448203Y-116466270D01*
X99701506Y-116398398D01*
X99943784Y-116298043D01*
X100170890Y-116166924D01*
X100378938Y-116007282D01*
X100378942Y-116007277D01*
X100378947Y-116007274D01*
X100564361Y-115821860D01*
X100564364Y-115821855D01*
X100564369Y-115821851D01*
X100724011Y-115613803D01*
X100855130Y-115386697D01*
X100955485Y-115144419D01*
X101023357Y-114891116D01*
X101057587Y-114631120D01*
X101057587Y-114368880D01*
X101023357Y-114108884D01*
X100955485Y-113855581D01*
X100954645Y-113853553D01*
X100855133Y-113613309D01*
X100855128Y-113613299D01*
X100724011Y-113386196D01*
X100564368Y-113178148D01*
X100564361Y-113178140D01*
X100378947Y-112992726D01*
X100378938Y-112992718D01*
X100170890Y-112833075D01*
X99943787Y-112701958D01*
X99943777Y-112701953D01*
X99701515Y-112601605D01*
X99701508Y-112601603D01*
X99701506Y-112601602D01*
X99448203Y-112533730D01*
X99390426Y-112526123D01*
X99188214Y-112499500D01*
X99188207Y-112499500D01*
X98925967Y-112499500D01*
X98925959Y-112499500D01*
X98694859Y-112529926D01*
X98665971Y-112533730D01*
X98412668Y-112601602D01*
X98412658Y-112601605D01*
X98170396Y-112701953D01*
X98170386Y-112701958D01*
X97943283Y-112833075D01*
X97735235Y-112992718D01*
X97549805Y-113178148D01*
X97390162Y-113386196D01*
X97259045Y-113613299D01*
X97259040Y-113613309D01*
X97158692Y-113855571D01*
X97158689Y-113855581D01*
X97097766Y-114082952D01*
X97090817Y-114108885D01*
X97056587Y-114368872D01*
X83802063Y-114368872D01*
X83823716Y-114347219D01*
X83823718Y-114347215D01*
X83823721Y-114347213D01*
X83863882Y-114291936D01*
X83914940Y-114221659D01*
X83944037Y-114181610D01*
X84036970Y-113999219D01*
X84100227Y-113804534D01*
X84132250Y-113602352D01*
X84132250Y-113397648D01*
X84115447Y-113291557D01*
X84100227Y-113195465D01*
X84056211Y-113060000D01*
X84036970Y-113000781D01*
X84036968Y-113000778D01*
X84036968Y-113000776D01*
X83991913Y-112912352D01*
X83944037Y-112818390D01*
X83911842Y-112774077D01*
X83823721Y-112652786D01*
X83678963Y-112508028D01*
X83513363Y-112387715D01*
X83513362Y-112387714D01*
X83513360Y-112387713D01*
X83450123Y-112355492D01*
X83330973Y-112294781D01*
X83136284Y-112231522D01*
X82961745Y-112203878D01*
X82934102Y-112199500D01*
X82729398Y-112199500D01*
X82705079Y-112203351D01*
X82527215Y-112231522D01*
X82332526Y-112294781D01*
X82150136Y-112387715D01*
X81984536Y-112508028D01*
X81839782Y-112652782D01*
X81839778Y-112652787D01*
X81806650Y-112698385D01*
X81751321Y-112741051D01*
X81706332Y-112749500D01*
X79883979Y-112749500D01*
X79816940Y-112729815D01*
X79796298Y-112713181D01*
X78808569Y-111725451D01*
X78775084Y-111664128D01*
X78772250Y-111637770D01*
X78772250Y-109862229D01*
X78791935Y-109795190D01*
X78808569Y-109774548D01*
X80023873Y-108559244D01*
X81326470Y-107256646D01*
X81387791Y-107223163D01*
X81457483Y-107228147D01*
X81513416Y-107270019D01*
X81537833Y-107335483D01*
X81536623Y-107363724D01*
X81531250Y-107397648D01*
X81531250Y-107397652D01*
X81531250Y-107602351D01*
X81563272Y-107804534D01*
X81626531Y-107999223D01*
X81652404Y-108050000D01*
X81719335Y-108181359D01*
X81719465Y-108181613D01*
X81839778Y-108347213D01*
X81984536Y-108491971D01*
X82104976Y-108579474D01*
X82150140Y-108612287D01*
X82266357Y-108671503D01*
X82332526Y-108705218D01*
X82332528Y-108705218D01*
X82332531Y-108705220D01*
X82436887Y-108739127D01*
X82527215Y-108768477D01*
X82628307Y-108784488D01*
X82729398Y-108800500D01*
X82729399Y-108800500D01*
X82934101Y-108800500D01*
X82934102Y-108800500D01*
X83136284Y-108768477D01*
X83330969Y-108705220D01*
X83513360Y-108612287D01*
X83606340Y-108544732D01*
X83678963Y-108491971D01*
X83678965Y-108491968D01*
X83678969Y-108491966D01*
X83823716Y-108347219D01*
X83838910Y-108326306D01*
X83856850Y-108301615D01*
X83912179Y-108258949D01*
X83957168Y-108250500D01*
X86272726Y-108250500D01*
X86339765Y-108270185D01*
X86373045Y-108301616D01*
X86453504Y-108412361D01*
X86609386Y-108568243D01*
X86609391Y-108568247D01*
X86670008Y-108612287D01*
X86787728Y-108697815D01*
X86890146Y-108750000D01*
X86984143Y-108797895D01*
X86984146Y-108797896D01*
X87076648Y-108827951D01*
X87193799Y-108866015D01*
X87411528Y-108900500D01*
X87411529Y-108900500D01*
X87631971Y-108900500D01*
X87631972Y-108900500D01*
X87849701Y-108866015D01*
X88059356Y-108797895D01*
X88255772Y-108697815D01*
X88434115Y-108568242D01*
X88589992Y-108412365D01*
X88719565Y-108234022D01*
X88819645Y-108037606D01*
X88887765Y-107827951D01*
X88922250Y-107610222D01*
X88922250Y-107389778D01*
X88887765Y-107172049D01*
X88819645Y-106962394D01*
X88819645Y-106962393D01*
X88784987Y-106894375D01*
X88719565Y-106765978D01*
X88670456Y-106698385D01*
X88589997Y-106587641D01*
X88589993Y-106587636D01*
X88434113Y-106431756D01*
X88434108Y-106431752D01*
X88255775Y-106302187D01*
X88255774Y-106302186D01*
X88255772Y-106302185D01*
X88192846Y-106270122D01*
X88059356Y-106202104D01*
X88059353Y-106202103D01*
X87849702Y-106133985D01*
X87740836Y-106116742D01*
X87631972Y-106099500D01*
X87411528Y-106099500D01*
X87338951Y-106110995D01*
X87193797Y-106133985D01*
X86984146Y-106202103D01*
X86984143Y-106202104D01*
X86787724Y-106302187D01*
X86609391Y-106431752D01*
X86609386Y-106431756D01*
X86453504Y-106587638D01*
X86373045Y-106698384D01*
X86317715Y-106741051D01*
X86272726Y-106749500D01*
X83957168Y-106749500D01*
X83890129Y-106729815D01*
X83856850Y-106698385D01*
X83823721Y-106652787D01*
X83823717Y-106652782D01*
X83678963Y-106508028D01*
X83513363Y-106387715D01*
X83513362Y-106387714D01*
X83513360Y-106387713D01*
X83453667Y-106357298D01*
X83330973Y-106294781D01*
X83136284Y-106231522D01*
X82950549Y-106202105D01*
X82934102Y-106199500D01*
X82729398Y-106199500D01*
X82695475Y-106204873D01*
X82626181Y-106195917D01*
X82572730Y-106150919D01*
X82552092Y-106084167D01*
X82570818Y-106016854D01*
X82588394Y-105994722D01*
X86604701Y-101978416D01*
X86686834Y-101855495D01*
X86743408Y-101718913D01*
X86772250Y-101573918D01*
X86772250Y-101404499D01*
X86791935Y-101337460D01*
X86844739Y-101291705D01*
X86896245Y-101280499D01*
X88221758Y-101280499D01*
X88324547Y-101269999D01*
X88491084Y-101214814D01*
X88640406Y-101122712D01*
X88764462Y-100998656D01*
X88856564Y-100849334D01*
X88911749Y-100682797D01*
X88922250Y-100580009D01*
X88922249Y-99179992D01*
X88911749Y-99077203D01*
X88856564Y-98910666D01*
X88764462Y-98761344D01*
X88640406Y-98637288D01*
X88491084Y-98545186D01*
X88357245Y-98500836D01*
X88299801Y-98461063D01*
X88272978Y-98396547D01*
X88272250Y-98383130D01*
X88272250Y-90116079D01*
X88243409Y-89971092D01*
X88243408Y-89971091D01*
X88243408Y-89971087D01*
X88194724Y-89853553D01*
X88186837Y-89834511D01*
X88186830Y-89834498D01*
X88104702Y-89711585D01*
X88062449Y-89669332D01*
X88000166Y-89607049D01*
X87458568Y-89065451D01*
X87425083Y-89004128D01*
X87422249Y-88977770D01*
X87422249Y-88402231D01*
X87441934Y-88335192D01*
X87458568Y-88314549D01*
X87478337Y-88294780D01*
X87564702Y-88208416D01*
X87618323Y-88128165D01*
X87646834Y-88085495D01*
X87703408Y-87948913D01*
X87719247Y-87869286D01*
X87732250Y-87803920D01*
X87732250Y-84074499D01*
X87751935Y-84007460D01*
X87804739Y-83961705D01*
X87856250Y-83950499D01*
X87982121Y-83950499D01*
X87982122Y-83950499D01*
X88041733Y-83944091D01*
X88176581Y-83893796D01*
X88291796Y-83807546D01*
X88378046Y-83692331D01*
X88388622Y-83663974D01*
X88430490Y-83608041D01*
X88495954Y-83583622D01*
X88564227Y-83598472D01*
X88577690Y-83606988D01*
X88760473Y-83739788D01*
X88964179Y-83843582D01*
X89181621Y-83914234D01*
X89271750Y-83928509D01*
X89271750Y-82940747D01*
X89309458Y-82962518D01*
X89449341Y-83000000D01*
X89594159Y-83000000D01*
X89734042Y-82962518D01*
X89771750Y-82940747D01*
X89771750Y-83928508D01*
X89861878Y-83914234D01*
X90079320Y-83843582D01*
X90283026Y-83739788D01*
X90467992Y-83605402D01*
X90629655Y-83443739D01*
X90691121Y-83359137D01*
X90746451Y-83316470D01*
X90816064Y-83310491D01*
X90877859Y-83343096D01*
X90891757Y-83359134D01*
X90953464Y-83444066D01*
X91115184Y-83605786D01*
X91234308Y-83692335D01*
X91260135Y-83711099D01*
X91302801Y-83766429D01*
X91311250Y-83811417D01*
X91311250Y-89113918D01*
X91311250Y-89113920D01*
X91311249Y-89113920D01*
X91340090Y-89258907D01*
X91340093Y-89258917D01*
X91393622Y-89388147D01*
X91396666Y-89395495D01*
X91412524Y-89419229D01*
X91420349Y-89430940D01*
X91478799Y-89518418D01*
X91478802Y-89518421D01*
X92195276Y-90234894D01*
X92228761Y-90296217D01*
X92230068Y-90341972D01*
X92229237Y-90347219D01*
X92221250Y-90397648D01*
X92221250Y-90602352D01*
X92222824Y-90612287D01*
X92253272Y-90804534D01*
X92316531Y-90999223D01*
X92380441Y-91124653D01*
X92409335Y-91181359D01*
X92409465Y-91181613D01*
X92529778Y-91347213D01*
X92529784Y-91347219D01*
X92674531Y-91491966D01*
X92720134Y-91525098D01*
X92762800Y-91580425D01*
X92771250Y-91625416D01*
X92771250Y-97016418D01*
X92771250Y-97016420D01*
X92771249Y-97016420D01*
X92800090Y-97161407D01*
X92800093Y-97161417D01*
X92856664Y-97297992D01*
X92889163Y-97346630D01*
X92889164Y-97346633D01*
X92938796Y-97420914D01*
X92938802Y-97420921D01*
X96767431Y-101249548D01*
X96800916Y-101310871D01*
X96803750Y-101337229D01*
X96803750Y-102525001D01*
X96803751Y-102525018D01*
X96814250Y-102627796D01*
X96814251Y-102627799D01*
X96863195Y-102775500D01*
X96869436Y-102794334D01*
X96961538Y-102943656D01*
X97085594Y-103067712D01*
X97234916Y-103159814D01*
X97401453Y-103214999D01*
X97504241Y-103225500D01*
X97566942Y-103225499D01*
X97633979Y-103245183D01*
X97654622Y-103261818D01*
X98093191Y-103700387D01*
X98072659Y-103705889D01*
X97935842Y-103784881D01*
X97824131Y-103896592D01*
X97745139Y-104033409D01*
X97739637Y-104053941D01*
X97081590Y-103395894D01*
X97021334Y-103478830D01*
X96914147Y-103689197D01*
X96841184Y-103913752D01*
X96804250Y-104146947D01*
X96804250Y-104383052D01*
X96841184Y-104616247D01*
X96914147Y-104840802D01*
X97021337Y-105051174D01*
X97081588Y-105134104D01*
X97081590Y-105134105D01*
X97739637Y-104476058D01*
X97745139Y-104496591D01*
X97824131Y-104633408D01*
X97935842Y-104745119D01*
X98072659Y-104824111D01*
X98093190Y-104829612D01*
X97435143Y-105487658D01*
X97518078Y-105547914D01*
X97728447Y-105655102D01*
X97953002Y-105728065D01*
X97953001Y-105728065D01*
X98186198Y-105765000D01*
X98422302Y-105765000D01*
X98655497Y-105728065D01*
X98880052Y-105655102D01*
X99090413Y-105547918D01*
X99090419Y-105547914D01*
X99173354Y-105487658D01*
X99173355Y-105487658D01*
X98515308Y-104829612D01*
X98535841Y-104824111D01*
X98672658Y-104745119D01*
X98784369Y-104633408D01*
X98863361Y-104496591D01*
X98868862Y-104476058D01*
X99526908Y-105134105D01*
X99526908Y-105134104D01*
X99587164Y-105051169D01*
X99587168Y-105051163D01*
X99694352Y-104840802D01*
X99767315Y-104616247D01*
X99804250Y-104383052D01*
X99804250Y-104146947D01*
X99767315Y-103913752D01*
X99694352Y-103689197D01*
X99587164Y-103478828D01*
X99526908Y-103395894D01*
X99526908Y-103395893D01*
X98868862Y-104053940D01*
X98863361Y-104033409D01*
X98784369Y-103896592D01*
X98672658Y-103784881D01*
X98535841Y-103705889D01*
X98515308Y-103700387D01*
X98953877Y-103261818D01*
X99015200Y-103228333D01*
X99041557Y-103225499D01*
X99104258Y-103225499D01*
X99207047Y-103214999D01*
X99373584Y-103159814D01*
X99522906Y-103067712D01*
X99646962Y-102943656D01*
X99739064Y-102794334D01*
X99794249Y-102627797D01*
X99804750Y-102525009D01*
X99804749Y-100924992D01*
X99794249Y-100822203D01*
X99739064Y-100655666D01*
X99646962Y-100506344D01*
X99522906Y-100382288D01*
X99373584Y-100290186D01*
X99207047Y-100235001D01*
X99207045Y-100235000D01*
X99104266Y-100224500D01*
X99104259Y-100224500D01*
X97916479Y-100224500D01*
X97849440Y-100204815D01*
X97828798Y-100188181D01*
X94308569Y-96667951D01*
X94275084Y-96606628D01*
X94272250Y-96580270D01*
X94272250Y-91625416D01*
X94272272Y-91625338D01*
X94272250Y-91625261D01*
X94282132Y-91591760D01*
X94291935Y-91558377D01*
X94292003Y-91558297D01*
X94292019Y-91558246D01*
X94292378Y-91557865D01*
X94315165Y-91531602D01*
X94319126Y-91528177D01*
X94368969Y-91491966D01*
X94513716Y-91347219D01*
X94513718Y-91347215D01*
X94513721Y-91347213D01*
X94566482Y-91274590D01*
X94634037Y-91181610D01*
X94726970Y-90999219D01*
X94790227Y-90804534D01*
X94822250Y-90602352D01*
X94822250Y-90397682D01*
X97221750Y-90397682D01*
X97221750Y-90602317D01*
X97253759Y-90804417D01*
X97316994Y-90999031D01*
X97409891Y-91181350D01*
X97409897Y-91181359D01*
X97442273Y-91225921D01*
X97442274Y-91225922D01*
X98121750Y-90546446D01*
X98121750Y-90552661D01*
X98149009Y-90654394D01*
X98201670Y-90745606D01*
X98276144Y-90820080D01*
X98367356Y-90872741D01*
X98469089Y-90900000D01*
X98475303Y-90900000D01*
X97795826Y-91579474D01*
X97840400Y-91611859D01*
X98022718Y-91704755D01*
X98217332Y-91767990D01*
X98419433Y-91800000D01*
X98624067Y-91800000D01*
X98826167Y-91767990D01*
X99020781Y-91704755D01*
X99203099Y-91611859D01*
X99247671Y-91579474D01*
X98568197Y-90900000D01*
X98574411Y-90900000D01*
X98676144Y-90872741D01*
X98767356Y-90820080D01*
X98841830Y-90745606D01*
X98894491Y-90654394D01*
X98921750Y-90552661D01*
X98921750Y-90546447D01*
X99601224Y-91225921D01*
X99633609Y-91181349D01*
X99726505Y-90999031D01*
X99789740Y-90804417D01*
X99821750Y-90602317D01*
X99821750Y-90397682D01*
X99789740Y-90195582D01*
X99726505Y-90000968D01*
X99633609Y-89818650D01*
X99601224Y-89774077D01*
X99601224Y-89774076D01*
X98921750Y-90453551D01*
X98921750Y-90447339D01*
X98894491Y-90345606D01*
X98841830Y-90254394D01*
X98767356Y-90179920D01*
X98676144Y-90127259D01*
X98574411Y-90100000D01*
X98568196Y-90100000D01*
X99247672Y-89420524D01*
X99247671Y-89420523D01*
X99203109Y-89388147D01*
X99203100Y-89388141D01*
X99020781Y-89295244D01*
X98826167Y-89232009D01*
X98624067Y-89200000D01*
X98419433Y-89200000D01*
X98217332Y-89232009D01*
X98022718Y-89295244D01*
X97840394Y-89388143D01*
X97795827Y-89420523D01*
X97795827Y-89420524D01*
X98475304Y-90100000D01*
X98469089Y-90100000D01*
X98367356Y-90127259D01*
X98276144Y-90179920D01*
X98201670Y-90254394D01*
X98149009Y-90345606D01*
X98121750Y-90447339D01*
X98121750Y-90453553D01*
X97442274Y-89774077D01*
X97442273Y-89774077D01*
X97409893Y-89818644D01*
X97316994Y-90000968D01*
X97253759Y-90195582D01*
X97221750Y-90397682D01*
X94822250Y-90397682D01*
X94822250Y-90397648D01*
X94803548Y-90279570D01*
X94790227Y-90195465D01*
X94740208Y-90041523D01*
X94726970Y-90000781D01*
X94726968Y-90000778D01*
X94726968Y-90000776D01*
X94651953Y-89853553D01*
X94634037Y-89818390D01*
X94601842Y-89774077D01*
X94513721Y-89652786D01*
X94368963Y-89508028D01*
X94203363Y-89387715D01*
X94203362Y-89387714D01*
X94203360Y-89387713D01*
X94146403Y-89358691D01*
X94020973Y-89294781D01*
X93826284Y-89231522D01*
X93651745Y-89203878D01*
X93624102Y-89199500D01*
X93419398Y-89199500D01*
X93363722Y-89208318D01*
X93294429Y-89199363D01*
X93256644Y-89173526D01*
X92848569Y-88765451D01*
X92815084Y-88704128D01*
X92812250Y-88677770D01*
X92812250Y-83811417D01*
X92831935Y-83744378D01*
X92863365Y-83711099D01*
X93008316Y-83605786D01*
X93170036Y-83444066D01*
X93304467Y-83259038D01*
X93408298Y-83055258D01*
X93408299Y-83055255D01*
X93478971Y-82837749D01*
X93478971Y-82837748D01*
X93478972Y-82837745D01*
X93514750Y-82611854D01*
X93514750Y-82288146D01*
X93478972Y-82062255D01*
X93478971Y-82062251D01*
X93478971Y-82062250D01*
X93408299Y-81844744D01*
X93408298Y-81844742D01*
X93304467Y-81640962D01*
X93170036Y-81455934D01*
X93008316Y-81294214D01*
X92823288Y-81159783D01*
X92619505Y-81055950D01*
X92401998Y-80985278D01*
X92216562Y-80955908D01*
X92176104Y-80949500D01*
X91947396Y-80949500D01*
X91906938Y-80955908D01*
X91721503Y-80985278D01*
X91721500Y-80985278D01*
X91503994Y-81055950D01*
X91300211Y-81159783D01*
X91219047Y-81218753D01*
X91115184Y-81294214D01*
X91115182Y-81294216D01*
X91115181Y-81294216D01*
X90953466Y-81455931D01*
X90953459Y-81455940D01*
X90891757Y-81540864D01*
X90836427Y-81583530D01*
X90766813Y-81589508D01*
X90705019Y-81556901D01*
X90691122Y-81540863D01*
X90629657Y-81456263D01*
X90629652Y-81456257D01*
X90467992Y-81294597D01*
X90283026Y-81160211D01*
X90079318Y-81056417D01*
X89861874Y-80985765D01*
X89771750Y-80971490D01*
X89771750Y-81959252D01*
X89734042Y-81937482D01*
X89594159Y-81900000D01*
X89449341Y-81900000D01*
X89309458Y-81937482D01*
X89271750Y-81959252D01*
X89271750Y-80971490D01*
X89271749Y-80971490D01*
X89181625Y-80985765D01*
X88964181Y-81056417D01*
X88760469Y-81160213D01*
X88577689Y-81293010D01*
X88511882Y-81316490D01*
X88443829Y-81300664D01*
X88395134Y-81250558D01*
X88388625Y-81236033D01*
X88378046Y-81207669D01*
X88378045Y-81207667D01*
X88378043Y-81207664D01*
X88291797Y-81092455D01*
X88291794Y-81092452D01*
X88176585Y-81006206D01*
X88176578Y-81006202D01*
X88041732Y-80955908D01*
X88041733Y-80955908D01*
X87982133Y-80949501D01*
X87982131Y-80949500D01*
X87982123Y-80949500D01*
X87982114Y-80949500D01*
X85981379Y-80949500D01*
X85981373Y-80949501D01*
X85921766Y-80955908D01*
X85786921Y-81006202D01*
X85786914Y-81006206D01*
X85671705Y-81092452D01*
X85671702Y-81092455D01*
X85585456Y-81207664D01*
X85585452Y-81207671D01*
X85535158Y-81342517D01*
X85528751Y-81402116D01*
X85528750Y-81402135D01*
X85528750Y-83497870D01*
X85528751Y-83497876D01*
X85535158Y-83557483D01*
X85585452Y-83692328D01*
X85585456Y-83692335D01*
X85671702Y-83807544D01*
X85671705Y-83807547D01*
X85786914Y-83893793D01*
X85786921Y-83893797D01*
X85831868Y-83910561D01*
X85921767Y-83944091D01*
X85981377Y-83950500D01*
X86107250Y-83950499D01*
X86174289Y-83970183D01*
X86220044Y-84022987D01*
X86231250Y-84074499D01*
X86231250Y-87165500D01*
X86211565Y-87232539D01*
X86158761Y-87278294D01*
X86107250Y-87289500D01*
X85321748Y-87289500D01*
X85321730Y-87289501D01*
X85218953Y-87300000D01*
X85218950Y-87300001D01*
X85052418Y-87355185D01*
X85052413Y-87355187D01*
X84903092Y-87447289D01*
X84779039Y-87571342D01*
X84686937Y-87720663D01*
X84686935Y-87720668D01*
X84659349Y-87803918D01*
X84631751Y-87887203D01*
X84631751Y-87887204D01*
X84631750Y-87887204D01*
X84621250Y-87989983D01*
X84621250Y-88624217D01*
X84601565Y-88691256D01*
X84584931Y-88711898D01*
X80833649Y-92463181D01*
X80772326Y-92496666D01*
X80745968Y-92499500D01*
X77146250Y-92499500D01*
X77079211Y-92479815D01*
X77033456Y-92427011D01*
X77022250Y-92375500D01*
X77022250Y-90780554D01*
X77041935Y-90713515D01*
X77089956Y-90670069D01*
X77120720Y-90654394D01*
X77203360Y-90612287D01*
X77285429Y-90552661D01*
X77368963Y-90491971D01*
X77368965Y-90491968D01*
X77368969Y-90491966D01*
X77513716Y-90347219D01*
X77513718Y-90347215D01*
X77513721Y-90347213D01*
X77595324Y-90234894D01*
X77634037Y-90181610D01*
X77726970Y-89999219D01*
X77790227Y-89804534D01*
X77822250Y-89602352D01*
X77822250Y-89397682D01*
X80221750Y-89397682D01*
X80221750Y-89602317D01*
X80253759Y-89804417D01*
X80316994Y-89999031D01*
X80409891Y-90181350D01*
X80409897Y-90181359D01*
X80442273Y-90225921D01*
X80442274Y-90225922D01*
X81121750Y-89546446D01*
X81121750Y-89552661D01*
X81149009Y-89654394D01*
X81201670Y-89745606D01*
X81276144Y-89820080D01*
X81367356Y-89872741D01*
X81469089Y-89900000D01*
X81475303Y-89900000D01*
X80795826Y-90579474D01*
X80840400Y-90611859D01*
X81022718Y-90704755D01*
X81217332Y-90767990D01*
X81419433Y-90800000D01*
X81624067Y-90800000D01*
X81826167Y-90767990D01*
X82020781Y-90704755D01*
X82203099Y-90611859D01*
X82247671Y-90579474D01*
X81568197Y-89900000D01*
X81574411Y-89900000D01*
X81676144Y-89872741D01*
X81767356Y-89820080D01*
X81841830Y-89745606D01*
X81894491Y-89654394D01*
X81921750Y-89552661D01*
X81921750Y-89546448D01*
X82601224Y-90225922D01*
X82601224Y-90225921D01*
X82633609Y-90181349D01*
X82726505Y-89999031D01*
X82789740Y-89804417D01*
X82821750Y-89602317D01*
X82821750Y-89397682D01*
X82789740Y-89195582D01*
X82726505Y-89000968D01*
X82633609Y-88818650D01*
X82601224Y-88774077D01*
X82601224Y-88774076D01*
X81921750Y-89453551D01*
X81921750Y-89447339D01*
X81894491Y-89345606D01*
X81841830Y-89254394D01*
X81767356Y-89179920D01*
X81676144Y-89127259D01*
X81574411Y-89100000D01*
X81568196Y-89100000D01*
X82247672Y-88420524D01*
X82247671Y-88420523D01*
X82203109Y-88388147D01*
X82203100Y-88388141D01*
X82020781Y-88295244D01*
X81826167Y-88232009D01*
X81624067Y-88200000D01*
X81419433Y-88200000D01*
X81217332Y-88232009D01*
X81022718Y-88295244D01*
X80840394Y-88388143D01*
X80795827Y-88420523D01*
X80795827Y-88420524D01*
X81475304Y-89100000D01*
X81469089Y-89100000D01*
X81367356Y-89127259D01*
X81276144Y-89179920D01*
X81201670Y-89254394D01*
X81149009Y-89345606D01*
X81121750Y-89447339D01*
X81121750Y-89453553D01*
X80442274Y-88774077D01*
X80442273Y-88774077D01*
X80409893Y-88818644D01*
X80316994Y-89000968D01*
X80253759Y-89195582D01*
X80221750Y-89397682D01*
X77822250Y-89397682D01*
X77822250Y-89397648D01*
X77800275Y-89258907D01*
X77790227Y-89195465D01*
X77759208Y-89100000D01*
X77726970Y-89000781D01*
X77726968Y-89000778D01*
X77726968Y-89000776D01*
X77634169Y-88818650D01*
X77634037Y-88818390D01*
X77601842Y-88774077D01*
X77513721Y-88652786D01*
X77368963Y-88508028D01*
X77203363Y-88387715D01*
X77203362Y-88387714D01*
X77203360Y-88387713D01*
X77131048Y-88350868D01*
X77020973Y-88294781D01*
X76826285Y-88231523D01*
X76678233Y-88208073D01*
X76615099Y-88178143D01*
X76609951Y-88173281D01*
X76305959Y-87869289D01*
X76305956Y-87869285D01*
X76305956Y-87869286D01*
X76298889Y-87862219D01*
X76298889Y-87862218D01*
X76159532Y-87722861D01*
X76159531Y-87722860D01*
X76159530Y-87722859D01*
X75995670Y-87613371D01*
X75995661Y-87613366D01*
X75926702Y-87584803D01*
X75866915Y-87560038D01*
X75813586Y-87537949D01*
X75678547Y-87511088D01*
X75674756Y-87510334D01*
X75674749Y-87510332D01*
X75620293Y-87499500D01*
X75620291Y-87499500D01*
X71202051Y-87499500D01*
X71135012Y-87479815D01*
X71089257Y-87427011D01*
X71084348Y-87414512D01*
X71056564Y-87330665D01*
X70964462Y-87181344D01*
X70840406Y-87057288D01*
X70710707Y-86977289D01*
X70691087Y-86965187D01*
X70691082Y-86965185D01*
X70689613Y-86964698D01*
X70524548Y-86910001D01*
X70524546Y-86910000D01*
X70421767Y-86899500D01*
X70421760Y-86899500D01*
X68621740Y-86899500D01*
X68621732Y-86899500D01*
X68518953Y-86910000D01*
X68518952Y-86910001D01*
X68436419Y-86937349D01*
X68352417Y-86965185D01*
X68352412Y-86965187D01*
X68203092Y-87057289D01*
X68079039Y-87181342D01*
X67986937Y-87330662D01*
X67986934Y-87330669D01*
X67985663Y-87334507D01*
X67984078Y-87336796D01*
X67983886Y-87337208D01*
X67983815Y-87337175D01*
X67945889Y-87391951D01*
X67881372Y-87418772D01*
X67867958Y-87419500D01*
X66202051Y-87419500D01*
X66135012Y-87399815D01*
X66089257Y-87347011D01*
X66084348Y-87334512D01*
X66056564Y-87250665D01*
X65964462Y-87101344D01*
X65840406Y-86977288D01*
X65747640Y-86920070D01*
X65691087Y-86885187D01*
X65691082Y-86885185D01*
X65689613Y-86884698D01*
X65524548Y-86830001D01*
X65524546Y-86830000D01*
X65421767Y-86819500D01*
X65421760Y-86819500D01*
X63621740Y-86819500D01*
X63621732Y-86819500D01*
X63518953Y-86830000D01*
X63518952Y-86830001D01*
X63436419Y-86857349D01*
X63352417Y-86885185D01*
X63352412Y-86885187D01*
X63203092Y-86977289D01*
X63079039Y-87101342D01*
X62986937Y-87250662D01*
X62986935Y-87250667D01*
X62960428Y-87330662D01*
X62931751Y-87417202D01*
X62931751Y-87417203D01*
X62931750Y-87417203D01*
X62921250Y-87519982D01*
X61226688Y-87519982D01*
X64509852Y-84236819D01*
X64571175Y-84203334D01*
X64597533Y-84200500D01*
X64633200Y-84200500D01*
X64633207Y-84200500D01*
X64854213Y-84171404D01*
X65069531Y-84113710D01*
X65275476Y-84028405D01*
X65468524Y-83916948D01*
X65645374Y-83781247D01*
X65802997Y-83623624D01*
X65938698Y-83446774D01*
X66050155Y-83253726D01*
X66135460Y-83047781D01*
X66193154Y-82832463D01*
X66222250Y-82611457D01*
X66222250Y-82388549D01*
X77821250Y-82388549D01*
X77821250Y-82611450D01*
X77821251Y-82611466D01*
X77850344Y-82832452D01*
X77850345Y-82832457D01*
X77850346Y-82832463D01*
X77899800Y-83017029D01*
X77908040Y-83047780D01*
X77908043Y-83047790D01*
X77916270Y-83067651D01*
X77993345Y-83253726D01*
X78104802Y-83446774D01*
X78104807Y-83446780D01*
X78104808Y-83446782D01*
X78240501Y-83623622D01*
X78240507Y-83623629D01*
X78398120Y-83781242D01*
X78398127Y-83781248D01*
X78479363Y-83843582D01*
X78574976Y-83916948D01*
X78768024Y-84028405D01*
X78973969Y-84113710D01*
X79189287Y-84171404D01*
X79410293Y-84200500D01*
X79410300Y-84200500D01*
X79633200Y-84200500D01*
X79633207Y-84200500D01*
X79854213Y-84171404D01*
X80069531Y-84113710D01*
X80275476Y-84028405D01*
X80468524Y-83916948D01*
X80645374Y-83781247D01*
X80802997Y-83623624D01*
X80938698Y-83446774D01*
X81050155Y-83253726D01*
X81135460Y-83047781D01*
X81193154Y-82832463D01*
X81222250Y-82611457D01*
X81222250Y-82388543D01*
X81193154Y-82167537D01*
X81135460Y-81952219D01*
X81050155Y-81746274D01*
X80938698Y-81553226D01*
X80864296Y-81456263D01*
X80802998Y-81376377D01*
X80802992Y-81376370D01*
X80645379Y-81218757D01*
X80645372Y-81218751D01*
X80468532Y-81083058D01*
X80468530Y-81083057D01*
X80468524Y-81083052D01*
X80275476Y-80971595D01*
X80275472Y-80971593D01*
X80069540Y-80886293D01*
X80069533Y-80886291D01*
X80069531Y-80886290D01*
X79854213Y-80828596D01*
X79854207Y-80828595D01*
X79854202Y-80828594D01*
X79633216Y-80799501D01*
X79633213Y-80799500D01*
X79633207Y-80799500D01*
X79410293Y-80799500D01*
X79410287Y-80799500D01*
X79410283Y-80799501D01*
X79189297Y-80828594D01*
X79189290Y-80828595D01*
X79189287Y-80828596D01*
X78973969Y-80886290D01*
X78973959Y-80886293D01*
X78768027Y-80971593D01*
X78768023Y-80971595D01*
X78574976Y-81083052D01*
X78574967Y-81083058D01*
X78398127Y-81218751D01*
X78398120Y-81218757D01*
X78240507Y-81376370D01*
X78240501Y-81376377D01*
X78104808Y-81553217D01*
X78104802Y-81553226D01*
X77993345Y-81746273D01*
X77993343Y-81746277D01*
X77908043Y-81952209D01*
X77908040Y-81952219D01*
X77878558Y-82062250D01*
X77850347Y-82167534D01*
X77850344Y-82167547D01*
X77821251Y-82388533D01*
X77821250Y-82388549D01*
X66222250Y-82388549D01*
X66222250Y-82388543D01*
X66193154Y-82167537D01*
X66135460Y-81952219D01*
X66050155Y-81746274D01*
X65938698Y-81553226D01*
X65864296Y-81456263D01*
X65802998Y-81376377D01*
X65802992Y-81376370D01*
X65645379Y-81218757D01*
X65645372Y-81218751D01*
X65468532Y-81083058D01*
X65468530Y-81083057D01*
X65468524Y-81083052D01*
X65275476Y-80971595D01*
X65275472Y-80971593D01*
X65069540Y-80886293D01*
X65069533Y-80886291D01*
X65069531Y-80886290D01*
X64854213Y-80828596D01*
X64854207Y-80828595D01*
X64854202Y-80828594D01*
X64633216Y-80799501D01*
X64633213Y-80799500D01*
X64633207Y-80799500D01*
X64410293Y-80799500D01*
X64410287Y-80799500D01*
X64410283Y-80799501D01*
X64189297Y-80828594D01*
X64189290Y-80828595D01*
X64189287Y-80828596D01*
X63973969Y-80886290D01*
X63973959Y-80886293D01*
X63768027Y-80971593D01*
X63768023Y-80971595D01*
X63574976Y-81083052D01*
X63574967Y-81083058D01*
X63398127Y-81218751D01*
X63398120Y-81218757D01*
X63240507Y-81376370D01*
X63240501Y-81376377D01*
X63104808Y-81553217D01*
X63104802Y-81553226D01*
X62993345Y-81746273D01*
X62993343Y-81746277D01*
X62908043Y-81952209D01*
X62908040Y-81952219D01*
X62878558Y-82062250D01*
X62850347Y-82167534D01*
X62850344Y-82167547D01*
X62821251Y-82388533D01*
X62821250Y-82388549D01*
X62821250Y-82611450D01*
X62821251Y-82611466D01*
X62850344Y-82832452D01*
X62850345Y-82832457D01*
X62850346Y-82832463D01*
X62881271Y-82947877D01*
X62879608Y-83017727D01*
X62849177Y-83067651D01*
X55933547Y-89983281D01*
X55872224Y-90016766D01*
X55865265Y-90018073D01*
X55717218Y-90041522D01*
X55522528Y-90104781D01*
X55340136Y-90197715D01*
X55174536Y-90318028D01*
X55029778Y-90462786D01*
X54909465Y-90628386D01*
X54816531Y-90810778D01*
X54753272Y-91005468D01*
X54729823Y-91153515D01*
X54699893Y-91216649D01*
X54695031Y-91221797D01*
X54212074Y-91704755D01*
X53883970Y-92032859D01*
X53883968Y-92032861D01*
X53814288Y-92102540D01*
X53744609Y-92172219D01*
X53635121Y-92336080D01*
X53635114Y-92336093D01*
X53618792Y-92375500D01*
X53599413Y-92422287D01*
X53560919Y-92515220D01*
X53559699Y-92518165D01*
X53559698Y-92518168D01*
X53559696Y-92518175D01*
X53521250Y-92711454D01*
X53521250Y-95287111D01*
X53501565Y-95354150D01*
X53484931Y-95374792D01*
X53377235Y-95482487D01*
X53377235Y-95482488D01*
X53377233Y-95482490D01*
X53317612Y-95564550D01*
X53238407Y-95673566D01*
X53131183Y-95884003D01*
X53058196Y-96108631D01*
X53021250Y-96341902D01*
X49522250Y-96341902D01*
X49522250Y-83587648D01*
X54721250Y-83587648D01*
X54721250Y-83792351D01*
X54753272Y-83994534D01*
X54816531Y-84189223D01*
X54909465Y-84371613D01*
X55029778Y-84537213D01*
X55174536Y-84681971D01*
X55329499Y-84794556D01*
X55340140Y-84802287D01*
X55456357Y-84861503D01*
X55522526Y-84895218D01*
X55522528Y-84895218D01*
X55522531Y-84895220D01*
X55626887Y-84929127D01*
X55717215Y-84958477D01*
X55818307Y-84974488D01*
X55919398Y-84990500D01*
X55919399Y-84990500D01*
X56124101Y-84990500D01*
X56124102Y-84990500D01*
X56326284Y-84958477D01*
X56520969Y-84895220D01*
X56703360Y-84802287D01*
X56796340Y-84734732D01*
X56868963Y-84681971D01*
X56868965Y-84681968D01*
X56868969Y-84681966D01*
X57013716Y-84537219D01*
X57013718Y-84537215D01*
X57013721Y-84537213D01*
X57066482Y-84464590D01*
X57134037Y-84371610D01*
X57226970Y-84189219D01*
X57290227Y-83994534D01*
X57322250Y-83792352D01*
X57322250Y-83587648D01*
X57299939Y-83446782D01*
X57290227Y-83385465D01*
X57226968Y-83190776D01*
X57157917Y-83055258D01*
X57134037Y-83008390D01*
X57126306Y-82997749D01*
X57013721Y-82842786D01*
X56868963Y-82698028D01*
X56703363Y-82577715D01*
X56703362Y-82577714D01*
X56703360Y-82577713D01*
X56646403Y-82548691D01*
X56520973Y-82484781D01*
X56326284Y-82421522D01*
X56151745Y-82393878D01*
X56124102Y-82389500D01*
X55919398Y-82389500D01*
X55895079Y-82393351D01*
X55717215Y-82421522D01*
X55522526Y-82484781D01*
X55340136Y-82577715D01*
X55174536Y-82698028D01*
X55029778Y-82842786D01*
X54909465Y-83008386D01*
X54816531Y-83190776D01*
X54753272Y-83385465D01*
X54721250Y-83587648D01*
X49522250Y-83587648D01*
X49522250Y-79368872D01*
X50521250Y-79368872D01*
X50521250Y-79631127D01*
X50531388Y-79708127D01*
X50555480Y-79891116D01*
X50576114Y-79968123D01*
X50623352Y-80144418D01*
X50623355Y-80144428D01*
X50723703Y-80386690D01*
X50723708Y-80386700D01*
X50854825Y-80613803D01*
X51014468Y-80821851D01*
X51014476Y-80821860D01*
X51199890Y-81007274D01*
X51199898Y-81007281D01*
X51407946Y-81166924D01*
X51635049Y-81298041D01*
X51635059Y-81298046D01*
X51877321Y-81398394D01*
X51877331Y-81398398D01*
X52130634Y-81466270D01*
X52390630Y-81500500D01*
X52390637Y-81500500D01*
X52652863Y-81500500D01*
X52652870Y-81500500D01*
X52912866Y-81466270D01*
X53166169Y-81398398D01*
X53363912Y-81316490D01*
X53408440Y-81298046D01*
X53408441Y-81298045D01*
X53408447Y-81298043D01*
X53635553Y-81166924D01*
X53843601Y-81007282D01*
X53843605Y-81007277D01*
X53843610Y-81007274D01*
X54029024Y-80821860D01*
X54029027Y-80821855D01*
X54029032Y-80821851D01*
X54188674Y-80613803D01*
X54319793Y-80386697D01*
X54420148Y-80144419D01*
X54488020Y-79891116D01*
X54522250Y-79631120D01*
X54522250Y-79445879D01*
X97021250Y-79445879D01*
X97021250Y-79708134D01*
X97047873Y-79910346D01*
X97055480Y-79968123D01*
X97076928Y-80048168D01*
X97123352Y-80221425D01*
X97123355Y-80221435D01*
X97223703Y-80463697D01*
X97223708Y-80463707D01*
X97354825Y-80690810D01*
X97514468Y-80898858D01*
X97514476Y-80898867D01*
X97699890Y-81084281D01*
X97699898Y-81084288D01*
X97907946Y-81243931D01*
X98135049Y-81375048D01*
X98135059Y-81375053D01*
X98355277Y-81466270D01*
X98377331Y-81475405D01*
X98630634Y-81543277D01*
X98890630Y-81577507D01*
X98890637Y-81577507D01*
X99152863Y-81577507D01*
X99152870Y-81577507D01*
X99412866Y-81543277D01*
X99666169Y-81475405D01*
X99852090Y-81398394D01*
X99908440Y-81375053D01*
X99908441Y-81375052D01*
X99908447Y-81375050D01*
X100135553Y-81243931D01*
X100343601Y-81084289D01*
X100343605Y-81084284D01*
X100343610Y-81084281D01*
X100529024Y-80898867D01*
X100529027Y-80898862D01*
X100529032Y-80898858D01*
X100688674Y-80690810D01*
X100819793Y-80463704D01*
X100920148Y-80221426D01*
X100988020Y-79968123D01*
X101022250Y-79708127D01*
X101022250Y-79445887D01*
X100988020Y-79185891D01*
X100920148Y-78932588D01*
X100888251Y-78855581D01*
X100819796Y-78690316D01*
X100819791Y-78690306D01*
X100688674Y-78463203D01*
X100529031Y-78255155D01*
X100529024Y-78255147D01*
X100343610Y-78069733D01*
X100343601Y-78069725D01*
X100135553Y-77910082D01*
X99908450Y-77778965D01*
X99908440Y-77778960D01*
X99666178Y-77678612D01*
X99666171Y-77678610D01*
X99666169Y-77678609D01*
X99412866Y-77610737D01*
X99355089Y-77603130D01*
X99152877Y-77576507D01*
X99152870Y-77576507D01*
X98890630Y-77576507D01*
X98890622Y-77576507D01*
X98659522Y-77606933D01*
X98630634Y-77610737D01*
X98377331Y-77678609D01*
X98377321Y-77678612D01*
X98135059Y-77778960D01*
X98135049Y-77778965D01*
X97907946Y-77910082D01*
X97699898Y-78069725D01*
X97514468Y-78255155D01*
X97354825Y-78463203D01*
X97223708Y-78690306D01*
X97223703Y-78690316D01*
X97123355Y-78932578D01*
X97123352Y-78932588D01*
X97055480Y-79185892D01*
X97021250Y-79445879D01*
X54522250Y-79445879D01*
X54522250Y-79368880D01*
X54488020Y-79108884D01*
X54420148Y-78855581D01*
X54367044Y-78727376D01*
X54319796Y-78613309D01*
X54319791Y-78613299D01*
X54188674Y-78386196D01*
X54029031Y-78178148D01*
X54029024Y-78178140D01*
X53843610Y-77992726D01*
X53843601Y-77992718D01*
X53635553Y-77833075D01*
X53408450Y-77701958D01*
X53408440Y-77701953D01*
X53166178Y-77601605D01*
X53166171Y-77601603D01*
X53166169Y-77601602D01*
X52912866Y-77533730D01*
X52855089Y-77526123D01*
X52652877Y-77499500D01*
X52652870Y-77499500D01*
X52390630Y-77499500D01*
X52390622Y-77499500D01*
X52159522Y-77529926D01*
X52130634Y-77533730D01*
X51877331Y-77601602D01*
X51877321Y-77601605D01*
X51635059Y-77701953D01*
X51635049Y-77701958D01*
X51407946Y-77833075D01*
X51199898Y-77992718D01*
X51014468Y-78178148D01*
X50854825Y-78386196D01*
X50723708Y-78613299D01*
X50723703Y-78613309D01*
X50623355Y-78855571D01*
X50623352Y-78855581D01*
X50555480Y-79108885D01*
X50521250Y-79368872D01*
X49522250Y-79368872D01*
X49522250Y-75624500D01*
X49541935Y-75557461D01*
X49594739Y-75511706D01*
X49646250Y-75500500D01*
X102758522Y-75500500D01*
X102825561Y-75520185D01*
G37*
%TD.AperFunction*%
%TD*%
M02*
