%TF.GenerationSoftware,KiCad,Pcbnew,9.0.5*%
%TF.CreationDate,2025-10-12T15:19:20+05:30*%
%TF.ProjectId,transformerless power supply ,7472616e-7366-46f7-926d-65726c657373,rev?*%
%TF.SameCoordinates,Original*%
%TF.FileFunction,Legend,Bot*%
%TF.FilePolarity,Positive*%
%FSLAX46Y46*%
G04 Gerber Fmt 4.6, Leading zero omitted, Abs format (unit mm)*
G04 Created by KiCad (PCBNEW 9.0.5) date 2025-10-12 15:19:20*
%MOMM*%
%LPD*%
G01*
G04 APERTURE LIST*
%ADD10C,0.300000*%
G04 APERTURE END LIST*
D10*
X94060417Y-78229400D02*
X93917560Y-78300828D01*
X93917560Y-78300828D02*
X93631846Y-78300828D01*
X93631846Y-78300828D02*
X93488989Y-78229400D01*
X93488989Y-78229400D02*
X93417560Y-78086542D01*
X93417560Y-78086542D02*
X93417560Y-78015114D01*
X93417560Y-78015114D02*
X93488989Y-77872257D01*
X93488989Y-77872257D02*
X93631846Y-77800828D01*
X93631846Y-77800828D02*
X93846132Y-77800828D01*
X93846132Y-77800828D02*
X93988989Y-77729400D01*
X93988989Y-77729400D02*
X94060417Y-77586542D01*
X94060417Y-77586542D02*
X94060417Y-77515114D01*
X94060417Y-77515114D02*
X93988989Y-77372257D01*
X93988989Y-77372257D02*
X93846132Y-77300828D01*
X93846132Y-77300828D02*
X93631846Y-77300828D01*
X93631846Y-77300828D02*
X93488989Y-77372257D01*
X92774703Y-78300828D02*
X92774703Y-76800828D01*
X92131846Y-78300828D02*
X92131846Y-77515114D01*
X92131846Y-77515114D02*
X92203274Y-77372257D01*
X92203274Y-77372257D02*
X92346131Y-77300828D01*
X92346131Y-77300828D02*
X92560417Y-77300828D01*
X92560417Y-77300828D02*
X92703274Y-77372257D01*
X92703274Y-77372257D02*
X92774703Y-77443685D01*
X91417560Y-78300828D02*
X91417560Y-77300828D01*
X91417560Y-77586542D02*
X91346131Y-77443685D01*
X91346131Y-77443685D02*
X91274703Y-77372257D01*
X91274703Y-77372257D02*
X91131845Y-77300828D01*
X91131845Y-77300828D02*
X90988988Y-77300828D01*
X89917560Y-78229400D02*
X90060417Y-78300828D01*
X90060417Y-78300828D02*
X90346132Y-78300828D01*
X90346132Y-78300828D02*
X90488989Y-78229400D01*
X90488989Y-78229400D02*
X90560417Y-78086542D01*
X90560417Y-78086542D02*
X90560417Y-77515114D01*
X90560417Y-77515114D02*
X90488989Y-77372257D01*
X90488989Y-77372257D02*
X90346132Y-77300828D01*
X90346132Y-77300828D02*
X90060417Y-77300828D01*
X90060417Y-77300828D02*
X89917560Y-77372257D01*
X89917560Y-77372257D02*
X89846132Y-77515114D01*
X89846132Y-77515114D02*
X89846132Y-77657971D01*
X89846132Y-77657971D02*
X90560417Y-77800828D01*
X89346132Y-77300828D02*
X88988989Y-78300828D01*
X88631846Y-77300828D02*
X88988989Y-78300828D01*
X88988989Y-78300828D02*
X89131846Y-78657971D01*
X89131846Y-78657971D02*
X89203275Y-78729400D01*
X89203275Y-78729400D02*
X89346132Y-78800828D01*
X87417561Y-78300828D02*
X87417561Y-77515114D01*
X87417561Y-77515114D02*
X87488989Y-77372257D01*
X87488989Y-77372257D02*
X87631846Y-77300828D01*
X87631846Y-77300828D02*
X87917561Y-77300828D01*
X87917561Y-77300828D02*
X88060418Y-77372257D01*
X87417561Y-78229400D02*
X87560418Y-78300828D01*
X87560418Y-78300828D02*
X87917561Y-78300828D01*
X87917561Y-78300828D02*
X88060418Y-78229400D01*
X88060418Y-78229400D02*
X88131846Y-78086542D01*
X88131846Y-78086542D02*
X88131846Y-77943685D01*
X88131846Y-77943685D02*
X88060418Y-77800828D01*
X88060418Y-77800828D02*
X87917561Y-77729400D01*
X87917561Y-77729400D02*
X87560418Y-77729400D01*
X87560418Y-77729400D02*
X87417561Y-77657971D01*
X86774703Y-78229400D02*
X86631846Y-78300828D01*
X86631846Y-78300828D02*
X86346132Y-78300828D01*
X86346132Y-78300828D02*
X86203275Y-78229400D01*
X86203275Y-78229400D02*
X86131846Y-78086542D01*
X86131846Y-78086542D02*
X86131846Y-78015114D01*
X86131846Y-78015114D02*
X86203275Y-77872257D01*
X86203275Y-77872257D02*
X86346132Y-77800828D01*
X86346132Y-77800828D02*
X86560418Y-77800828D01*
X86560418Y-77800828D02*
X86703275Y-77729400D01*
X86703275Y-77729400D02*
X86774703Y-77586542D01*
X86774703Y-77586542D02*
X86774703Y-77515114D01*
X86774703Y-77515114D02*
X86703275Y-77372257D01*
X86703275Y-77372257D02*
X86560418Y-77300828D01*
X86560418Y-77300828D02*
X86346132Y-77300828D01*
X86346132Y-77300828D02*
X86203275Y-77372257D01*
X85488989Y-78300828D02*
X85488989Y-76800828D01*
X84846132Y-78300828D02*
X84846132Y-77515114D01*
X84846132Y-77515114D02*
X84917560Y-77372257D01*
X84917560Y-77372257D02*
X85060417Y-77300828D01*
X85060417Y-77300828D02*
X85274703Y-77300828D01*
X85274703Y-77300828D02*
X85417560Y-77372257D01*
X85417560Y-77372257D02*
X85488989Y-77443685D01*
X82988989Y-77300828D02*
X82988989Y-78586542D01*
X82988989Y-78586542D02*
X83060417Y-78729400D01*
X83060417Y-78729400D02*
X83203274Y-78800828D01*
X83203274Y-78800828D02*
X83274703Y-78800828D01*
X82988989Y-76800828D02*
X83060417Y-76872257D01*
X83060417Y-76872257D02*
X82988989Y-76943685D01*
X82988989Y-76943685D02*
X82917560Y-76872257D01*
X82917560Y-76872257D02*
X82988989Y-76800828D01*
X82988989Y-76800828D02*
X82988989Y-76943685D01*
X81631846Y-78300828D02*
X81631846Y-77515114D01*
X81631846Y-77515114D02*
X81703274Y-77372257D01*
X81703274Y-77372257D02*
X81846131Y-77300828D01*
X81846131Y-77300828D02*
X82131846Y-77300828D01*
X82131846Y-77300828D02*
X82274703Y-77372257D01*
X81631846Y-78229400D02*
X81774703Y-78300828D01*
X81774703Y-78300828D02*
X82131846Y-78300828D01*
X82131846Y-78300828D02*
X82274703Y-78229400D01*
X82274703Y-78229400D02*
X82346131Y-78086542D01*
X82346131Y-78086542D02*
X82346131Y-77943685D01*
X82346131Y-77943685D02*
X82274703Y-77800828D01*
X82274703Y-77800828D02*
X82131846Y-77729400D01*
X82131846Y-77729400D02*
X81774703Y-77729400D01*
X81774703Y-77729400D02*
X81631846Y-77657971D01*
X80988988Y-78229400D02*
X80846131Y-78300828D01*
X80846131Y-78300828D02*
X80560417Y-78300828D01*
X80560417Y-78300828D02*
X80417560Y-78229400D01*
X80417560Y-78229400D02*
X80346131Y-78086542D01*
X80346131Y-78086542D02*
X80346131Y-78015114D01*
X80346131Y-78015114D02*
X80417560Y-77872257D01*
X80417560Y-77872257D02*
X80560417Y-77800828D01*
X80560417Y-77800828D02*
X80774703Y-77800828D01*
X80774703Y-77800828D02*
X80917560Y-77729400D01*
X80917560Y-77729400D02*
X80988988Y-77586542D01*
X80988988Y-77586542D02*
X80988988Y-77515114D01*
X80988988Y-77515114D02*
X80917560Y-77372257D01*
X80917560Y-77372257D02*
X80774703Y-77300828D01*
X80774703Y-77300828D02*
X80560417Y-77300828D01*
X80560417Y-77300828D02*
X80417560Y-77372257D01*
X79703274Y-78300828D02*
X79703274Y-77300828D01*
X79703274Y-76800828D02*
X79774702Y-76872257D01*
X79774702Y-76872257D02*
X79703274Y-76943685D01*
X79703274Y-76943685D02*
X79631845Y-76872257D01*
X79631845Y-76872257D02*
X79703274Y-76800828D01*
X79703274Y-76800828D02*
X79703274Y-76943685D01*
X79131845Y-77300828D02*
X78846131Y-78300828D01*
X78846131Y-78300828D02*
X78560416Y-77586542D01*
X78560416Y-77586542D02*
X78274702Y-78300828D01*
X78274702Y-78300828D02*
X77988988Y-77300828D01*
X76774702Y-78300828D02*
X76774702Y-77515114D01*
X76774702Y-77515114D02*
X76846130Y-77372257D01*
X76846130Y-77372257D02*
X76988987Y-77300828D01*
X76988987Y-77300828D02*
X77274702Y-77300828D01*
X77274702Y-77300828D02*
X77417559Y-77372257D01*
X76774702Y-78229400D02*
X76917559Y-78300828D01*
X76917559Y-78300828D02*
X77274702Y-78300828D01*
X77274702Y-78300828D02*
X77417559Y-78229400D01*
X77417559Y-78229400D02*
X77488987Y-78086542D01*
X77488987Y-78086542D02*
X77488987Y-77943685D01*
X77488987Y-77943685D02*
X77417559Y-77800828D01*
X77417559Y-77800828D02*
X77274702Y-77729400D01*
X77274702Y-77729400D02*
X76917559Y-77729400D01*
X76917559Y-77729400D02*
X76774702Y-77657971D01*
X75846130Y-78300828D02*
X75988987Y-78229400D01*
X75988987Y-78229400D02*
X76060416Y-78086542D01*
X76060416Y-78086542D02*
X76060416Y-76800828D01*
M02*
