M48
; DRILL file {KiCad 9.0.5} date 2025-10-12T15:19:12+0530
; FORMAT={-:-/ absolute / metric / decimal}
; #@! TF.CreationDate,2025-10-12T15:19:12+05:30
; #@! TF.GenerationSoftware,Kicad,Pcbnew,9.0.5
; #@! TF.FileFunction,Plated,1,2,PTH
FMAT,2
METRIC
; #@! TA.AperFunction,Plated,PTH,ComponentDrill
T1C0.800
; #@! TA.AperFunction,Plated,PTH,ComponentDrill
T2C0.900
; #@! TA.AperFunction,Plated,PTH,ComponentDrill
T3C1.100
; #@! TA.AperFunction,Plated,PTH,ComponentDrill
T4C1.200
%
G90
G05
T1
X56.022Y-83.69
X56.022Y-91.31
X60.522Y-105.19
X60.522Y-112.81
X75.212Y-107.5
X75.212Y-113.5
X76.022Y-100.0
X76.522Y-89.5
X81.022Y-100.0
X81.522Y-89.5
X82.832Y-107.5
X82.832Y-113.5
X93.522Y-90.5
X98.522Y-90.5
T2
X52.747Y-108.5
X55.287Y-108.5
X86.022Y-88.69
X86.022Y-96.31
X87.522Y-99.88
X87.522Y-107.5
T3
X64.522Y-88.42
X64.522Y-98.58
X65.272Y-104.5
X65.272Y-114.66
X69.522Y-88.5
X69.522Y-98.66
X70.022Y-104.5
X70.022Y-114.66
X86.982Y-82.45
X89.522Y-82.45
X92.062Y-82.45
T4
X54.522Y-96.46
X54.522Y-99.0
X64.522Y-82.5
X79.522Y-82.5
X98.304Y-101.725
X98.304Y-104.265
M30
