%TF.GenerationSoftware,KiCad,Pcbnew,9.0.5*%
%TF.CreationDate,2025-10-12T15:19:20+05:30*%
%TF.ProjectId,transformerless power supply ,7472616e-7366-46f7-926d-65726c657373,rev?*%
%TF.SameCoordinates,Original*%
%TF.FileFunction,Legend,Top*%
%TF.FilePolarity,Positive*%
%FSLAX46Y46*%
G04 Gerber Fmt 4.6, Leading zero omitted, Abs format (unit mm)*
G04 Created by KiCad (PCBNEW 9.0.5) date 2025-10-12 15:19:20*
%MOMM*%
%LPD*%
G01*
G04 APERTURE LIST*
%ADD10C,0.150000*%
%ADD11C,0.120000*%
G04 APERTURE END LIST*
D10*
X67446569Y-94238094D02*
X66446569Y-94238094D01*
X66446569Y-94238094D02*
X66446569Y-93999999D01*
X66446569Y-93999999D02*
X66494188Y-93857142D01*
X66494188Y-93857142D02*
X66589426Y-93761904D01*
X66589426Y-93761904D02*
X66684664Y-93714285D01*
X66684664Y-93714285D02*
X66875140Y-93666666D01*
X66875140Y-93666666D02*
X67017997Y-93666666D01*
X67017997Y-93666666D02*
X67208473Y-93714285D01*
X67208473Y-93714285D02*
X67303711Y-93761904D01*
X67303711Y-93761904D02*
X67398950Y-93857142D01*
X67398950Y-93857142D02*
X67446569Y-93999999D01*
X67446569Y-93999999D02*
X67446569Y-94238094D01*
X67446569Y-92714285D02*
X67446569Y-93285713D01*
X67446569Y-92999999D02*
X66446569Y-92999999D01*
X66446569Y-92999999D02*
X66589426Y-93095237D01*
X66589426Y-93095237D02*
X66684664Y-93190475D01*
X66684664Y-93190475D02*
X66732283Y-93285713D01*
X67076569Y-88681904D02*
X66076569Y-88681904D01*
X67076569Y-88110476D02*
X66505140Y-88539047D01*
X66076569Y-88110476D02*
X66647997Y-88681904D01*
X72946569Y-110318094D02*
X71946569Y-110318094D01*
X71946569Y-110318094D02*
X71946569Y-110079999D01*
X71946569Y-110079999D02*
X71994188Y-109937142D01*
X71994188Y-109937142D02*
X72089426Y-109841904D01*
X72089426Y-109841904D02*
X72184664Y-109794285D01*
X72184664Y-109794285D02*
X72375140Y-109746666D01*
X72375140Y-109746666D02*
X72517997Y-109746666D01*
X72517997Y-109746666D02*
X72708473Y-109794285D01*
X72708473Y-109794285D02*
X72803711Y-109841904D01*
X72803711Y-109841904D02*
X72898950Y-109937142D01*
X72898950Y-109937142D02*
X72946569Y-110079999D01*
X72946569Y-110079999D02*
X72946569Y-110318094D01*
X72279902Y-108889523D02*
X72946569Y-108889523D01*
X71898950Y-109127618D02*
X72613235Y-109365713D01*
X72613235Y-109365713D02*
X72613235Y-108746666D01*
X72576569Y-104761904D02*
X71576569Y-104761904D01*
X72576569Y-104190476D02*
X72005140Y-104619047D01*
X71576569Y-104190476D02*
X72147997Y-104761904D01*
X90446569Y-104038094D02*
X89446569Y-104038094D01*
X89446569Y-104038094D02*
X89446569Y-103799999D01*
X89446569Y-103799999D02*
X89494188Y-103657142D01*
X89494188Y-103657142D02*
X89589426Y-103561904D01*
X89589426Y-103561904D02*
X89684664Y-103514285D01*
X89684664Y-103514285D02*
X89875140Y-103466666D01*
X89875140Y-103466666D02*
X90017997Y-103466666D01*
X90017997Y-103466666D02*
X90208473Y-103514285D01*
X90208473Y-103514285D02*
X90303711Y-103561904D01*
X90303711Y-103561904D02*
X90398950Y-103657142D01*
X90398950Y-103657142D02*
X90446569Y-103799999D01*
X90446569Y-103799999D02*
X90446569Y-104038094D01*
X89446569Y-102609523D02*
X89446569Y-102799999D01*
X89446569Y-102799999D02*
X89494188Y-102895237D01*
X89494188Y-102895237D02*
X89541807Y-102942856D01*
X89541807Y-102942856D02*
X89684664Y-103038094D01*
X89684664Y-103038094D02*
X89875140Y-103085713D01*
X89875140Y-103085713D02*
X90256092Y-103085713D01*
X90256092Y-103085713D02*
X90351330Y-103038094D01*
X90351330Y-103038094D02*
X90398950Y-102990475D01*
X90398950Y-102990475D02*
X90446569Y-102895237D01*
X90446569Y-102895237D02*
X90446569Y-102704761D01*
X90446569Y-102704761D02*
X90398950Y-102609523D01*
X90398950Y-102609523D02*
X90351330Y-102561904D01*
X90351330Y-102561904D02*
X90256092Y-102514285D01*
X90256092Y-102514285D02*
X90017997Y-102514285D01*
X90017997Y-102514285D02*
X89922759Y-102561904D01*
X89922759Y-102561904D02*
X89875140Y-102609523D01*
X89875140Y-102609523D02*
X89827521Y-102704761D01*
X89827521Y-102704761D02*
X89827521Y-102895237D01*
X89827521Y-102895237D02*
X89875140Y-102990475D01*
X89875140Y-102990475D02*
X89922759Y-103038094D01*
X89922759Y-103038094D02*
X90017997Y-103085713D01*
X89876569Y-100141904D02*
X88876569Y-100141904D01*
X89876569Y-99570476D02*
X89305140Y-99999047D01*
X88876569Y-99570476D02*
X89447997Y-100141904D01*
X78855083Y-111584819D02*
X78521750Y-111108628D01*
X78283655Y-111584819D02*
X78283655Y-110584819D01*
X78283655Y-110584819D02*
X78664607Y-110584819D01*
X78664607Y-110584819D02*
X78759845Y-110632438D01*
X78759845Y-110632438D02*
X78807464Y-110680057D01*
X78807464Y-110680057D02*
X78855083Y-110775295D01*
X78855083Y-110775295D02*
X78855083Y-110918152D01*
X78855083Y-110918152D02*
X78807464Y-111013390D01*
X78807464Y-111013390D02*
X78759845Y-111061009D01*
X78759845Y-111061009D02*
X78664607Y-111108628D01*
X78664607Y-111108628D02*
X78283655Y-111108628D01*
X79188417Y-110584819D02*
X79807464Y-110584819D01*
X79807464Y-110584819D02*
X79474131Y-110965771D01*
X79474131Y-110965771D02*
X79616988Y-110965771D01*
X79616988Y-110965771D02*
X79712226Y-111013390D01*
X79712226Y-111013390D02*
X79759845Y-111061009D01*
X79759845Y-111061009D02*
X79807464Y-111156247D01*
X79807464Y-111156247D02*
X79807464Y-111394342D01*
X79807464Y-111394342D02*
X79759845Y-111489580D01*
X79759845Y-111489580D02*
X79712226Y-111537200D01*
X79712226Y-111537200D02*
X79616988Y-111584819D01*
X79616988Y-111584819D02*
X79331274Y-111584819D01*
X79331274Y-111584819D02*
X79236036Y-111537200D01*
X79236036Y-111537200D02*
X79188417Y-111489580D01*
X58576569Y-109276666D02*
X58100378Y-109609999D01*
X58576569Y-109848094D02*
X57576569Y-109848094D01*
X57576569Y-109848094D02*
X57576569Y-109467142D01*
X57576569Y-109467142D02*
X57624188Y-109371904D01*
X57624188Y-109371904D02*
X57671807Y-109324285D01*
X57671807Y-109324285D02*
X57767045Y-109276666D01*
X57767045Y-109276666D02*
X57909902Y-109276666D01*
X57909902Y-109276666D02*
X58005140Y-109324285D01*
X58005140Y-109324285D02*
X58052759Y-109371904D01*
X58052759Y-109371904D02*
X58100378Y-109467142D01*
X58100378Y-109467142D02*
X58100378Y-109848094D01*
X58576569Y-108324285D02*
X58576569Y-108895713D01*
X58576569Y-108609999D02*
X57576569Y-108609999D01*
X57576569Y-108609999D02*
X57719426Y-108705237D01*
X57719426Y-108705237D02*
X57814664Y-108800475D01*
X57814664Y-108800475D02*
X57862283Y-108895713D01*
X79881330Y-87166666D02*
X79928950Y-87214285D01*
X79928950Y-87214285D02*
X79976569Y-87357142D01*
X79976569Y-87357142D02*
X79976569Y-87452380D01*
X79976569Y-87452380D02*
X79928950Y-87595237D01*
X79928950Y-87595237D02*
X79833711Y-87690475D01*
X79833711Y-87690475D02*
X79738473Y-87738094D01*
X79738473Y-87738094D02*
X79547997Y-87785713D01*
X79547997Y-87785713D02*
X79405140Y-87785713D01*
X79405140Y-87785713D02*
X79214664Y-87738094D01*
X79214664Y-87738094D02*
X79119426Y-87690475D01*
X79119426Y-87690475D02*
X79024188Y-87595237D01*
X79024188Y-87595237D02*
X78976569Y-87452380D01*
X78976569Y-87452380D02*
X78976569Y-87357142D01*
X78976569Y-87357142D02*
X79024188Y-87214285D01*
X79024188Y-87214285D02*
X79071807Y-87166666D01*
X79071807Y-86785713D02*
X79024188Y-86738094D01*
X79024188Y-86738094D02*
X78976569Y-86642856D01*
X78976569Y-86642856D02*
X78976569Y-86404761D01*
X78976569Y-86404761D02*
X79024188Y-86309523D01*
X79024188Y-86309523D02*
X79071807Y-86261904D01*
X79071807Y-86261904D02*
X79167045Y-86214285D01*
X79167045Y-86214285D02*
X79262283Y-86214285D01*
X79262283Y-86214285D02*
X79405140Y-86261904D01*
X79405140Y-86261904D02*
X79976569Y-86833332D01*
X79976569Y-86833332D02*
X79976569Y-86214285D01*
X101979069Y-103328333D02*
X102693354Y-103328333D01*
X102693354Y-103328333D02*
X102836211Y-103375952D01*
X102836211Y-103375952D02*
X102931450Y-103471190D01*
X102931450Y-103471190D02*
X102979069Y-103614047D01*
X102979069Y-103614047D02*
X102979069Y-103709285D01*
X102074307Y-102899761D02*
X102026688Y-102852142D01*
X102026688Y-102852142D02*
X101979069Y-102756904D01*
X101979069Y-102756904D02*
X101979069Y-102518809D01*
X101979069Y-102518809D02*
X102026688Y-102423571D01*
X102026688Y-102423571D02*
X102074307Y-102375952D01*
X102074307Y-102375952D02*
X102169545Y-102328333D01*
X102169545Y-102328333D02*
X102264783Y-102328333D01*
X102264783Y-102328333D02*
X102407640Y-102375952D01*
X102407640Y-102375952D02*
X102979069Y-102947380D01*
X102979069Y-102947380D02*
X102979069Y-102328333D01*
X88759845Y-77804819D02*
X88759845Y-78614342D01*
X88759845Y-78614342D02*
X88807464Y-78709580D01*
X88807464Y-78709580D02*
X88855083Y-78757200D01*
X88855083Y-78757200D02*
X88950321Y-78804819D01*
X88950321Y-78804819D02*
X89140797Y-78804819D01*
X89140797Y-78804819D02*
X89236035Y-78757200D01*
X89236035Y-78757200D02*
X89283654Y-78709580D01*
X89283654Y-78709580D02*
X89331273Y-78614342D01*
X89331273Y-78614342D02*
X89331273Y-77804819D01*
X90331273Y-78804819D02*
X89759845Y-78804819D01*
X90045559Y-78804819D02*
X90045559Y-77804819D01*
X90045559Y-77804819D02*
X89950321Y-77947676D01*
X89950321Y-77947676D02*
X89855083Y-78042914D01*
X89855083Y-78042914D02*
X89759845Y-78090533D01*
X72446569Y-94318094D02*
X71446569Y-94318094D01*
X71446569Y-94318094D02*
X71446569Y-94079999D01*
X71446569Y-94079999D02*
X71494188Y-93937142D01*
X71494188Y-93937142D02*
X71589426Y-93841904D01*
X71589426Y-93841904D02*
X71684664Y-93794285D01*
X71684664Y-93794285D02*
X71875140Y-93746666D01*
X71875140Y-93746666D02*
X72017997Y-93746666D01*
X72017997Y-93746666D02*
X72208473Y-93794285D01*
X72208473Y-93794285D02*
X72303711Y-93841904D01*
X72303711Y-93841904D02*
X72398950Y-93937142D01*
X72398950Y-93937142D02*
X72446569Y-94079999D01*
X72446569Y-94079999D02*
X72446569Y-94318094D01*
X71446569Y-93413332D02*
X71446569Y-92794285D01*
X71446569Y-92794285D02*
X71827521Y-93127618D01*
X71827521Y-93127618D02*
X71827521Y-92984761D01*
X71827521Y-92984761D02*
X71875140Y-92889523D01*
X71875140Y-92889523D02*
X71922759Y-92841904D01*
X71922759Y-92841904D02*
X72017997Y-92794285D01*
X72017997Y-92794285D02*
X72256092Y-92794285D01*
X72256092Y-92794285D02*
X72351330Y-92841904D01*
X72351330Y-92841904D02*
X72398950Y-92889523D01*
X72398950Y-92889523D02*
X72446569Y-92984761D01*
X72446569Y-92984761D02*
X72446569Y-93270475D01*
X72446569Y-93270475D02*
X72398950Y-93365713D01*
X72398950Y-93365713D02*
X72351330Y-93413332D01*
X72076569Y-88761904D02*
X71076569Y-88761904D01*
X72076569Y-88190476D02*
X71505140Y-88619047D01*
X71076569Y-88190476D02*
X71647997Y-88761904D01*
X54106569Y-87666666D02*
X53630378Y-87999999D01*
X54106569Y-88238094D02*
X53106569Y-88238094D01*
X53106569Y-88238094D02*
X53106569Y-87857142D01*
X53106569Y-87857142D02*
X53154188Y-87761904D01*
X53154188Y-87761904D02*
X53201807Y-87714285D01*
X53201807Y-87714285D02*
X53297045Y-87666666D01*
X53297045Y-87666666D02*
X53439902Y-87666666D01*
X53439902Y-87666666D02*
X53535140Y-87714285D01*
X53535140Y-87714285D02*
X53582759Y-87761904D01*
X53582759Y-87761904D02*
X53630378Y-87857142D01*
X53630378Y-87857142D02*
X53630378Y-88238094D01*
X53201807Y-87285713D02*
X53154188Y-87238094D01*
X53154188Y-87238094D02*
X53106569Y-87142856D01*
X53106569Y-87142856D02*
X53106569Y-86904761D01*
X53106569Y-86904761D02*
X53154188Y-86809523D01*
X53154188Y-86809523D02*
X53201807Y-86761904D01*
X53201807Y-86761904D02*
X53297045Y-86714285D01*
X53297045Y-86714285D02*
X53392283Y-86714285D01*
X53392283Y-86714285D02*
X53535140Y-86761904D01*
X53535140Y-86761904D02*
X54106569Y-87333332D01*
X54106569Y-87333332D02*
X54106569Y-86714285D01*
X71855083Y-78609580D02*
X71807464Y-78657200D01*
X71807464Y-78657200D02*
X71664607Y-78704819D01*
X71664607Y-78704819D02*
X71569369Y-78704819D01*
X71569369Y-78704819D02*
X71426512Y-78657200D01*
X71426512Y-78657200D02*
X71331274Y-78561961D01*
X71331274Y-78561961D02*
X71283655Y-78466723D01*
X71283655Y-78466723D02*
X71236036Y-78276247D01*
X71236036Y-78276247D02*
X71236036Y-78133390D01*
X71236036Y-78133390D02*
X71283655Y-77942914D01*
X71283655Y-77942914D02*
X71331274Y-77847676D01*
X71331274Y-77847676D02*
X71426512Y-77752438D01*
X71426512Y-77752438D02*
X71569369Y-77704819D01*
X71569369Y-77704819D02*
X71664607Y-77704819D01*
X71664607Y-77704819D02*
X71807464Y-77752438D01*
X71807464Y-77752438D02*
X71855083Y-77800057D01*
X72807464Y-78704819D02*
X72236036Y-78704819D01*
X72521750Y-78704819D02*
X72521750Y-77704819D01*
X72521750Y-77704819D02*
X72426512Y-77847676D01*
X72426512Y-77847676D02*
X72331274Y-77942914D01*
X72331274Y-77942914D02*
X72236036Y-77990533D01*
X78355083Y-94109580D02*
X78307464Y-94157200D01*
X78307464Y-94157200D02*
X78164607Y-94204819D01*
X78164607Y-94204819D02*
X78069369Y-94204819D01*
X78069369Y-94204819D02*
X77926512Y-94157200D01*
X77926512Y-94157200D02*
X77831274Y-94061961D01*
X77831274Y-94061961D02*
X77783655Y-93966723D01*
X77783655Y-93966723D02*
X77736036Y-93776247D01*
X77736036Y-93776247D02*
X77736036Y-93633390D01*
X77736036Y-93633390D02*
X77783655Y-93442914D01*
X77783655Y-93442914D02*
X77831274Y-93347676D01*
X77831274Y-93347676D02*
X77926512Y-93252438D01*
X77926512Y-93252438D02*
X78069369Y-93204819D01*
X78069369Y-93204819D02*
X78164607Y-93204819D01*
X78164607Y-93204819D02*
X78307464Y-93252438D01*
X78307464Y-93252438D02*
X78355083Y-93300057D01*
X78688417Y-93204819D02*
X79307464Y-93204819D01*
X79307464Y-93204819D02*
X78974131Y-93585771D01*
X78974131Y-93585771D02*
X79116988Y-93585771D01*
X79116988Y-93585771D02*
X79212226Y-93633390D01*
X79212226Y-93633390D02*
X79259845Y-93681009D01*
X79259845Y-93681009D02*
X79307464Y-93776247D01*
X79307464Y-93776247D02*
X79307464Y-94014342D01*
X79307464Y-94014342D02*
X79259845Y-94109580D01*
X79259845Y-94109580D02*
X79212226Y-94157200D01*
X79212226Y-94157200D02*
X79116988Y-94204819D01*
X79116988Y-94204819D02*
X78831274Y-94204819D01*
X78831274Y-94204819D02*
X78736036Y-94157200D01*
X78736036Y-94157200D02*
X78688417Y-94109580D01*
X78965083Y-110004819D02*
X78631750Y-109528628D01*
X78393655Y-110004819D02*
X78393655Y-109004819D01*
X78393655Y-109004819D02*
X78774607Y-109004819D01*
X78774607Y-109004819D02*
X78869845Y-109052438D01*
X78869845Y-109052438D02*
X78917464Y-109100057D01*
X78917464Y-109100057D02*
X78965083Y-109195295D01*
X78965083Y-109195295D02*
X78965083Y-109338152D01*
X78965083Y-109338152D02*
X78917464Y-109433390D01*
X78917464Y-109433390D02*
X78869845Y-109481009D01*
X78869845Y-109481009D02*
X78774607Y-109528628D01*
X78774607Y-109528628D02*
X78393655Y-109528628D01*
X79822226Y-109338152D02*
X79822226Y-110004819D01*
X79584131Y-108957200D02*
X79346036Y-109671485D01*
X79346036Y-109671485D02*
X79965083Y-109671485D01*
X99355083Y-84859580D02*
X99307464Y-84907200D01*
X99307464Y-84907200D02*
X99164607Y-84954819D01*
X99164607Y-84954819D02*
X99069369Y-84954819D01*
X99069369Y-84954819D02*
X98926512Y-84907200D01*
X98926512Y-84907200D02*
X98831274Y-84811961D01*
X98831274Y-84811961D02*
X98783655Y-84716723D01*
X98783655Y-84716723D02*
X98736036Y-84526247D01*
X98736036Y-84526247D02*
X98736036Y-84383390D01*
X98736036Y-84383390D02*
X98783655Y-84192914D01*
X98783655Y-84192914D02*
X98831274Y-84097676D01*
X98831274Y-84097676D02*
X98926512Y-84002438D01*
X98926512Y-84002438D02*
X99069369Y-83954819D01*
X99069369Y-83954819D02*
X99164607Y-83954819D01*
X99164607Y-83954819D02*
X99307464Y-84002438D01*
X99307464Y-84002438D02*
X99355083Y-84050057D01*
X100212226Y-84288152D02*
X100212226Y-84954819D01*
X99974131Y-83907200D02*
X99736036Y-84621485D01*
X99736036Y-84621485D02*
X100355083Y-84621485D01*
X68196569Y-110318094D02*
X67196569Y-110318094D01*
X67196569Y-110318094D02*
X67196569Y-110079999D01*
X67196569Y-110079999D02*
X67244188Y-109937142D01*
X67244188Y-109937142D02*
X67339426Y-109841904D01*
X67339426Y-109841904D02*
X67434664Y-109794285D01*
X67434664Y-109794285D02*
X67625140Y-109746666D01*
X67625140Y-109746666D02*
X67767997Y-109746666D01*
X67767997Y-109746666D02*
X67958473Y-109794285D01*
X67958473Y-109794285D02*
X68053711Y-109841904D01*
X68053711Y-109841904D02*
X68148950Y-109937142D01*
X68148950Y-109937142D02*
X68196569Y-110079999D01*
X68196569Y-110079999D02*
X68196569Y-110318094D01*
X67291807Y-109365713D02*
X67244188Y-109318094D01*
X67244188Y-109318094D02*
X67196569Y-109222856D01*
X67196569Y-109222856D02*
X67196569Y-108984761D01*
X67196569Y-108984761D02*
X67244188Y-108889523D01*
X67244188Y-108889523D02*
X67291807Y-108841904D01*
X67291807Y-108841904D02*
X67387045Y-108794285D01*
X67387045Y-108794285D02*
X67482283Y-108794285D01*
X67482283Y-108794285D02*
X67625140Y-108841904D01*
X67625140Y-108841904D02*
X68196569Y-109413332D01*
X68196569Y-109413332D02*
X68196569Y-108794285D01*
X67826569Y-104761904D02*
X66826569Y-104761904D01*
X67826569Y-104190476D02*
X67255140Y-104619047D01*
X66826569Y-104190476D02*
X67397997Y-104761904D01*
X88946569Y-92848094D02*
X87946569Y-92848094D01*
X87946569Y-92848094D02*
X87946569Y-92609999D01*
X87946569Y-92609999D02*
X87994188Y-92467142D01*
X87994188Y-92467142D02*
X88089426Y-92371904D01*
X88089426Y-92371904D02*
X88184664Y-92324285D01*
X88184664Y-92324285D02*
X88375140Y-92276666D01*
X88375140Y-92276666D02*
X88517997Y-92276666D01*
X88517997Y-92276666D02*
X88708473Y-92324285D01*
X88708473Y-92324285D02*
X88803711Y-92371904D01*
X88803711Y-92371904D02*
X88898950Y-92467142D01*
X88898950Y-92467142D02*
X88946569Y-92609999D01*
X88946569Y-92609999D02*
X88946569Y-92848094D01*
X87946569Y-91371904D02*
X87946569Y-91848094D01*
X87946569Y-91848094D02*
X88422759Y-91895713D01*
X88422759Y-91895713D02*
X88375140Y-91848094D01*
X88375140Y-91848094D02*
X88327521Y-91752856D01*
X88327521Y-91752856D02*
X88327521Y-91514761D01*
X88327521Y-91514761D02*
X88375140Y-91419523D01*
X88375140Y-91419523D02*
X88422759Y-91371904D01*
X88422759Y-91371904D02*
X88517997Y-91324285D01*
X88517997Y-91324285D02*
X88756092Y-91324285D01*
X88756092Y-91324285D02*
X88851330Y-91371904D01*
X88851330Y-91371904D02*
X88898950Y-91419523D01*
X88898950Y-91419523D02*
X88946569Y-91514761D01*
X88946569Y-91514761D02*
X88946569Y-91752856D01*
X88946569Y-91752856D02*
X88898950Y-91848094D01*
X88898950Y-91848094D02*
X88851330Y-91895713D01*
X88376569Y-88951904D02*
X87376569Y-88951904D01*
X88376569Y-88380476D02*
X87805140Y-88809047D01*
X87376569Y-88380476D02*
X87947997Y-88951904D01*
X53283655Y-104954819D02*
X53283655Y-103954819D01*
X53283655Y-103954819D02*
X53521750Y-103954819D01*
X53521750Y-103954819D02*
X53664607Y-104002438D01*
X53664607Y-104002438D02*
X53759845Y-104097676D01*
X53759845Y-104097676D02*
X53807464Y-104192914D01*
X53807464Y-104192914D02*
X53855083Y-104383390D01*
X53855083Y-104383390D02*
X53855083Y-104526247D01*
X53855083Y-104526247D02*
X53807464Y-104716723D01*
X53807464Y-104716723D02*
X53759845Y-104811961D01*
X53759845Y-104811961D02*
X53664607Y-104907200D01*
X53664607Y-104907200D02*
X53521750Y-104954819D01*
X53521750Y-104954819D02*
X53283655Y-104954819D01*
X54188417Y-103954819D02*
X54855083Y-103954819D01*
X54855083Y-103954819D02*
X54426512Y-104954819D01*
X49756569Y-98063333D02*
X50470854Y-98063333D01*
X50470854Y-98063333D02*
X50613711Y-98110952D01*
X50613711Y-98110952D02*
X50708950Y-98206190D01*
X50708950Y-98206190D02*
X50756569Y-98349047D01*
X50756569Y-98349047D02*
X50756569Y-98444285D01*
X50756569Y-97063333D02*
X50756569Y-97634761D01*
X50756569Y-97349047D02*
X49756569Y-97349047D01*
X49756569Y-97349047D02*
X49899426Y-97444285D01*
X49899426Y-97444285D02*
X49994664Y-97539523D01*
X49994664Y-97539523D02*
X50042283Y-97634761D01*
D11*
%TO.C,D1*%
X64521750Y-89760000D02*
X64521750Y-90780000D01*
X64521750Y-97240000D02*
X64521750Y-96220000D01*
X65991750Y-91560000D02*
X63051750Y-91560000D01*
X65991750Y-91680000D02*
X63051750Y-91680000D01*
X65991750Y-91800000D02*
X63051750Y-91800000D01*
X65991750Y-90780000D02*
X63051750Y-90780000D01*
X63051750Y-96220000D01*
X65991750Y-96220000D01*
X65991750Y-90780000D01*
%TO.C,D4*%
X70021750Y-105840000D02*
X70021750Y-106860000D01*
X70021750Y-113320000D02*
X70021750Y-112300000D01*
X71491750Y-107640000D02*
X68551750Y-107640000D01*
X71491750Y-107760000D02*
X68551750Y-107760000D01*
X71491750Y-107880000D02*
X68551750Y-107880000D01*
X71491750Y-106860000D02*
X68551750Y-106860000D01*
X68551750Y-112300000D01*
X71491750Y-112300000D01*
X71491750Y-106860000D01*
%TO.C,D6*%
X86051750Y-100970000D02*
X86051750Y-106410000D01*
X86051750Y-106410000D02*
X86381750Y-106410000D01*
X86381750Y-100970000D02*
X86051750Y-100970000D01*
X88661750Y-100970000D02*
X88991750Y-100970000D01*
X88991750Y-100970000D02*
X88991750Y-106410000D01*
X88991750Y-101750000D02*
X86051750Y-101750000D01*
X88991750Y-101870000D02*
X86051750Y-101870000D01*
X88991750Y-101990000D02*
X86051750Y-101990000D01*
X88991750Y-106410000D02*
X88661750Y-106410000D01*
%TO.C,R3*%
X75751750Y-112130000D02*
X75751750Y-112460000D01*
X75751750Y-114870000D02*
X75751750Y-114540000D01*
X82291750Y-112130000D02*
X75751750Y-112130000D01*
X82291750Y-112460000D02*
X82291750Y-112130000D01*
X82291750Y-114540000D02*
X82291750Y-114870000D01*
X82291750Y-114870000D02*
X75751750Y-114870000D01*
%TO.C,R1*%
X59151750Y-105730000D02*
X59481750Y-105730000D01*
X59151750Y-112270000D02*
X59151750Y-105730000D01*
X59481750Y-112270000D02*
X59151750Y-112270000D01*
X61561750Y-112270000D02*
X61891750Y-112270000D01*
X61891750Y-105730000D02*
X61561750Y-105730000D01*
X61891750Y-112270000D02*
X61891750Y-105730000D01*
%TO.C,C2*%
X76551750Y-88130000D02*
X81491750Y-88130000D01*
X76551750Y-88460000D02*
X76551750Y-88130000D01*
X76551750Y-90870000D02*
X76551750Y-90540000D01*
X81491750Y-88130000D02*
X81491750Y-88460000D01*
X81491750Y-90540000D02*
X81491750Y-90870000D01*
X81491750Y-90870000D02*
X76551750Y-90870000D01*
%TO.C,J2*%
X94784250Y-100085000D02*
X101524250Y-100085000D01*
X94784250Y-101425000D02*
X94784250Y-100085000D01*
X94784250Y-105905000D02*
X94784250Y-102025000D01*
X95704250Y-100085000D02*
X95704250Y-105905000D01*
X96704250Y-100085000D02*
X96704250Y-105905000D01*
X99804250Y-100085000D02*
X99804250Y-105905000D01*
X101524250Y-100085000D02*
X101524250Y-105905000D01*
X101524250Y-105905000D02*
X94784250Y-105905000D01*
X94784250Y-101725000D02*
X94174250Y-102165000D01*
X94174250Y-101285000D01*
X94784250Y-101725000D01*
G36*
X94784250Y-101725000D02*
G01*
X94174250Y-102165000D01*
X94174250Y-101285000D01*
X94784250Y-101725000D01*
G37*
%TO.C,U1*%
X84411750Y-79190000D02*
X94631750Y-79190000D01*
X84411750Y-80570000D02*
X94631750Y-80570000D01*
X84411750Y-83810000D02*
X84411750Y-79190000D01*
X87671750Y-79190000D02*
X87671750Y-80570000D01*
X91371750Y-79190000D02*
X91371750Y-80570000D01*
X94631750Y-79190000D02*
X94631750Y-83810000D01*
X94631750Y-83810000D02*
X84411750Y-83810000D01*
%TO.C,D3*%
X69521750Y-89840000D02*
X69521750Y-90860000D01*
X69521750Y-97320000D02*
X69521750Y-96300000D01*
X70991750Y-91640000D02*
X68051750Y-91640000D01*
X70991750Y-91760000D02*
X68051750Y-91760000D01*
X70991750Y-91880000D02*
X68051750Y-91880000D01*
X70991750Y-90860000D02*
X68051750Y-90860000D01*
X68051750Y-96300000D01*
X70991750Y-96300000D01*
X70991750Y-90860000D01*
%TO.C,R2*%
X54651750Y-84230000D02*
X54981750Y-84230000D01*
X54651750Y-90770000D02*
X54651750Y-84230000D01*
X54981750Y-90770000D02*
X54651750Y-90770000D01*
X57061750Y-90770000D02*
X57391750Y-90770000D01*
X57391750Y-84230000D02*
X57061750Y-84230000D01*
X57391750Y-90770000D02*
X57391750Y-84230000D01*
%TO.C,C1*%
X62901750Y-79380000D02*
X81141750Y-79380000D01*
X62901750Y-85620000D02*
X62901750Y-79380000D01*
X81141750Y-79380000D02*
X81141750Y-85620000D01*
X81141750Y-85620000D02*
X62901750Y-85620000D01*
%TO.C,C3*%
X83641750Y-100000000D02*
G75*
G02*
X73401750Y-100000000I-5120000J0D01*
G01*
X73401750Y-100000000D02*
G75*
G02*
X83641750Y-100000000I5120000J0D01*
G01*
%TO.C,R4*%
X75751750Y-106130000D02*
X75751750Y-106460000D01*
X75751750Y-108870000D02*
X75751750Y-108540000D01*
X82291750Y-106130000D02*
X75751750Y-106130000D01*
X82291750Y-106460000D02*
X82291750Y-106130000D01*
X82291750Y-108540000D02*
X82291750Y-108870000D01*
X82291750Y-108870000D02*
X75751750Y-108870000D01*
%TO.C,C4*%
X101141750Y-90500000D02*
G75*
G02*
X90901750Y-90500000I-5120000J0D01*
G01*
X90901750Y-90500000D02*
G75*
G02*
X101141750Y-90500000I5120000J0D01*
G01*
%TO.C,D2*%
X65271750Y-105840000D02*
X65271750Y-106860000D01*
X65271750Y-113320000D02*
X65271750Y-112300000D01*
X66741750Y-107640000D02*
X63801750Y-107640000D01*
X66741750Y-107760000D02*
X63801750Y-107760000D01*
X66741750Y-107880000D02*
X63801750Y-107880000D01*
X66741750Y-106860000D02*
X63801750Y-106860000D01*
X63801750Y-112300000D01*
X66741750Y-112300000D01*
X66741750Y-106860000D01*
%TO.C,D5*%
X84551750Y-89780000D02*
X84551750Y-95220000D01*
X84551750Y-95220000D02*
X84881750Y-95220000D01*
X84881750Y-89780000D02*
X84551750Y-89780000D01*
X87161750Y-89780000D02*
X87491750Y-89780000D01*
X87491750Y-89780000D02*
X87491750Y-95220000D01*
X87491750Y-90560000D02*
X84551750Y-90560000D01*
X87491750Y-90680000D02*
X84551750Y-90680000D01*
X87491750Y-90800000D02*
X84551750Y-90800000D01*
X87491750Y-95220000D02*
X87161750Y-95220000D01*
%TO.C,D7*%
X51456750Y-106955000D02*
X51456750Y-110045000D01*
X51456750Y-106955170D02*
G75*
G02*
X57006750Y-108500000I2560000J-1544830D01*
G01*
X57006750Y-108500000D02*
G75*
G02*
X51456750Y-110044830I-2990000J0D01*
G01*
X56516750Y-108500000D02*
G75*
G02*
X51516750Y-108500000I-2500000J0D01*
G01*
X51516750Y-108500000D02*
G75*
G02*
X56516750Y-108500000I2500000J0D01*
G01*
%TO.C,J1*%
X51301750Y-94820000D02*
X58041750Y-94820000D01*
X51301750Y-100640000D02*
X51301750Y-94820000D01*
X53021750Y-100640000D02*
X53021750Y-94820000D01*
X56121750Y-100640000D02*
X56121750Y-94820000D01*
X57121750Y-100640000D02*
X57121750Y-94820000D01*
X58041750Y-94820000D02*
X58041750Y-98700000D01*
X58041750Y-99300000D02*
X58041750Y-100640000D01*
X58041750Y-100640000D02*
X51301750Y-100640000D01*
X58651750Y-99440000D02*
X58041750Y-99000000D01*
X58651750Y-98560000D01*
X58651750Y-99440000D01*
G36*
X58651750Y-99440000D02*
G01*
X58041750Y-99000000D01*
X58651750Y-98560000D01*
X58651750Y-99440000D01*
G37*
%TD*%
M02*
