M48
; DRILL file {KiCad 9.0.5} date 2025-11-05T10:05:55+0530
; FORMAT={-:-/ absolute / metric / decimal}
; #@! TF.CreationDate,2025-11-05T10:05:55+05:30
; #@! TF.GenerationSoftware,Kicad,Pcbnew,9.0.5
; #@! TF.FileFunction,Plated,1,2,PTH
FMAT,2
METRIC
; #@! TA.AperFunction,Plated,PTH,ComponentDrill
T1C0.700
; #@! TA.AperFunction,Plated,PTH,ComponentDrill
T2C0.800
; #@! TA.AperFunction,Plated,PTH,ComponentDrill
T3C0.900
; #@! TA.AperFunction,Plated,PTH,ComponentDrill
T4C1.000
; #@! TA.AperFunction,Plated,PTH,ComponentDrill
T5C1.100
; #@! TA.AperFunction,Plated,PTH,ComponentDrill
T6C1.200
; #@! TA.AperFunction,Plated,PTH,ComponentDrill
T7C1.300
; #@! TA.AperFunction,Plated,PTH,ComponentDrill
T8C2.200
%
G90
G05
T1
X73.5Y-91.69
X73.5Y-99.31
X77.0Y-91.69
X77.0Y-99.31
X90.805Y-88.96
X90.805Y-96.58
T2
X74.5Y-103.5
X79.5Y-103.5
X88.0Y-104.0
X93.0Y-104.0
X94.5Y-89.46
X94.5Y-92.0
X94.5Y-94.54
X94.5Y-97.08
X102.12Y-89.46
X102.12Y-92.0
X102.12Y-94.54
X102.12Y-97.08
T3
X66.225Y-103.5
X68.765Y-103.5
T4
X73.632Y-83.5
X78.632Y-83.5
T5
X81.5Y-89.92
X81.5Y-100.08
X86.0Y-89.92
X86.0Y-100.08
X97.5Y-103.5
X107.66Y-103.5
X107.92Y-85.5
X110.46Y-85.5
X113.0Y-85.5
T6
X89.0Y-80.05
X94.0Y-80.05
X99.0Y-80.05
T7
X64.468Y-89.25
X64.468Y-94.25
X110.468Y-92.25
X110.468Y-97.25
T8
X61.0Y-105.0
X61.5Y-78.0
X113.5Y-78.0
X113.5Y-104.5
M30
