%TF.GenerationSoftware,KiCad,Pcbnew,9.0.5*%
%TF.CreationDate,2025-10-11T14:19:14+05:30*%
%TF.ProjectId,new_project,6e65775f-7072-46f6-9a65-63742e6b6963,rev?*%
%TF.SameCoordinates,Original*%
%TF.FileFunction,Copper,L2,Bot*%
%TF.FilePolarity,Positive*%
%FSLAX46Y46*%
G04 Gerber Fmt 4.6, Leading zero omitted, Abs format (unit mm)*
G04 Created by KiCad (PCBNEW 9.0.5) date 2025-10-11 14:19:14*
%MOMM*%
%LPD*%
G01*
G04 APERTURE LIST*
G04 Aperture macros list*
%AMRoundRect*
0 Rectangle with rounded corners*
0 $1 Rounding radius*
0 $2 $3 $4 $5 $6 $7 $8 $9 X,Y pos of 4 corners*
0 Add a 4 corners polygon primitive as box body*
4,1,4,$2,$3,$4,$5,$6,$7,$8,$9,$2,$3,0*
0 Add four circle primitives for the rounded corners*
1,1,$1+$1,$2,$3*
1,1,$1+$1,$4,$5*
1,1,$1+$1,$6,$7*
1,1,$1+$1,$8,$9*
0 Add four rect primitives between the rounded corners*
20,1,$1+$1,$2,$3,$4,$5,0*
20,1,$1+$1,$4,$5,$6,$7,0*
20,1,$1+$1,$6,$7,$8,$9,0*
20,1,$1+$1,$8,$9,$2,$3,0*%
G04 Aperture macros list end*
%TA.AperFunction,ComponentPad*%
%ADD10RoundRect,0.249999X-0.850001X0.850001X-0.850001X-0.850001X0.850001X-0.850001X0.850001X0.850001X0*%
%TD*%
%TA.AperFunction,ComponentPad*%
%ADD11C,2.200000*%
%TD*%
%TA.AperFunction,ComponentPad*%
%ADD12C,1.600000*%
%TD*%
%TA.AperFunction,ComponentPad*%
%ADD13RoundRect,0.250000X0.750000X-0.750000X0.750000X0.750000X-0.750000X0.750000X-0.750000X-0.750000X0*%
%TD*%
%TA.AperFunction,ComponentPad*%
%ADD14C,2.000000*%
%TD*%
%TA.AperFunction,ComponentPad*%
%ADD15R,1.800000X1.800000*%
%TD*%
%TA.AperFunction,ComponentPad*%
%ADD16C,1.800000*%
%TD*%
%TA.AperFunction,Conductor*%
%ADD17C,1.000000*%
%TD*%
G04 APERTURE END LIST*
D10*
%TO.P,D1,1,K*%
%TO.N,/+ve*%
X115500000Y-71000000D03*
D11*
%TO.P,D1,2,A*%
%TO.N,Net-(D1-A)*%
X115500000Y-81160000D03*
%TD*%
D10*
%TO.P,D3,1,K*%
%TO.N,/+ve*%
X121000000Y-70920000D03*
D11*
%TO.P,D3,2,A*%
%TO.N,Net-(D3-A)*%
X121000000Y-81080000D03*
%TD*%
D12*
%TO.P,R2,1*%
%TO.N,/+ve*%
X126050000Y-84700000D03*
%TO.P,R2,2*%
%TO.N,Net-(D5-K)*%
X133670000Y-84700000D03*
%TD*%
%TO.P,R1,1*%
%TO.N,/+ve*%
X127000000Y-72190000D03*
%TO.P,R1,2*%
%TO.N,GND*%
X127000000Y-79810000D03*
%TD*%
D13*
%TO.P,J2,1,Pin_1*%
%TO.N,GND*%
X108000000Y-90040000D03*
D14*
%TO.P,J2,2,Pin_2*%
%TO.N,/+ve*%
X108000000Y-87500000D03*
%TD*%
D13*
%TO.P,J1,1,Pin_1*%
%TO.N,Net-(D3-A)*%
X108007500Y-78982500D03*
D14*
%TO.P,J1,2,Pin_2*%
%TO.N,Net-(D1-A)*%
X108007500Y-76442500D03*
%TD*%
D15*
%TO.P,D5,1,K*%
%TO.N,Net-(D5-K)*%
X132000000Y-76000000D03*
D16*
%TO.P,D5,2,A*%
%TO.N,GND*%
X134540000Y-76000000D03*
%TD*%
D10*
%TO.P,D4,1,K*%
%TO.N,Net-(D3-A)*%
X121000000Y-86000000D03*
D11*
%TO.P,D4,2,A*%
%TO.N,GND*%
X121000000Y-96160000D03*
%TD*%
D10*
%TO.P,D2,1,K*%
%TO.N,Net-(D1-A)*%
X115500000Y-86000000D03*
D11*
%TO.P,D2,2,A*%
%TO.N,GND*%
X115500000Y-96160000D03*
%TD*%
D12*
%TO.P,C1,1*%
%TO.N,/+ve*%
X127500000Y-91500000D03*
%TO.P,C1,2*%
%TO.N,GND*%
X131000000Y-91500000D03*
%TD*%
D17*
%TO.N,/+ve*%
X121000000Y-70920000D02*
X121000000Y-71000000D01*
X121000000Y-71000000D02*
X124000000Y-74000000D01*
X121000000Y-70920000D02*
X125730000Y-70920000D01*
X125730000Y-70920000D02*
X127000000Y-72190000D01*
X115500000Y-71000000D02*
X120920000Y-71000000D01*
X120920000Y-71000000D02*
X121000000Y-70920000D01*
X115500000Y-71000000D02*
X108500000Y-71000000D01*
X105000000Y-74500000D02*
X105000000Y-84500000D01*
X108500000Y-71000000D02*
X105000000Y-74500000D01*
X105000000Y-84500000D02*
X108000000Y-87500000D01*
X115500000Y-71000000D02*
X115500000Y-71160000D01*
%TO.N,Net-(D3-A)*%
X108007500Y-84007500D02*
X113000000Y-89000000D01*
X108007500Y-78982500D02*
X108007500Y-84007500D01*
X113000000Y-89000000D02*
X118000000Y-89000000D01*
X118000000Y-89000000D02*
X121000000Y-86000000D01*
%TO.N,Net-(D5-K)*%
X133670000Y-84700000D02*
X133670000Y-77670000D01*
X133670000Y-77670000D02*
X132000000Y-76000000D01*
%TO.N,/+ve*%
X124000000Y-74000000D02*
X124000000Y-82650000D01*
X124000000Y-82650000D02*
X126050000Y-84700000D01*
X126050000Y-84700000D02*
X126050000Y-90050000D01*
X126050000Y-90050000D02*
X127500000Y-91500000D01*
%TO.N,Net-(D3-A)*%
X121000000Y-81160000D02*
X121000000Y-86000000D01*
%TO.N,Net-(D1-A)*%
X115500000Y-81290000D02*
X115500000Y-86000000D01*
X108007500Y-76442500D02*
X110652500Y-76442500D01*
X110652500Y-76442500D02*
X115500000Y-81290000D01*
%TD*%
%TA.AperFunction,Conductor*%
%TO.N,GND*%
G36*
X103566501Y-67020185D02*
G01*
X103612256Y-67072989D01*
X103622200Y-67142147D01*
X103593175Y-67205703D01*
X103561462Y-67231887D01*
X103386196Y-67333075D01*
X103178148Y-67492718D01*
X102992718Y-67678148D01*
X102833075Y-67886196D01*
X102701958Y-68113299D01*
X102701953Y-68113309D01*
X102601605Y-68355571D01*
X102601602Y-68355581D01*
X102533730Y-68608885D01*
X102499500Y-68868872D01*
X102499500Y-69131127D01*
X102520436Y-69290140D01*
X102533730Y-69391116D01*
X102578256Y-69557289D01*
X102601602Y-69644418D01*
X102601605Y-69644428D01*
X102701953Y-69886690D01*
X102701958Y-69886700D01*
X102833075Y-70113803D01*
X102992718Y-70321851D01*
X102992726Y-70321860D01*
X103178140Y-70507274D01*
X103178148Y-70507281D01*
X103386196Y-70666924D01*
X103613299Y-70798041D01*
X103613309Y-70798046D01*
X103839582Y-70891771D01*
X103855581Y-70898398D01*
X104108884Y-70966270D01*
X104368880Y-71000500D01*
X104368887Y-71000500D01*
X104631113Y-71000500D01*
X104631120Y-71000500D01*
X104891116Y-70966270D01*
X105144419Y-70898398D01*
X105386697Y-70798043D01*
X105613803Y-70666924D01*
X105821851Y-70507282D01*
X105821855Y-70507277D01*
X105821860Y-70507274D01*
X106007274Y-70321860D01*
X106007277Y-70321855D01*
X106007282Y-70321851D01*
X106166924Y-70113803D01*
X106298043Y-69886697D01*
X106321254Y-69830662D01*
X106345294Y-69772624D01*
X106398398Y-69644419D01*
X106466270Y-69391116D01*
X106500500Y-69131120D01*
X106500500Y-68868880D01*
X106466270Y-68608884D01*
X106398398Y-68355581D01*
X106345294Y-68227376D01*
X106298046Y-68113309D01*
X106298041Y-68113299D01*
X106166924Y-67886196D01*
X106007281Y-67678148D01*
X106007274Y-67678140D01*
X105821860Y-67492726D01*
X105821851Y-67492718D01*
X105613803Y-67333075D01*
X105438538Y-67231887D01*
X105390323Y-67181320D01*
X105377099Y-67112713D01*
X105403067Y-67047849D01*
X105459981Y-67007320D01*
X105500538Y-67000500D01*
X134999462Y-67000500D01*
X135066501Y-67020185D01*
X135112256Y-67072989D01*
X135122200Y-67142147D01*
X135093175Y-67205703D01*
X135061462Y-67231887D01*
X134886196Y-67333075D01*
X134678148Y-67492718D01*
X134492718Y-67678148D01*
X134333075Y-67886196D01*
X134201958Y-68113299D01*
X134201953Y-68113309D01*
X134101605Y-68355571D01*
X134101602Y-68355581D01*
X134033730Y-68608885D01*
X133999500Y-68868872D01*
X133999500Y-69131127D01*
X134020436Y-69290140D01*
X134033730Y-69391116D01*
X134078256Y-69557289D01*
X134101602Y-69644418D01*
X134101605Y-69644428D01*
X134201953Y-69886690D01*
X134201958Y-69886700D01*
X134333075Y-70113803D01*
X134492718Y-70321851D01*
X134492726Y-70321860D01*
X134678140Y-70507274D01*
X134678148Y-70507281D01*
X134886196Y-70666924D01*
X135113299Y-70798041D01*
X135113309Y-70798046D01*
X135339582Y-70891771D01*
X135355581Y-70898398D01*
X135608884Y-70966270D01*
X135868880Y-71000500D01*
X135868887Y-71000500D01*
X136131113Y-71000500D01*
X136131120Y-71000500D01*
X136391116Y-70966270D01*
X136644419Y-70898398D01*
X136886697Y-70798043D01*
X137113803Y-70666924D01*
X137321851Y-70507282D01*
X137321855Y-70507277D01*
X137321860Y-70507274D01*
X137507274Y-70321860D01*
X137507277Y-70321855D01*
X137507282Y-70321851D01*
X137666924Y-70113803D01*
X137748823Y-69971949D01*
X137768113Y-69938538D01*
X137818679Y-69890322D01*
X137887286Y-69877098D01*
X137952151Y-69903066D01*
X137992680Y-69959980D01*
X137999500Y-70000537D01*
X137999500Y-96999462D01*
X137979815Y-97066501D01*
X137927011Y-97112256D01*
X137857853Y-97122200D01*
X137794297Y-97093175D01*
X137768113Y-97061462D01*
X137666924Y-96886196D01*
X137507281Y-96678148D01*
X137507274Y-96678140D01*
X137321860Y-96492726D01*
X137321851Y-96492718D01*
X137113803Y-96333075D01*
X136886700Y-96201958D01*
X136886690Y-96201953D01*
X136644428Y-96101605D01*
X136644421Y-96101603D01*
X136644419Y-96101602D01*
X136391116Y-96033730D01*
X136333339Y-96026123D01*
X136131127Y-95999500D01*
X136131120Y-95999500D01*
X135868880Y-95999500D01*
X135868872Y-95999500D01*
X135637772Y-96029926D01*
X135608884Y-96033730D01*
X135407871Y-96087591D01*
X135355581Y-96101602D01*
X135355571Y-96101605D01*
X135113309Y-96201953D01*
X135113299Y-96201958D01*
X134886196Y-96333075D01*
X134678148Y-96492718D01*
X134492718Y-96678148D01*
X134333075Y-96886196D01*
X134201958Y-97113299D01*
X134201953Y-97113309D01*
X134101605Y-97355571D01*
X134101602Y-97355581D01*
X134033730Y-97608885D01*
X133999500Y-97868872D01*
X133999500Y-98131127D01*
X134020436Y-98290140D01*
X134033730Y-98391116D01*
X134055178Y-98471161D01*
X134101602Y-98644418D01*
X134101605Y-98644428D01*
X134201953Y-98886690D01*
X134201958Y-98886700D01*
X134333075Y-99113803D01*
X134492718Y-99321851D01*
X134492726Y-99321860D01*
X134678140Y-99507274D01*
X134678148Y-99507281D01*
X134886196Y-99666924D01*
X135061462Y-99768113D01*
X135109677Y-99818680D01*
X135122901Y-99887287D01*
X135096933Y-99952151D01*
X135040019Y-99992680D01*
X134999462Y-99999500D01*
X104500538Y-99999500D01*
X104433499Y-99979815D01*
X104387744Y-99927011D01*
X104377800Y-99857853D01*
X104406825Y-99794297D01*
X104438538Y-99768113D01*
X104613803Y-99666924D01*
X104671810Y-99622413D01*
X104821851Y-99507282D01*
X104821855Y-99507277D01*
X104821860Y-99507274D01*
X105007274Y-99321860D01*
X105007277Y-99321855D01*
X105007282Y-99321851D01*
X105166924Y-99113803D01*
X105298043Y-98886697D01*
X105398398Y-98644419D01*
X105466270Y-98391116D01*
X105500500Y-98131120D01*
X105500500Y-97868880D01*
X105466270Y-97608884D01*
X105398398Y-97355581D01*
X105345294Y-97227376D01*
X105298046Y-97113309D01*
X105298041Y-97113299D01*
X105166924Y-96886196D01*
X105007281Y-96678148D01*
X105007274Y-96678140D01*
X104821860Y-96492726D01*
X104821851Y-96492718D01*
X104613803Y-96333075D01*
X104386700Y-96201958D01*
X104386690Y-96201954D01*
X104246212Y-96143766D01*
X104144428Y-96101605D01*
X104144421Y-96101603D01*
X104144419Y-96101602D01*
X103892389Y-96034071D01*
X113900000Y-96034071D01*
X113900000Y-96285928D01*
X113939397Y-96534669D01*
X114017219Y-96774184D01*
X114131557Y-96998583D01*
X114205748Y-97100697D01*
X114205748Y-97100698D01*
X114976212Y-96330234D01*
X114987482Y-96372292D01*
X115059890Y-96497708D01*
X115162292Y-96600110D01*
X115287708Y-96672518D01*
X115329765Y-96683787D01*
X114559300Y-97454250D01*
X114661416Y-97528442D01*
X114885815Y-97642780D01*
X115125330Y-97720602D01*
X115374072Y-97760000D01*
X115625928Y-97760000D01*
X115874669Y-97720602D01*
X116114184Y-97642780D01*
X116338575Y-97528446D01*
X116338581Y-97528442D01*
X116440697Y-97454250D01*
X116440698Y-97454250D01*
X115670234Y-96683787D01*
X115712292Y-96672518D01*
X115837708Y-96600110D01*
X115940110Y-96497708D01*
X116012518Y-96372292D01*
X116023787Y-96330235D01*
X116794250Y-97100698D01*
X116794250Y-97100697D01*
X116868442Y-96998581D01*
X116868446Y-96998575D01*
X116982780Y-96774184D01*
X117060602Y-96534669D01*
X117100000Y-96285928D01*
X117100000Y-96034071D01*
X119400000Y-96034071D01*
X119400000Y-96285928D01*
X119439397Y-96534669D01*
X119517219Y-96774184D01*
X119631557Y-96998583D01*
X119705748Y-97100697D01*
X119705748Y-97100698D01*
X120476212Y-96330233D01*
X120487482Y-96372292D01*
X120559890Y-96497708D01*
X120662292Y-96600110D01*
X120787708Y-96672518D01*
X120829765Y-96683787D01*
X120059300Y-97454250D01*
X120161416Y-97528442D01*
X120385815Y-97642780D01*
X120625330Y-97720602D01*
X120874072Y-97760000D01*
X121125928Y-97760000D01*
X121374669Y-97720602D01*
X121614184Y-97642780D01*
X121838575Y-97528446D01*
X121838581Y-97528442D01*
X121940697Y-97454250D01*
X121940698Y-97454250D01*
X121170234Y-96683787D01*
X121212292Y-96672518D01*
X121337708Y-96600110D01*
X121440110Y-96497708D01*
X121512518Y-96372292D01*
X121523787Y-96330234D01*
X122294250Y-97100698D01*
X122294250Y-97100697D01*
X122368442Y-96998581D01*
X122368446Y-96998575D01*
X122482780Y-96774184D01*
X122560602Y-96534669D01*
X122600000Y-96285928D01*
X122600000Y-96034071D01*
X122560602Y-95785330D01*
X122482780Y-95545815D01*
X122368442Y-95321416D01*
X122294250Y-95219301D01*
X122294250Y-95219300D01*
X121523787Y-95989764D01*
X121512518Y-95947708D01*
X121440110Y-95822292D01*
X121337708Y-95719890D01*
X121212292Y-95647482D01*
X121170232Y-95636212D01*
X121940698Y-94865748D01*
X121838583Y-94791557D01*
X121614184Y-94677219D01*
X121374669Y-94599397D01*
X121125928Y-94560000D01*
X120874072Y-94560000D01*
X120625330Y-94599397D01*
X120385815Y-94677219D01*
X120161413Y-94791559D01*
X120059301Y-94865747D01*
X120059300Y-94865748D01*
X120829765Y-95636212D01*
X120787708Y-95647482D01*
X120662292Y-95719890D01*
X120559890Y-95822292D01*
X120487482Y-95947708D01*
X120476212Y-95989765D01*
X119705748Y-95219300D01*
X119705747Y-95219301D01*
X119631559Y-95321413D01*
X119517219Y-95545815D01*
X119439397Y-95785330D01*
X119400000Y-96034071D01*
X117100000Y-96034071D01*
X117060602Y-95785330D01*
X116982780Y-95545815D01*
X116868442Y-95321416D01*
X116794250Y-95219301D01*
X116794250Y-95219300D01*
X116023787Y-95989764D01*
X116012518Y-95947708D01*
X115940110Y-95822292D01*
X115837708Y-95719890D01*
X115712292Y-95647482D01*
X115670232Y-95636212D01*
X116440698Y-94865748D01*
X116338583Y-94791557D01*
X116114184Y-94677219D01*
X115874669Y-94599397D01*
X115625928Y-94560000D01*
X115374072Y-94560000D01*
X115125330Y-94599397D01*
X114885815Y-94677219D01*
X114661413Y-94791559D01*
X114559301Y-94865747D01*
X114559300Y-94865748D01*
X115329765Y-95636212D01*
X115287708Y-95647482D01*
X115162292Y-95719890D01*
X115059890Y-95822292D01*
X114987482Y-95947708D01*
X114976212Y-95989765D01*
X114205748Y-95219300D01*
X114205747Y-95219301D01*
X114131559Y-95321413D01*
X114017219Y-95545815D01*
X113939397Y-95785330D01*
X113900000Y-96034071D01*
X103892389Y-96034071D01*
X103891116Y-96033730D01*
X103833339Y-96026123D01*
X103631127Y-95999500D01*
X103631120Y-95999500D01*
X103368880Y-95999500D01*
X103368872Y-95999500D01*
X103137772Y-96029926D01*
X103108884Y-96033730D01*
X102907871Y-96087591D01*
X102855581Y-96101602D01*
X102855571Y-96101605D01*
X102613309Y-96201953D01*
X102613299Y-96201958D01*
X102386196Y-96333075D01*
X102199987Y-96475961D01*
X102134818Y-96501156D01*
X102066373Y-96487118D01*
X102016383Y-96438304D01*
X102000500Y-96377586D01*
X102000500Y-74401456D01*
X103999500Y-74401456D01*
X103999500Y-84598543D01*
X104015971Y-84681344D01*
X104015971Y-84681345D01*
X104037947Y-84791829D01*
X104037951Y-84791843D01*
X104042305Y-84802353D01*
X104113366Y-84973911D01*
X104113371Y-84973920D01*
X104222859Y-85137780D01*
X104222860Y-85137781D01*
X104222861Y-85137782D01*
X104362218Y-85277139D01*
X104362219Y-85277139D01*
X104369286Y-85284206D01*
X104369285Y-85284206D01*
X104369289Y-85284209D01*
X106463181Y-87378101D01*
X106496666Y-87439424D01*
X106499500Y-87465782D01*
X106499500Y-87618097D01*
X106536446Y-87851368D01*
X106609433Y-88075996D01*
X106716657Y-88286433D01*
X106855483Y-88477510D01*
X106855489Y-88477516D01*
X106858647Y-88481214D01*
X106856977Y-88482640D01*
X106886089Y-88535954D01*
X106881105Y-88605646D01*
X106839233Y-88661579D01*
X106830022Y-88667850D01*
X106781654Y-88697684D01*
X106657684Y-88821654D01*
X106565643Y-88970875D01*
X106565641Y-88970880D01*
X106510494Y-89137302D01*
X106510493Y-89137309D01*
X106500000Y-89240013D01*
X106500000Y-89790000D01*
X107451518Y-89790000D01*
X107440889Y-89808409D01*
X107400000Y-89961009D01*
X107400000Y-90118991D01*
X107440889Y-90271591D01*
X107451518Y-90290000D01*
X106500001Y-90290000D01*
X106500001Y-90839986D01*
X106510494Y-90942697D01*
X106565641Y-91109119D01*
X106565643Y-91109124D01*
X106657684Y-91258345D01*
X106781654Y-91382315D01*
X106930875Y-91474356D01*
X106930880Y-91474358D01*
X107097302Y-91529505D01*
X107097309Y-91529506D01*
X107200019Y-91539999D01*
X107749999Y-91539999D01*
X107750000Y-91539998D01*
X107750000Y-90588482D01*
X107768409Y-90599111D01*
X107921009Y-90640000D01*
X108078991Y-90640000D01*
X108231591Y-90599111D01*
X108250000Y-90588482D01*
X108250000Y-91539999D01*
X108799972Y-91539999D01*
X108799986Y-91539998D01*
X108902697Y-91529505D01*
X109069119Y-91474358D01*
X109069124Y-91474356D01*
X109218345Y-91382315D01*
X109342315Y-91258345D01*
X109434356Y-91109124D01*
X109434358Y-91109119D01*
X109489505Y-90942697D01*
X109489506Y-90942690D01*
X109499999Y-90839986D01*
X109500000Y-90839973D01*
X109500000Y-90290000D01*
X108548482Y-90290000D01*
X108559111Y-90271591D01*
X108600000Y-90118991D01*
X108600000Y-89961009D01*
X108559111Y-89808409D01*
X108548482Y-89790000D01*
X109499999Y-89790000D01*
X109499999Y-89240028D01*
X109499998Y-89240013D01*
X109489505Y-89137302D01*
X109434358Y-88970880D01*
X109434356Y-88970875D01*
X109342315Y-88821654D01*
X109218343Y-88697682D01*
X109169980Y-88667852D01*
X109123255Y-88615904D01*
X109112032Y-88546942D01*
X109139876Y-88482859D01*
X109141362Y-88481233D01*
X109141348Y-88481221D01*
X109144511Y-88477516D01*
X109144517Y-88477510D01*
X109283343Y-88286433D01*
X109390568Y-88075992D01*
X109463553Y-87851368D01*
X109500500Y-87618097D01*
X109500500Y-87381902D01*
X109472412Y-87204565D01*
X109481366Y-87135272D01*
X109526363Y-87081820D01*
X109593114Y-87061180D01*
X109660428Y-87079905D01*
X109682566Y-87097486D01*
X112219735Y-89634655D01*
X112219764Y-89634686D01*
X112362214Y-89777136D01*
X112362218Y-89777139D01*
X112526079Y-89886628D01*
X112526092Y-89886635D01*
X112654833Y-89939961D01*
X112697744Y-89957735D01*
X112708164Y-89962051D01*
X112804812Y-89981275D01*
X112853135Y-89990887D01*
X112901458Y-90000500D01*
X112901459Y-90000500D01*
X118098542Y-90000500D01*
X118129566Y-89994328D01*
X118195188Y-89981275D01*
X118291836Y-89962051D01*
X118345165Y-89939961D01*
X118473914Y-89886632D01*
X118637782Y-89777139D01*
X118777139Y-89637782D01*
X118777139Y-89637780D01*
X118787347Y-89627573D01*
X118787348Y-89627570D01*
X120778102Y-87636819D01*
X120839425Y-87603334D01*
X120865783Y-87600500D01*
X121900005Y-87600500D01*
X121900010Y-87600500D01*
X122002798Y-87589999D01*
X122169335Y-87534814D01*
X122318656Y-87442712D01*
X122442712Y-87318656D01*
X122534814Y-87169335D01*
X122589999Y-87002798D01*
X122600500Y-86900010D01*
X122600500Y-85099990D01*
X122589999Y-84997202D01*
X122534814Y-84830665D01*
X122442712Y-84681344D01*
X122318656Y-84557288D01*
X122225890Y-84500070D01*
X122169337Y-84465187D01*
X122169336Y-84465186D01*
X122169335Y-84465186D01*
X122085495Y-84437404D01*
X122028050Y-84397631D01*
X122001228Y-84333114D01*
X122000500Y-84319698D01*
X122000500Y-82393962D01*
X122020185Y-82326923D01*
X122039623Y-82304650D01*
X122039211Y-82304238D01*
X122107869Y-82235580D01*
X122220793Y-82122656D01*
X122368870Y-81918845D01*
X122483241Y-81694379D01*
X122561090Y-81454785D01*
X122600500Y-81205962D01*
X122600500Y-80954038D01*
X122561090Y-80705215D01*
X122483241Y-80465621D01*
X122483239Y-80465618D01*
X122483239Y-80465616D01*
X122409630Y-80321151D01*
X122368870Y-80241155D01*
X122312489Y-80163553D01*
X122220798Y-80037350D01*
X122220794Y-80037345D01*
X122042654Y-79859205D01*
X122042649Y-79859201D01*
X121838848Y-79711132D01*
X121838847Y-79711131D01*
X121838845Y-79711130D01*
X121729873Y-79655606D01*
X121614383Y-79596760D01*
X121374785Y-79518910D01*
X121290636Y-79505582D01*
X121125962Y-79479500D01*
X120874038Y-79479500D01*
X120749626Y-79499205D01*
X120625214Y-79518910D01*
X120385616Y-79596760D01*
X120161151Y-79711132D01*
X119957350Y-79859201D01*
X119957345Y-79859205D01*
X119779205Y-80037345D01*
X119779201Y-80037350D01*
X119631132Y-80241151D01*
X119516760Y-80465616D01*
X119438910Y-80705214D01*
X119399500Y-80954038D01*
X119399500Y-81205961D01*
X119438910Y-81454785D01*
X119516760Y-81694383D01*
X119631132Y-81918848D01*
X119779201Y-82122649D01*
X119779205Y-82122654D01*
X119960789Y-82304238D01*
X119959714Y-82305312D01*
X119994225Y-82358180D01*
X119999500Y-82393962D01*
X119999500Y-84319698D01*
X119979815Y-84386737D01*
X119927011Y-84432492D01*
X119914505Y-84437404D01*
X119830665Y-84465186D01*
X119830662Y-84465187D01*
X119681342Y-84557289D01*
X119557289Y-84681342D01*
X119465187Y-84830662D01*
X119465185Y-84830667D01*
X119456631Y-84856483D01*
X119410001Y-84997202D01*
X119410001Y-84997203D01*
X119410000Y-84997203D01*
X119399500Y-85099982D01*
X119399500Y-86134217D01*
X119379815Y-86201256D01*
X119363181Y-86221898D01*
X117621899Y-87963181D01*
X117560576Y-87996666D01*
X117534218Y-87999500D01*
X113465782Y-87999500D01*
X113398743Y-87979815D01*
X113378101Y-87963181D01*
X109044319Y-83629399D01*
X109010834Y-83568076D01*
X109008000Y-83541718D01*
X109008000Y-80528408D01*
X109027685Y-80461369D01*
X109071771Y-80422863D01*
X109070687Y-80421105D01*
X109076832Y-80417314D01*
X109076834Y-80417314D01*
X109226156Y-80325212D01*
X109350212Y-80201156D01*
X109442314Y-80051834D01*
X109497499Y-79885297D01*
X109508000Y-79782509D01*
X109507999Y-78182492D01*
X109497499Y-78079703D01*
X109442314Y-77913166D01*
X109350212Y-77763844D01*
X109241049Y-77654681D01*
X109207564Y-77593358D01*
X109212548Y-77523666D01*
X109254420Y-77467733D01*
X109319884Y-77443316D01*
X109328730Y-77443000D01*
X110186718Y-77443000D01*
X110253757Y-77462685D01*
X110274399Y-77479319D01*
X113863181Y-81068101D01*
X113896666Y-81129424D01*
X113899500Y-81155782D01*
X113899500Y-81285961D01*
X113938910Y-81534785D01*
X114016760Y-81774383D01*
X114131132Y-81998848D01*
X114279201Y-82202649D01*
X114279205Y-82202654D01*
X114460789Y-82384238D01*
X114459714Y-82385312D01*
X114494225Y-82438180D01*
X114499500Y-82473962D01*
X114499500Y-84319698D01*
X114479815Y-84386737D01*
X114427011Y-84432492D01*
X114414505Y-84437404D01*
X114330665Y-84465186D01*
X114330662Y-84465187D01*
X114181342Y-84557289D01*
X114057289Y-84681342D01*
X113965187Y-84830662D01*
X113965185Y-84830667D01*
X113956631Y-84856483D01*
X113910001Y-84997202D01*
X113910001Y-84997203D01*
X113910000Y-84997203D01*
X113899500Y-85099982D01*
X113899500Y-86900017D01*
X113910000Y-87002796D01*
X113953899Y-87135272D01*
X113965186Y-87169335D01*
X114057288Y-87318656D01*
X114181344Y-87442712D01*
X114330665Y-87534814D01*
X114497202Y-87589999D01*
X114599990Y-87600500D01*
X114599995Y-87600500D01*
X116400005Y-87600500D01*
X116400010Y-87600500D01*
X116502798Y-87589999D01*
X116669335Y-87534814D01*
X116818656Y-87442712D01*
X116942712Y-87318656D01*
X117034814Y-87169335D01*
X117089999Y-87002798D01*
X117100500Y-86900010D01*
X117100500Y-85099990D01*
X117089999Y-84997202D01*
X117034814Y-84830665D01*
X116942712Y-84681344D01*
X116818656Y-84557288D01*
X116725890Y-84500070D01*
X116669337Y-84465187D01*
X116669336Y-84465186D01*
X116669335Y-84465186D01*
X116585495Y-84437404D01*
X116528050Y-84397631D01*
X116501228Y-84333114D01*
X116500500Y-84319698D01*
X116500500Y-82473962D01*
X116520185Y-82406923D01*
X116539623Y-82384650D01*
X116539211Y-82384238D01*
X116622656Y-82300793D01*
X116720793Y-82202656D01*
X116868870Y-81998845D01*
X116983241Y-81774379D01*
X117061090Y-81534785D01*
X117100500Y-81285962D01*
X117100500Y-81034038D01*
X117061090Y-80785215D01*
X116983241Y-80545621D01*
X116983239Y-80545618D01*
X116983239Y-80545616D01*
X116940729Y-80462187D01*
X116868870Y-80321155D01*
X116810744Y-80241151D01*
X116720798Y-80117350D01*
X116720794Y-80117345D01*
X116542654Y-79939205D01*
X116542649Y-79939201D01*
X116338848Y-79791132D01*
X116338847Y-79791131D01*
X116338845Y-79791130D01*
X116268747Y-79755413D01*
X116114383Y-79676760D01*
X115874785Y-79598910D01*
X115625962Y-79559500D01*
X115374038Y-79559500D01*
X115374033Y-79559500D01*
X115272749Y-79575542D01*
X115203456Y-79566588D01*
X115165670Y-79540750D01*
X111433979Y-75809059D01*
X111433959Y-75809037D01*
X111290285Y-75665363D01*
X111290281Y-75665360D01*
X111126420Y-75555871D01*
X111126407Y-75555864D01*
X110999859Y-75503447D01*
X110999855Y-75503445D01*
X110992743Y-75500500D01*
X110944336Y-75480449D01*
X110847688Y-75461224D01*
X110843292Y-75460349D01*
X110843290Y-75460349D01*
X110751044Y-75442000D01*
X110751041Y-75442000D01*
X109180389Y-75442000D01*
X109113350Y-75422315D01*
X109092708Y-75405681D01*
X108985012Y-75297985D01*
X108985010Y-75297983D01*
X108793933Y-75159157D01*
X108583496Y-75051933D01*
X108358868Y-74978946D01*
X108125597Y-74942000D01*
X108125592Y-74942000D01*
X107889408Y-74942000D01*
X107889403Y-74942000D01*
X107656131Y-74978946D01*
X107431503Y-75051933D01*
X107221066Y-75159157D01*
X107161431Y-75202485D01*
X107029990Y-75297983D01*
X107029988Y-75297985D01*
X107029987Y-75297985D01*
X106862985Y-75464987D01*
X106862985Y-75464988D01*
X106862983Y-75464990D01*
X106803362Y-75547050D01*
X106724157Y-75656066D01*
X106616933Y-75866503D01*
X106543946Y-76091131D01*
X106507000Y-76324402D01*
X106507000Y-76560597D01*
X106543946Y-76793868D01*
X106616933Y-77018496D01*
X106708083Y-77197386D01*
X106724157Y-77228933D01*
X106862983Y-77420010D01*
X106862990Y-77420017D01*
X106866147Y-77423714D01*
X106864364Y-77425236D01*
X106893226Y-77478091D01*
X106888242Y-77547783D01*
X106846370Y-77603716D01*
X106837158Y-77609987D01*
X106788844Y-77639787D01*
X106664789Y-77763842D01*
X106572687Y-77913163D01*
X106572686Y-77913166D01*
X106517501Y-78079703D01*
X106517501Y-78079704D01*
X106517500Y-78079704D01*
X106507000Y-78182483D01*
X106507000Y-79782501D01*
X106507001Y-79782518D01*
X106517500Y-79885296D01*
X106517501Y-79885299D01*
X106572685Y-80051831D01*
X106572687Y-80051836D01*
X106607569Y-80108388D01*
X106664788Y-80201156D01*
X106788844Y-80325212D01*
X106938166Y-80417314D01*
X106938167Y-80417314D01*
X106944313Y-80421105D01*
X106943206Y-80422899D01*
X106987837Y-80462187D01*
X107007000Y-80528408D01*
X107007000Y-84106041D01*
X107007000Y-84106043D01*
X107006999Y-84106043D01*
X107045447Y-84299329D01*
X107045450Y-84299339D01*
X107120864Y-84481407D01*
X107120871Y-84481420D01*
X107230360Y-84645281D01*
X107230363Y-84645285D01*
X107374037Y-84788959D01*
X107374059Y-84788979D01*
X108402513Y-85817433D01*
X108435998Y-85878756D01*
X108431014Y-85948448D01*
X108389142Y-86004381D01*
X108323678Y-86028798D01*
X108295434Y-86027587D01*
X108118097Y-85999500D01*
X108118092Y-85999500D01*
X107965783Y-85999500D01*
X107898744Y-85979815D01*
X107878102Y-85963181D01*
X106036819Y-84121898D01*
X106003334Y-84060575D01*
X106000500Y-84034217D01*
X106000500Y-74965782D01*
X106020185Y-74898743D01*
X106036819Y-74878101D01*
X108878102Y-72036819D01*
X108939425Y-72003334D01*
X108965783Y-72000500D01*
X113819699Y-72000500D01*
X113886738Y-72020185D01*
X113932493Y-72072989D01*
X113937401Y-72085487D01*
X113965186Y-72169335D01*
X114057288Y-72318656D01*
X114181344Y-72442712D01*
X114330665Y-72534814D01*
X114497202Y-72589999D01*
X114599990Y-72600500D01*
X114599995Y-72600500D01*
X116400005Y-72600500D01*
X116400010Y-72600500D01*
X116502798Y-72589999D01*
X116669335Y-72534814D01*
X116818656Y-72442712D01*
X116942712Y-72318656D01*
X117034814Y-72169335D01*
X117062597Y-72085493D01*
X117102368Y-72028051D01*
X117166883Y-72001228D01*
X117180301Y-72000500D01*
X119346208Y-72000500D01*
X119413247Y-72020185D01*
X119459002Y-72072989D01*
X119463912Y-72085491D01*
X119465186Y-72089335D01*
X119557288Y-72238656D01*
X119681344Y-72362712D01*
X119830665Y-72454814D01*
X119997202Y-72509999D01*
X120099990Y-72520500D01*
X121054218Y-72520500D01*
X121121257Y-72540185D01*
X121141899Y-72556819D01*
X122963181Y-74378101D01*
X122996666Y-74439424D01*
X122999500Y-74465782D01*
X122999500Y-82748541D01*
X122999500Y-82748543D01*
X122999499Y-82748543D01*
X123037947Y-82941829D01*
X123037950Y-82941839D01*
X123113364Y-83123907D01*
X123113371Y-83123920D01*
X123222860Y-83287781D01*
X123222863Y-83287785D01*
X123366537Y-83431459D01*
X123366559Y-83431479D01*
X124723281Y-84788201D01*
X124756766Y-84849524D01*
X124758073Y-84856483D01*
X124781523Y-85004535D01*
X124844781Y-85199223D01*
X124937713Y-85381610D01*
X125025819Y-85502877D01*
X125049298Y-85568681D01*
X125049500Y-85575761D01*
X125049500Y-90148541D01*
X125049500Y-90148543D01*
X125049499Y-90148543D01*
X125087947Y-90341829D01*
X125087950Y-90341839D01*
X125163364Y-90523907D01*
X125163371Y-90523920D01*
X125272859Y-90687780D01*
X125272860Y-90687781D01*
X125272861Y-90687782D01*
X125412218Y-90827139D01*
X125412219Y-90827139D01*
X125419286Y-90834206D01*
X125419285Y-90834206D01*
X125419289Y-90834209D01*
X126173281Y-91588201D01*
X126206766Y-91649524D01*
X126208073Y-91656483D01*
X126231523Y-91804535D01*
X126294781Y-91999223D01*
X126358691Y-92124653D01*
X126387585Y-92181359D01*
X126387715Y-92181613D01*
X126508028Y-92347213D01*
X126652786Y-92491971D01*
X126773226Y-92579474D01*
X126818390Y-92612287D01*
X126934607Y-92671503D01*
X127000776Y-92705218D01*
X127000778Y-92705218D01*
X127000781Y-92705220D01*
X127105137Y-92739127D01*
X127195465Y-92768477D01*
X127296557Y-92784488D01*
X127397648Y-92800500D01*
X127397649Y-92800500D01*
X127602351Y-92800500D01*
X127602352Y-92800500D01*
X127804534Y-92768477D01*
X127999219Y-92705220D01*
X128181610Y-92612287D01*
X128274590Y-92544732D01*
X128347213Y-92491971D01*
X128347215Y-92491968D01*
X128347219Y-92491966D01*
X128491966Y-92347219D01*
X128491968Y-92347215D01*
X128491971Y-92347213D01*
X128544732Y-92274590D01*
X128612287Y-92181610D01*
X128705220Y-91999219D01*
X128768477Y-91804534D01*
X128800500Y-91602352D01*
X128800500Y-91397682D01*
X129700000Y-91397682D01*
X129700000Y-91602317D01*
X129732009Y-91804417D01*
X129795244Y-91999031D01*
X129888141Y-92181350D01*
X129888147Y-92181359D01*
X129920523Y-92225921D01*
X129920524Y-92225922D01*
X130600000Y-91546446D01*
X130600000Y-91552661D01*
X130627259Y-91654394D01*
X130679920Y-91745606D01*
X130754394Y-91820080D01*
X130845606Y-91872741D01*
X130947339Y-91900000D01*
X130953553Y-91900000D01*
X130274076Y-92579474D01*
X130318650Y-92611859D01*
X130500968Y-92704755D01*
X130695582Y-92767990D01*
X130897683Y-92800000D01*
X131102317Y-92800000D01*
X131304417Y-92767990D01*
X131499031Y-92704755D01*
X131681349Y-92611859D01*
X131725921Y-92579474D01*
X131046447Y-91900000D01*
X131052661Y-91900000D01*
X131154394Y-91872741D01*
X131245606Y-91820080D01*
X131320080Y-91745606D01*
X131372741Y-91654394D01*
X131400000Y-91552661D01*
X131400000Y-91546447D01*
X132079474Y-92225921D01*
X132111859Y-92181349D01*
X132204755Y-91999031D01*
X132267990Y-91804417D01*
X132300000Y-91602317D01*
X132300000Y-91397682D01*
X132267990Y-91195582D01*
X132204755Y-91000968D01*
X132111859Y-90818650D01*
X132079474Y-90774077D01*
X132079474Y-90774076D01*
X131400000Y-91453551D01*
X131400000Y-91447339D01*
X131372741Y-91345606D01*
X131320080Y-91254394D01*
X131245606Y-91179920D01*
X131154394Y-91127259D01*
X131052661Y-91100000D01*
X131046446Y-91100000D01*
X131725922Y-90420524D01*
X131725921Y-90420523D01*
X131681359Y-90388147D01*
X131681350Y-90388141D01*
X131499031Y-90295244D01*
X131304417Y-90232009D01*
X131102317Y-90200000D01*
X130897683Y-90200000D01*
X130695582Y-90232009D01*
X130500968Y-90295244D01*
X130318644Y-90388143D01*
X130274077Y-90420523D01*
X130274077Y-90420524D01*
X130953554Y-91100000D01*
X130947339Y-91100000D01*
X130845606Y-91127259D01*
X130754394Y-91179920D01*
X130679920Y-91254394D01*
X130627259Y-91345606D01*
X130600000Y-91447339D01*
X130600000Y-91453553D01*
X129920524Y-90774077D01*
X129920523Y-90774077D01*
X129888143Y-90818644D01*
X129795244Y-91000968D01*
X129732009Y-91195582D01*
X129700000Y-91397682D01*
X128800500Y-91397682D01*
X128800500Y-91397648D01*
X128778436Y-91258345D01*
X128768477Y-91195465D01*
X128737458Y-91100000D01*
X128705220Y-91000781D01*
X128705218Y-91000778D01*
X128705218Y-91000776D01*
X128671503Y-90934607D01*
X128612287Y-90818390D01*
X128580092Y-90774077D01*
X128491971Y-90652786D01*
X128347213Y-90508028D01*
X128181613Y-90387715D01*
X128181612Y-90387714D01*
X128181610Y-90387713D01*
X128124653Y-90358691D01*
X127999223Y-90294781D01*
X127804535Y-90231523D01*
X127656483Y-90208073D01*
X127593349Y-90178143D01*
X127588201Y-90173281D01*
X127086819Y-89671898D01*
X127053334Y-89610575D01*
X127050500Y-89584217D01*
X127050500Y-85575761D01*
X127070185Y-85508722D01*
X127074165Y-85502899D01*
X127162287Y-85381610D01*
X127255220Y-85199219D01*
X127318477Y-85004534D01*
X127350500Y-84802352D01*
X127350500Y-84597648D01*
X127329520Y-84465186D01*
X127318477Y-84395465D01*
X127255218Y-84200776D01*
X127215027Y-84121898D01*
X127162287Y-84018390D01*
X127154556Y-84007749D01*
X127041971Y-83852786D01*
X126897213Y-83708028D01*
X126731613Y-83587715D01*
X126731612Y-83587714D01*
X126731610Y-83587713D01*
X126641340Y-83541718D01*
X126549223Y-83494781D01*
X126354535Y-83431523D01*
X126206483Y-83408073D01*
X126143349Y-83378143D01*
X126138201Y-83373281D01*
X125036819Y-82271899D01*
X125003334Y-82210576D01*
X125000500Y-82184218D01*
X125000500Y-79707682D01*
X125700000Y-79707682D01*
X125700000Y-79912317D01*
X125732009Y-80114417D01*
X125795244Y-80309031D01*
X125888141Y-80491350D01*
X125888147Y-80491359D01*
X125920523Y-80535921D01*
X125920524Y-80535922D01*
X126600000Y-79856446D01*
X126600000Y-79862661D01*
X126627259Y-79964394D01*
X126679920Y-80055606D01*
X126754394Y-80130080D01*
X126845606Y-80182741D01*
X126947339Y-80210000D01*
X126953553Y-80210000D01*
X126274076Y-80889474D01*
X126318650Y-80921859D01*
X126500968Y-81014755D01*
X126695582Y-81077990D01*
X126897683Y-81110000D01*
X127102317Y-81110000D01*
X127304417Y-81077990D01*
X127499031Y-81014755D01*
X127681349Y-80921859D01*
X127725921Y-80889474D01*
X127046447Y-80210000D01*
X127052661Y-80210000D01*
X127154394Y-80182741D01*
X127245606Y-80130080D01*
X127320080Y-80055606D01*
X127372741Y-79964394D01*
X127400000Y-79862661D01*
X127400000Y-79856447D01*
X128079474Y-80535921D01*
X128111859Y-80491349D01*
X128204755Y-80309031D01*
X128267990Y-80114417D01*
X128300000Y-79912317D01*
X128300000Y-79707682D01*
X128267990Y-79505582D01*
X128204755Y-79310968D01*
X128111859Y-79128650D01*
X128079474Y-79084077D01*
X128079474Y-79084076D01*
X127400000Y-79763551D01*
X127400000Y-79757339D01*
X127372741Y-79655606D01*
X127320080Y-79564394D01*
X127245606Y-79489920D01*
X127154394Y-79437259D01*
X127052661Y-79410000D01*
X127046446Y-79410000D01*
X127725922Y-78730524D01*
X127725921Y-78730523D01*
X127681359Y-78698147D01*
X127681350Y-78698141D01*
X127499031Y-78605244D01*
X127304417Y-78542009D01*
X127102317Y-78510000D01*
X126897683Y-78510000D01*
X126695582Y-78542009D01*
X126500968Y-78605244D01*
X126318644Y-78698143D01*
X126274077Y-78730523D01*
X126274077Y-78730524D01*
X126953554Y-79410000D01*
X126947339Y-79410000D01*
X126845606Y-79437259D01*
X126754394Y-79489920D01*
X126679920Y-79564394D01*
X126627259Y-79655606D01*
X126600000Y-79757339D01*
X126600000Y-79763553D01*
X125920524Y-79084077D01*
X125920523Y-79084077D01*
X125888143Y-79128644D01*
X125795244Y-79310968D01*
X125732009Y-79505582D01*
X125700000Y-79707682D01*
X125000500Y-79707682D01*
X125000500Y-75052135D01*
X130599500Y-75052135D01*
X130599500Y-76947870D01*
X130599501Y-76947876D01*
X130605908Y-77007483D01*
X130656202Y-77142328D01*
X130656206Y-77142335D01*
X130742452Y-77257544D01*
X130742455Y-77257547D01*
X130857664Y-77343793D01*
X130857671Y-77343797D01*
X130992517Y-77394091D01*
X130992516Y-77394091D01*
X130999444Y-77394835D01*
X131052127Y-77400500D01*
X131934217Y-77400499D01*
X132001256Y-77420183D01*
X132021898Y-77436818D01*
X132633181Y-78048101D01*
X132666666Y-78109424D01*
X132669500Y-78135782D01*
X132669500Y-83824237D01*
X132649815Y-83891276D01*
X132645818Y-83897122D01*
X132557715Y-84018386D01*
X132464781Y-84200776D01*
X132401522Y-84395465D01*
X132369500Y-84597648D01*
X132369500Y-84802351D01*
X132401522Y-85004534D01*
X132464781Y-85199223D01*
X132557715Y-85381613D01*
X132678028Y-85547213D01*
X132822786Y-85691971D01*
X132977749Y-85804556D01*
X132988390Y-85812287D01*
X133104607Y-85871503D01*
X133170776Y-85905218D01*
X133170778Y-85905218D01*
X133170781Y-85905220D01*
X133275137Y-85939127D01*
X133365465Y-85968477D01*
X133437050Y-85979815D01*
X133567648Y-86000500D01*
X133567649Y-86000500D01*
X133772351Y-86000500D01*
X133772352Y-86000500D01*
X133974534Y-85968477D01*
X134169219Y-85905220D01*
X134351610Y-85812287D01*
X134444590Y-85744732D01*
X134517213Y-85691971D01*
X134517215Y-85691968D01*
X134517219Y-85691966D01*
X134661966Y-85547219D01*
X134661968Y-85547215D01*
X134661971Y-85547213D01*
X134714732Y-85474590D01*
X134782287Y-85381610D01*
X134875220Y-85199219D01*
X134938477Y-85004534D01*
X134970500Y-84802352D01*
X134970500Y-84597648D01*
X134949520Y-84465186D01*
X134938477Y-84395465D01*
X134875218Y-84200776D01*
X134835027Y-84121898D01*
X134782287Y-84018390D01*
X134769654Y-84001003D01*
X134694182Y-83897122D01*
X134670702Y-83831316D01*
X134670500Y-83824237D01*
X134670500Y-77571456D01*
X134661976Y-77528606D01*
X134668203Y-77459015D01*
X134711065Y-77403837D01*
X134764196Y-77381940D01*
X134867840Y-77365525D01*
X135077410Y-77297432D01*
X135273760Y-77197386D01*
X135337513Y-77151066D01*
X135337514Y-77151066D01*
X134628584Y-76442138D01*
X134713694Y-76419333D01*
X134816306Y-76360090D01*
X134900090Y-76276306D01*
X134959333Y-76173694D01*
X134982137Y-76088585D01*
X135691066Y-76797514D01*
X135691066Y-76797513D01*
X135737386Y-76733760D01*
X135837432Y-76537410D01*
X135905526Y-76327835D01*
X135940000Y-76110181D01*
X135940000Y-75889818D01*
X135905526Y-75672164D01*
X135837432Y-75462589D01*
X135737388Y-75266243D01*
X135691066Y-75202485D01*
X135691065Y-75202485D01*
X134982137Y-75911413D01*
X134959333Y-75826306D01*
X134900090Y-75723694D01*
X134816306Y-75639910D01*
X134713694Y-75580667D01*
X134628583Y-75557861D01*
X135337513Y-74848932D01*
X135273756Y-74802611D01*
X135077410Y-74702567D01*
X134867835Y-74634473D01*
X134650181Y-74600000D01*
X134429819Y-74600000D01*
X134212164Y-74634473D01*
X134002589Y-74702567D01*
X133806233Y-74802616D01*
X133742485Y-74848931D01*
X133742485Y-74848932D01*
X134451414Y-75557861D01*
X134366306Y-75580667D01*
X134263694Y-75639910D01*
X134179910Y-75723694D01*
X134120667Y-75826306D01*
X134097861Y-75911415D01*
X133436818Y-75250371D01*
X133403333Y-75189048D01*
X133400499Y-75162690D01*
X133400499Y-75052129D01*
X133400498Y-75052123D01*
X133400497Y-75052116D01*
X133394091Y-74992517D01*
X133389029Y-74978946D01*
X133374326Y-74939524D01*
X133343797Y-74857671D01*
X133343793Y-74857664D01*
X133257547Y-74742455D01*
X133257544Y-74742452D01*
X133142335Y-74656206D01*
X133142328Y-74656202D01*
X133007482Y-74605908D01*
X133007483Y-74605908D01*
X132947883Y-74599501D01*
X132947881Y-74599500D01*
X132947873Y-74599500D01*
X132947864Y-74599500D01*
X131052129Y-74599500D01*
X131052123Y-74599501D01*
X130992516Y-74605908D01*
X130857671Y-74656202D01*
X130857664Y-74656206D01*
X130742455Y-74742452D01*
X130742452Y-74742455D01*
X130656206Y-74857664D01*
X130656202Y-74857671D01*
X130605908Y-74992517D01*
X130599521Y-75051932D01*
X130599501Y-75052123D01*
X130599500Y-75052135D01*
X125000500Y-75052135D01*
X125000500Y-73901458D01*
X124992694Y-73862219D01*
X124992694Y-73862218D01*
X124962052Y-73708165D01*
X124886632Y-73526086D01*
X124886631Y-73526085D01*
X124886628Y-73526079D01*
X124777140Y-73362219D01*
X124777137Y-73362215D01*
X123547102Y-72132181D01*
X123513617Y-72070858D01*
X123518601Y-72001166D01*
X123560473Y-71945233D01*
X123625937Y-71920816D01*
X123634783Y-71920500D01*
X125264218Y-71920500D01*
X125331257Y-71940185D01*
X125351899Y-71956819D01*
X125673281Y-72278201D01*
X125706766Y-72339524D01*
X125708073Y-72346483D01*
X125731523Y-72494535D01*
X125794781Y-72689223D01*
X125887715Y-72871613D01*
X126008028Y-73037213D01*
X126152786Y-73181971D01*
X126307749Y-73294556D01*
X126318390Y-73302287D01*
X126434607Y-73361503D01*
X126500776Y-73395218D01*
X126500778Y-73395218D01*
X126500781Y-73395220D01*
X126605137Y-73429127D01*
X126695465Y-73458477D01*
X126796557Y-73474488D01*
X126897648Y-73490500D01*
X126897649Y-73490500D01*
X127102351Y-73490500D01*
X127102352Y-73490500D01*
X127304534Y-73458477D01*
X127499219Y-73395220D01*
X127681610Y-73302287D01*
X127774590Y-73234732D01*
X127847213Y-73181971D01*
X127847215Y-73181968D01*
X127847219Y-73181966D01*
X127991966Y-73037219D01*
X127991968Y-73037215D01*
X127991971Y-73037213D01*
X128044732Y-72964590D01*
X128112287Y-72871610D01*
X128205220Y-72689219D01*
X128268477Y-72494534D01*
X128300500Y-72292352D01*
X128300500Y-72087648D01*
X128268477Y-71885466D01*
X128205220Y-71690781D01*
X128205218Y-71690778D01*
X128205218Y-71690776D01*
X128171503Y-71624607D01*
X128112287Y-71508390D01*
X128104556Y-71497749D01*
X127991971Y-71342786D01*
X127847213Y-71198028D01*
X127681613Y-71077715D01*
X127681612Y-71077714D01*
X127681610Y-71077713D01*
X127624653Y-71048691D01*
X127499223Y-70984781D01*
X127304535Y-70921523D01*
X127156483Y-70898073D01*
X127093349Y-70868143D01*
X127088201Y-70863281D01*
X126511479Y-70286559D01*
X126511459Y-70286537D01*
X126367785Y-70142863D01*
X126367781Y-70142860D01*
X126203920Y-70033371D01*
X126203911Y-70033366D01*
X126131315Y-70003296D01*
X126075165Y-69980038D01*
X126021836Y-69957949D01*
X126021832Y-69957948D01*
X126021828Y-69957946D01*
X125925188Y-69938724D01*
X125828544Y-69919500D01*
X125828541Y-69919500D01*
X122680301Y-69919500D01*
X122613262Y-69899815D01*
X122567507Y-69847011D01*
X122562598Y-69834512D01*
X122534814Y-69750665D01*
X122442712Y-69601344D01*
X122318656Y-69477288D01*
X122225890Y-69420070D01*
X122169337Y-69385187D01*
X122169332Y-69385185D01*
X122167863Y-69384698D01*
X122002798Y-69330001D01*
X122002796Y-69330000D01*
X121900017Y-69319500D01*
X121900010Y-69319500D01*
X120099990Y-69319500D01*
X120099982Y-69319500D01*
X119997203Y-69330000D01*
X119997202Y-69330001D01*
X119914669Y-69357349D01*
X119830667Y-69385185D01*
X119830662Y-69385187D01*
X119681342Y-69477289D01*
X119557289Y-69601342D01*
X119465187Y-69750662D01*
X119465185Y-69750667D01*
X119410895Y-69914504D01*
X119371122Y-69971949D01*
X119306606Y-69998772D01*
X119293189Y-69999500D01*
X117180301Y-69999500D01*
X117113262Y-69979815D01*
X117067507Y-69927011D01*
X117062598Y-69914512D01*
X117034814Y-69830665D01*
X116942712Y-69681344D01*
X116818656Y-69557288D01*
X116688957Y-69477289D01*
X116669337Y-69465187D01*
X116669332Y-69465185D01*
X116667863Y-69464698D01*
X116502798Y-69410001D01*
X116502796Y-69410000D01*
X116400017Y-69399500D01*
X116400010Y-69399500D01*
X114599990Y-69399500D01*
X114599982Y-69399500D01*
X114497203Y-69410000D01*
X114497202Y-69410001D01*
X114414669Y-69437349D01*
X114330667Y-69465185D01*
X114330662Y-69465187D01*
X114181342Y-69557289D01*
X114057289Y-69681342D01*
X113965187Y-69830662D01*
X113965186Y-69830665D01*
X113937403Y-69914505D01*
X113897632Y-69971949D01*
X113833117Y-69998772D01*
X113819699Y-69999500D01*
X108401456Y-69999500D01*
X108208171Y-70037947D01*
X108208163Y-70037949D01*
X108133058Y-70069059D01*
X108026083Y-70113369D01*
X107862222Y-70222857D01*
X107862214Y-70222863D01*
X105213469Y-72871610D01*
X104362220Y-73722859D01*
X104362218Y-73722861D01*
X104292538Y-73792540D01*
X104222859Y-73862219D01*
X104113371Y-74026079D01*
X104113364Y-74026092D01*
X104037950Y-74208160D01*
X104037947Y-74208170D01*
X103999500Y-74401456D01*
X102000500Y-74401456D01*
X102000500Y-67124500D01*
X102020185Y-67057461D01*
X102072989Y-67011706D01*
X102124500Y-67000500D01*
X103499462Y-67000500D01*
X103566501Y-67020185D01*
G37*
%TD.AperFunction*%
%TD*%
M02*
