%TF.GenerationSoftware,KiCad,Pcbnew,9.0.5*%
%TF.CreationDate,2025-10-11T14:19:14+05:30*%
%TF.ProjectId,new_project,6e65775f-7072-46f6-9a65-63742e6b6963,rev?*%
%TF.SameCoordinates,Original*%
%TF.FileFunction,Legend,Top*%
%TF.FilePolarity,Positive*%
%FSLAX46Y46*%
G04 Gerber Fmt 4.6, Leading zero omitted, Abs format (unit mm)*
G04 Created by KiCad (PCBNEW 9.0.5) date 2025-10-11 14:19:14*
%MOMM*%
%LPD*%
G01*
G04 APERTURE LIST*
%ADD10C,0.100000*%
%ADD11C,0.150000*%
%ADD12C,0.120000*%
G04 APERTURE END LIST*
D10*
X106803884Y-93872419D02*
X106803884Y-92872419D01*
X106803884Y-92872419D02*
X107041979Y-92872419D01*
X107041979Y-92872419D02*
X107184836Y-92920038D01*
X107184836Y-92920038D02*
X107280074Y-93015276D01*
X107280074Y-93015276D02*
X107327693Y-93110514D01*
X107327693Y-93110514D02*
X107375312Y-93300990D01*
X107375312Y-93300990D02*
X107375312Y-93443847D01*
X107375312Y-93443847D02*
X107327693Y-93634323D01*
X107327693Y-93634323D02*
X107280074Y-93729561D01*
X107280074Y-93729561D02*
X107184836Y-93824800D01*
X107184836Y-93824800D02*
X107041979Y-93872419D01*
X107041979Y-93872419D02*
X106803884Y-93872419D01*
X108375312Y-93777180D02*
X108327693Y-93824800D01*
X108327693Y-93824800D02*
X108184836Y-93872419D01*
X108184836Y-93872419D02*
X108089598Y-93872419D01*
X108089598Y-93872419D02*
X107946741Y-93824800D01*
X107946741Y-93824800D02*
X107851503Y-93729561D01*
X107851503Y-93729561D02*
X107803884Y-93634323D01*
X107803884Y-93634323D02*
X107756265Y-93443847D01*
X107756265Y-93443847D02*
X107756265Y-93300990D01*
X107756265Y-93300990D02*
X107803884Y-93110514D01*
X107803884Y-93110514D02*
X107851503Y-93015276D01*
X107851503Y-93015276D02*
X107946741Y-92920038D01*
X107946741Y-92920038D02*
X108089598Y-92872419D01*
X108089598Y-92872419D02*
X108184836Y-92872419D01*
X108184836Y-92872419D02*
X108327693Y-92920038D01*
X108327693Y-92920038D02*
X108375312Y-92967657D01*
X109708646Y-93872419D02*
X109613408Y-93824800D01*
X109613408Y-93824800D02*
X109565789Y-93777180D01*
X109565789Y-93777180D02*
X109518170Y-93681942D01*
X109518170Y-93681942D02*
X109518170Y-93396228D01*
X109518170Y-93396228D02*
X109565789Y-93300990D01*
X109565789Y-93300990D02*
X109613408Y-93253371D01*
X109613408Y-93253371D02*
X109708646Y-93205752D01*
X109708646Y-93205752D02*
X109851503Y-93205752D01*
X109851503Y-93205752D02*
X109946741Y-93253371D01*
X109946741Y-93253371D02*
X109994360Y-93300990D01*
X109994360Y-93300990D02*
X110041979Y-93396228D01*
X110041979Y-93396228D02*
X110041979Y-93681942D01*
X110041979Y-93681942D02*
X109994360Y-93777180D01*
X109994360Y-93777180D02*
X109946741Y-93824800D01*
X109946741Y-93824800D02*
X109851503Y-93872419D01*
X109851503Y-93872419D02*
X109708646Y-93872419D01*
X110899122Y-93205752D02*
X110899122Y-93872419D01*
X110470551Y-93205752D02*
X110470551Y-93729561D01*
X110470551Y-93729561D02*
X110518170Y-93824800D01*
X110518170Y-93824800D02*
X110613408Y-93872419D01*
X110613408Y-93872419D02*
X110756265Y-93872419D01*
X110756265Y-93872419D02*
X110851503Y-93824800D01*
X110851503Y-93824800D02*
X110899122Y-93777180D01*
X111232456Y-93205752D02*
X111613408Y-93205752D01*
X111375313Y-92872419D02*
X111375313Y-93729561D01*
X111375313Y-93729561D02*
X111422932Y-93824800D01*
X111422932Y-93824800D02*
X111518170Y-93872419D01*
X111518170Y-93872419D02*
X111613408Y-93872419D01*
X106756265Y-73086704D02*
X107232455Y-73086704D01*
X106661027Y-73372419D02*
X106994360Y-72372419D01*
X106994360Y-72372419D02*
X107327693Y-73372419D01*
X108232455Y-73277180D02*
X108184836Y-73324800D01*
X108184836Y-73324800D02*
X108041979Y-73372419D01*
X108041979Y-73372419D02*
X107946741Y-73372419D01*
X107946741Y-73372419D02*
X107803884Y-73324800D01*
X107803884Y-73324800D02*
X107708646Y-73229561D01*
X107708646Y-73229561D02*
X107661027Y-73134323D01*
X107661027Y-73134323D02*
X107613408Y-72943847D01*
X107613408Y-72943847D02*
X107613408Y-72800990D01*
X107613408Y-72800990D02*
X107661027Y-72610514D01*
X107661027Y-72610514D02*
X107708646Y-72515276D01*
X107708646Y-72515276D02*
X107803884Y-72420038D01*
X107803884Y-72420038D02*
X107946741Y-72372419D01*
X107946741Y-72372419D02*
X108041979Y-72372419D01*
X108041979Y-72372419D02*
X108184836Y-72420038D01*
X108184836Y-72420038D02*
X108232455Y-72467657D01*
X109422932Y-73372419D02*
X109422932Y-72372419D01*
X109899122Y-73372419D02*
X109899122Y-72372419D01*
X109899122Y-72372419D02*
X110470550Y-73372419D01*
X110470550Y-73372419D02*
X110470550Y-72372419D01*
X107756265Y-99086704D02*
X108232455Y-99086704D01*
X107661027Y-99372419D02*
X107994360Y-98372419D01*
X107994360Y-98372419D02*
X108327693Y-99372419D01*
X109232455Y-99277180D02*
X109184836Y-99324800D01*
X109184836Y-99324800D02*
X109041979Y-99372419D01*
X109041979Y-99372419D02*
X108946741Y-99372419D01*
X108946741Y-99372419D02*
X108803884Y-99324800D01*
X108803884Y-99324800D02*
X108708646Y-99229561D01*
X108708646Y-99229561D02*
X108661027Y-99134323D01*
X108661027Y-99134323D02*
X108613408Y-98943847D01*
X108613408Y-98943847D02*
X108613408Y-98800990D01*
X108613408Y-98800990D02*
X108661027Y-98610514D01*
X108661027Y-98610514D02*
X108708646Y-98515276D01*
X108708646Y-98515276D02*
X108803884Y-98420038D01*
X108803884Y-98420038D02*
X108946741Y-98372419D01*
X108946741Y-98372419D02*
X109041979Y-98372419D01*
X109041979Y-98372419D02*
X109184836Y-98420038D01*
X109184836Y-98420038D02*
X109232455Y-98467657D01*
X110280075Y-98705752D02*
X110661027Y-98705752D01*
X110422932Y-98372419D02*
X110422932Y-99229561D01*
X110422932Y-99229561D02*
X110470551Y-99324800D01*
X110470551Y-99324800D02*
X110565789Y-99372419D01*
X110565789Y-99372419D02*
X110661027Y-99372419D01*
X111137218Y-99372419D02*
X111041980Y-99324800D01*
X111041980Y-99324800D02*
X110994361Y-99277180D01*
X110994361Y-99277180D02*
X110946742Y-99181942D01*
X110946742Y-99181942D02*
X110946742Y-98896228D01*
X110946742Y-98896228D02*
X110994361Y-98800990D01*
X110994361Y-98800990D02*
X111041980Y-98753371D01*
X111041980Y-98753371D02*
X111137218Y-98705752D01*
X111137218Y-98705752D02*
X111280075Y-98705752D01*
X111280075Y-98705752D02*
X111375313Y-98753371D01*
X111375313Y-98753371D02*
X111422932Y-98800990D01*
X111422932Y-98800990D02*
X111470551Y-98896228D01*
X111470551Y-98896228D02*
X111470551Y-99181942D01*
X111470551Y-99181942D02*
X111422932Y-99277180D01*
X111422932Y-99277180D02*
X111375313Y-99324800D01*
X111375313Y-99324800D02*
X111280075Y-99372419D01*
X111280075Y-99372419D02*
X111137218Y-99372419D01*
X112661028Y-99372419D02*
X112661028Y-98372419D01*
X112661028Y-98372419D02*
X112899123Y-98372419D01*
X112899123Y-98372419D02*
X113041980Y-98420038D01*
X113041980Y-98420038D02*
X113137218Y-98515276D01*
X113137218Y-98515276D02*
X113184837Y-98610514D01*
X113184837Y-98610514D02*
X113232456Y-98800990D01*
X113232456Y-98800990D02*
X113232456Y-98943847D01*
X113232456Y-98943847D02*
X113184837Y-99134323D01*
X113184837Y-99134323D02*
X113137218Y-99229561D01*
X113137218Y-99229561D02*
X113041980Y-99324800D01*
X113041980Y-99324800D02*
X112899123Y-99372419D01*
X112899123Y-99372419D02*
X112661028Y-99372419D01*
X114232456Y-99277180D02*
X114184837Y-99324800D01*
X114184837Y-99324800D02*
X114041980Y-99372419D01*
X114041980Y-99372419D02*
X113946742Y-99372419D01*
X113946742Y-99372419D02*
X113803885Y-99324800D01*
X113803885Y-99324800D02*
X113708647Y-99229561D01*
X113708647Y-99229561D02*
X113661028Y-99134323D01*
X113661028Y-99134323D02*
X113613409Y-98943847D01*
X113613409Y-98943847D02*
X113613409Y-98800990D01*
X113613409Y-98800990D02*
X113661028Y-98610514D01*
X113661028Y-98610514D02*
X113708647Y-98515276D01*
X113708647Y-98515276D02*
X113803885Y-98420038D01*
X113803885Y-98420038D02*
X113946742Y-98372419D01*
X113946742Y-98372419D02*
X114041980Y-98372419D01*
X114041980Y-98372419D02*
X114184837Y-98420038D01*
X114184837Y-98420038D02*
X114232456Y-98467657D01*
X115994361Y-99277180D02*
X115946742Y-99324800D01*
X115946742Y-99324800D02*
X115803885Y-99372419D01*
X115803885Y-99372419D02*
X115708647Y-99372419D01*
X115708647Y-99372419D02*
X115565790Y-99324800D01*
X115565790Y-99324800D02*
X115470552Y-99229561D01*
X115470552Y-99229561D02*
X115422933Y-99134323D01*
X115422933Y-99134323D02*
X115375314Y-98943847D01*
X115375314Y-98943847D02*
X115375314Y-98800990D01*
X115375314Y-98800990D02*
X115422933Y-98610514D01*
X115422933Y-98610514D02*
X115470552Y-98515276D01*
X115470552Y-98515276D02*
X115565790Y-98420038D01*
X115565790Y-98420038D02*
X115708647Y-98372419D01*
X115708647Y-98372419D02*
X115803885Y-98372419D01*
X115803885Y-98372419D02*
X115946742Y-98420038D01*
X115946742Y-98420038D02*
X115994361Y-98467657D01*
X116565790Y-99372419D02*
X116470552Y-99324800D01*
X116470552Y-99324800D02*
X116422933Y-99277180D01*
X116422933Y-99277180D02*
X116375314Y-99181942D01*
X116375314Y-99181942D02*
X116375314Y-98896228D01*
X116375314Y-98896228D02*
X116422933Y-98800990D01*
X116422933Y-98800990D02*
X116470552Y-98753371D01*
X116470552Y-98753371D02*
X116565790Y-98705752D01*
X116565790Y-98705752D02*
X116708647Y-98705752D01*
X116708647Y-98705752D02*
X116803885Y-98753371D01*
X116803885Y-98753371D02*
X116851504Y-98800990D01*
X116851504Y-98800990D02*
X116899123Y-98896228D01*
X116899123Y-98896228D02*
X116899123Y-99181942D01*
X116899123Y-99181942D02*
X116851504Y-99277180D01*
X116851504Y-99277180D02*
X116803885Y-99324800D01*
X116803885Y-99324800D02*
X116708647Y-99372419D01*
X116708647Y-99372419D02*
X116565790Y-99372419D01*
X117327695Y-98705752D02*
X117327695Y-99372419D01*
X117327695Y-98800990D02*
X117375314Y-98753371D01*
X117375314Y-98753371D02*
X117470552Y-98705752D01*
X117470552Y-98705752D02*
X117613409Y-98705752D01*
X117613409Y-98705752D02*
X117708647Y-98753371D01*
X117708647Y-98753371D02*
X117756266Y-98848609D01*
X117756266Y-98848609D02*
X117756266Y-99372419D01*
X118137219Y-98705752D02*
X118375314Y-99372419D01*
X118375314Y-99372419D02*
X118613409Y-98705752D01*
X119375314Y-99324800D02*
X119280076Y-99372419D01*
X119280076Y-99372419D02*
X119089600Y-99372419D01*
X119089600Y-99372419D02*
X118994362Y-99324800D01*
X118994362Y-99324800D02*
X118946743Y-99229561D01*
X118946743Y-99229561D02*
X118946743Y-98848609D01*
X118946743Y-98848609D02*
X118994362Y-98753371D01*
X118994362Y-98753371D02*
X119089600Y-98705752D01*
X119089600Y-98705752D02*
X119280076Y-98705752D01*
X119280076Y-98705752D02*
X119375314Y-98753371D01*
X119375314Y-98753371D02*
X119422933Y-98848609D01*
X119422933Y-98848609D02*
X119422933Y-98943847D01*
X119422933Y-98943847D02*
X118946743Y-99039085D01*
X119851505Y-99372419D02*
X119851505Y-98705752D01*
X119851505Y-98896228D02*
X119899124Y-98800990D01*
X119899124Y-98800990D02*
X119946743Y-98753371D01*
X119946743Y-98753371D02*
X120041981Y-98705752D01*
X120041981Y-98705752D02*
X120137219Y-98705752D01*
X120327696Y-98705752D02*
X120708648Y-98705752D01*
X120470553Y-98372419D02*
X120470553Y-99229561D01*
X120470553Y-99229561D02*
X120518172Y-99324800D01*
X120518172Y-99324800D02*
X120613410Y-99372419D01*
X120613410Y-99372419D02*
X120708648Y-99372419D01*
X121422934Y-99324800D02*
X121327696Y-99372419D01*
X121327696Y-99372419D02*
X121137220Y-99372419D01*
X121137220Y-99372419D02*
X121041982Y-99324800D01*
X121041982Y-99324800D02*
X120994363Y-99229561D01*
X120994363Y-99229561D02*
X120994363Y-98848609D01*
X120994363Y-98848609D02*
X121041982Y-98753371D01*
X121041982Y-98753371D02*
X121137220Y-98705752D01*
X121137220Y-98705752D02*
X121327696Y-98705752D01*
X121327696Y-98705752D02*
X121422934Y-98753371D01*
X121422934Y-98753371D02*
X121470553Y-98848609D01*
X121470553Y-98848609D02*
X121470553Y-98943847D01*
X121470553Y-98943847D02*
X120994363Y-99039085D01*
X121899125Y-99372419D02*
X121899125Y-98705752D01*
X121899125Y-98896228D02*
X121946744Y-98800990D01*
X121946744Y-98800990D02*
X121994363Y-98753371D01*
X121994363Y-98753371D02*
X122089601Y-98705752D01*
X122089601Y-98705752D02*
X122184839Y-98705752D01*
D11*
X118454819Y-77528094D02*
X117454819Y-77528094D01*
X117454819Y-77528094D02*
X117454819Y-77289999D01*
X117454819Y-77289999D02*
X117502438Y-77147142D01*
X117502438Y-77147142D02*
X117597676Y-77051904D01*
X117597676Y-77051904D02*
X117692914Y-77004285D01*
X117692914Y-77004285D02*
X117883390Y-76956666D01*
X117883390Y-76956666D02*
X118026247Y-76956666D01*
X118026247Y-76956666D02*
X118216723Y-77004285D01*
X118216723Y-77004285D02*
X118311961Y-77051904D01*
X118311961Y-77051904D02*
X118407200Y-77147142D01*
X118407200Y-77147142D02*
X118454819Y-77289999D01*
X118454819Y-77289999D02*
X118454819Y-77528094D01*
X118454819Y-76004285D02*
X118454819Y-76575713D01*
X118454819Y-76289999D02*
X117454819Y-76289999D01*
X117454819Y-76289999D02*
X117597676Y-76385237D01*
X117597676Y-76385237D02*
X117692914Y-76480475D01*
X117692914Y-76480475D02*
X117740533Y-76575713D01*
X123954819Y-77658094D02*
X122954819Y-77658094D01*
X122954819Y-77658094D02*
X122954819Y-77419999D01*
X122954819Y-77419999D02*
X123002438Y-77277142D01*
X123002438Y-77277142D02*
X123097676Y-77181904D01*
X123097676Y-77181904D02*
X123192914Y-77134285D01*
X123192914Y-77134285D02*
X123383390Y-77086666D01*
X123383390Y-77086666D02*
X123526247Y-77086666D01*
X123526247Y-77086666D02*
X123716723Y-77134285D01*
X123716723Y-77134285D02*
X123811961Y-77181904D01*
X123811961Y-77181904D02*
X123907200Y-77277142D01*
X123907200Y-77277142D02*
X123954819Y-77419999D01*
X123954819Y-77419999D02*
X123954819Y-77658094D01*
X122954819Y-76753332D02*
X122954819Y-76134285D01*
X122954819Y-76134285D02*
X123335771Y-76467618D01*
X123335771Y-76467618D02*
X123335771Y-76324761D01*
X123335771Y-76324761D02*
X123383390Y-76229523D01*
X123383390Y-76229523D02*
X123431009Y-76181904D01*
X123431009Y-76181904D02*
X123526247Y-76134285D01*
X123526247Y-76134285D02*
X123764342Y-76134285D01*
X123764342Y-76134285D02*
X123859580Y-76181904D01*
X123859580Y-76181904D02*
X123907200Y-76229523D01*
X123907200Y-76229523D02*
X123954819Y-76324761D01*
X123954819Y-76324761D02*
X123954819Y-76610475D01*
X123954819Y-76610475D02*
X123907200Y-76705713D01*
X123907200Y-76705713D02*
X123859580Y-76753332D01*
X121454819Y-71181904D02*
X120454819Y-71181904D01*
X121454819Y-70610476D02*
X120883390Y-71039047D01*
X120454819Y-70610476D02*
X121026247Y-71181904D01*
X129693333Y-82784819D02*
X129360000Y-82308628D01*
X129121905Y-82784819D02*
X129121905Y-81784819D01*
X129121905Y-81784819D02*
X129502857Y-81784819D01*
X129502857Y-81784819D02*
X129598095Y-81832438D01*
X129598095Y-81832438D02*
X129645714Y-81880057D01*
X129645714Y-81880057D02*
X129693333Y-81975295D01*
X129693333Y-81975295D02*
X129693333Y-82118152D01*
X129693333Y-82118152D02*
X129645714Y-82213390D01*
X129645714Y-82213390D02*
X129598095Y-82261009D01*
X129598095Y-82261009D02*
X129502857Y-82308628D01*
X129502857Y-82308628D02*
X129121905Y-82308628D01*
X130074286Y-81880057D02*
X130121905Y-81832438D01*
X130121905Y-81832438D02*
X130217143Y-81784819D01*
X130217143Y-81784819D02*
X130455238Y-81784819D01*
X130455238Y-81784819D02*
X130550476Y-81832438D01*
X130550476Y-81832438D02*
X130598095Y-81880057D01*
X130598095Y-81880057D02*
X130645714Y-81975295D01*
X130645714Y-81975295D02*
X130645714Y-82070533D01*
X130645714Y-82070533D02*
X130598095Y-82213390D01*
X130598095Y-82213390D02*
X130026667Y-82784819D01*
X130026667Y-82784819D02*
X130645714Y-82784819D01*
X129954819Y-76166666D02*
X129478628Y-76499999D01*
X129954819Y-76738094D02*
X128954819Y-76738094D01*
X128954819Y-76738094D02*
X128954819Y-76357142D01*
X128954819Y-76357142D02*
X129002438Y-76261904D01*
X129002438Y-76261904D02*
X129050057Y-76214285D01*
X129050057Y-76214285D02*
X129145295Y-76166666D01*
X129145295Y-76166666D02*
X129288152Y-76166666D01*
X129288152Y-76166666D02*
X129383390Y-76214285D01*
X129383390Y-76214285D02*
X129431009Y-76261904D01*
X129431009Y-76261904D02*
X129478628Y-76357142D01*
X129478628Y-76357142D02*
X129478628Y-76738094D01*
X129954819Y-75214285D02*
X129954819Y-75785713D01*
X129954819Y-75499999D02*
X128954819Y-75499999D01*
X128954819Y-75499999D02*
X129097676Y-75595237D01*
X129097676Y-75595237D02*
X129192914Y-75690475D01*
X129192914Y-75690475D02*
X129240533Y-75785713D01*
X102954819Y-89333333D02*
X103669104Y-89333333D01*
X103669104Y-89333333D02*
X103811961Y-89380952D01*
X103811961Y-89380952D02*
X103907200Y-89476190D01*
X103907200Y-89476190D02*
X103954819Y-89619047D01*
X103954819Y-89619047D02*
X103954819Y-89714285D01*
X103050057Y-88904761D02*
X103002438Y-88857142D01*
X103002438Y-88857142D02*
X102954819Y-88761904D01*
X102954819Y-88761904D02*
X102954819Y-88523809D01*
X102954819Y-88523809D02*
X103002438Y-88428571D01*
X103002438Y-88428571D02*
X103050057Y-88380952D01*
X103050057Y-88380952D02*
X103145295Y-88333333D01*
X103145295Y-88333333D02*
X103240533Y-88333333D01*
X103240533Y-88333333D02*
X103383390Y-88380952D01*
X103383390Y-88380952D02*
X103954819Y-88952380D01*
X103954819Y-88952380D02*
X103954819Y-88333333D01*
X103242319Y-78045833D02*
X103956604Y-78045833D01*
X103956604Y-78045833D02*
X104099461Y-78093452D01*
X104099461Y-78093452D02*
X104194700Y-78188690D01*
X104194700Y-78188690D02*
X104242319Y-78331547D01*
X104242319Y-78331547D02*
X104242319Y-78426785D01*
X104242319Y-77045833D02*
X104242319Y-77617261D01*
X104242319Y-77331547D02*
X103242319Y-77331547D01*
X103242319Y-77331547D02*
X103385176Y-77426785D01*
X103385176Y-77426785D02*
X103480414Y-77522023D01*
X103480414Y-77522023D02*
X103528033Y-77617261D01*
X132531905Y-72994819D02*
X132531905Y-71994819D01*
X132531905Y-71994819D02*
X132770000Y-71994819D01*
X132770000Y-71994819D02*
X132912857Y-72042438D01*
X132912857Y-72042438D02*
X133008095Y-72137676D01*
X133008095Y-72137676D02*
X133055714Y-72232914D01*
X133055714Y-72232914D02*
X133103333Y-72423390D01*
X133103333Y-72423390D02*
X133103333Y-72566247D01*
X133103333Y-72566247D02*
X133055714Y-72756723D01*
X133055714Y-72756723D02*
X133008095Y-72851961D01*
X133008095Y-72851961D02*
X132912857Y-72947200D01*
X132912857Y-72947200D02*
X132770000Y-72994819D01*
X132770000Y-72994819D02*
X132531905Y-72994819D01*
X134008095Y-71994819D02*
X133531905Y-71994819D01*
X133531905Y-71994819D02*
X133484286Y-72471009D01*
X133484286Y-72471009D02*
X133531905Y-72423390D01*
X133531905Y-72423390D02*
X133627143Y-72375771D01*
X133627143Y-72375771D02*
X133865238Y-72375771D01*
X133865238Y-72375771D02*
X133960476Y-72423390D01*
X133960476Y-72423390D02*
X134008095Y-72471009D01*
X134008095Y-72471009D02*
X134055714Y-72566247D01*
X134055714Y-72566247D02*
X134055714Y-72804342D01*
X134055714Y-72804342D02*
X134008095Y-72899580D01*
X134008095Y-72899580D02*
X133960476Y-72947200D01*
X133960476Y-72947200D02*
X133865238Y-72994819D01*
X133865238Y-72994819D02*
X133627143Y-72994819D01*
X133627143Y-72994819D02*
X133531905Y-72947200D01*
X133531905Y-72947200D02*
X133484286Y-72899580D01*
X123924819Y-91818094D02*
X122924819Y-91818094D01*
X122924819Y-91818094D02*
X122924819Y-91579999D01*
X122924819Y-91579999D02*
X122972438Y-91437142D01*
X122972438Y-91437142D02*
X123067676Y-91341904D01*
X123067676Y-91341904D02*
X123162914Y-91294285D01*
X123162914Y-91294285D02*
X123353390Y-91246666D01*
X123353390Y-91246666D02*
X123496247Y-91246666D01*
X123496247Y-91246666D02*
X123686723Y-91294285D01*
X123686723Y-91294285D02*
X123781961Y-91341904D01*
X123781961Y-91341904D02*
X123877200Y-91437142D01*
X123877200Y-91437142D02*
X123924819Y-91579999D01*
X123924819Y-91579999D02*
X123924819Y-91818094D01*
X123258152Y-90389523D02*
X123924819Y-90389523D01*
X122877200Y-90627618D02*
X123591485Y-90865713D01*
X123591485Y-90865713D02*
X123591485Y-90246666D01*
X118454819Y-92238094D02*
X117454819Y-92238094D01*
X117454819Y-92238094D02*
X117454819Y-91999999D01*
X117454819Y-91999999D02*
X117502438Y-91857142D01*
X117502438Y-91857142D02*
X117597676Y-91761904D01*
X117597676Y-91761904D02*
X117692914Y-91714285D01*
X117692914Y-91714285D02*
X117883390Y-91666666D01*
X117883390Y-91666666D02*
X118026247Y-91666666D01*
X118026247Y-91666666D02*
X118216723Y-91714285D01*
X118216723Y-91714285D02*
X118311961Y-91761904D01*
X118311961Y-91761904D02*
X118407200Y-91857142D01*
X118407200Y-91857142D02*
X118454819Y-91999999D01*
X118454819Y-91999999D02*
X118454819Y-92238094D01*
X117550057Y-91285713D02*
X117502438Y-91238094D01*
X117502438Y-91238094D02*
X117454819Y-91142856D01*
X117454819Y-91142856D02*
X117454819Y-90904761D01*
X117454819Y-90904761D02*
X117502438Y-90809523D01*
X117502438Y-90809523D02*
X117550057Y-90761904D01*
X117550057Y-90761904D02*
X117645295Y-90714285D01*
X117645295Y-90714285D02*
X117740533Y-90714285D01*
X117740533Y-90714285D02*
X117883390Y-90761904D01*
X117883390Y-90761904D02*
X118454819Y-91333332D01*
X118454819Y-91333332D02*
X118454819Y-90714285D01*
X134333333Y-91859580D02*
X134285714Y-91907200D01*
X134285714Y-91907200D02*
X134142857Y-91954819D01*
X134142857Y-91954819D02*
X134047619Y-91954819D01*
X134047619Y-91954819D02*
X133904762Y-91907200D01*
X133904762Y-91907200D02*
X133809524Y-91811961D01*
X133809524Y-91811961D02*
X133761905Y-91716723D01*
X133761905Y-91716723D02*
X133714286Y-91526247D01*
X133714286Y-91526247D02*
X133714286Y-91383390D01*
X133714286Y-91383390D02*
X133761905Y-91192914D01*
X133761905Y-91192914D02*
X133809524Y-91097676D01*
X133809524Y-91097676D02*
X133904762Y-91002438D01*
X133904762Y-91002438D02*
X134047619Y-90954819D01*
X134047619Y-90954819D02*
X134142857Y-90954819D01*
X134142857Y-90954819D02*
X134285714Y-91002438D01*
X134285714Y-91002438D02*
X134333333Y-91050057D01*
X135285714Y-91954819D02*
X134714286Y-91954819D01*
X135000000Y-91954819D02*
X135000000Y-90954819D01*
X135000000Y-90954819D02*
X134904762Y-91097676D01*
X134904762Y-91097676D02*
X134809524Y-91192914D01*
X134809524Y-91192914D02*
X134714286Y-91240533D01*
D12*
%TO.C,D1*%
X115500000Y-72340000D02*
X115500000Y-73360000D01*
X116970000Y-74140000D02*
X114030000Y-74140000D01*
X116970000Y-74260000D02*
X114030000Y-74260000D01*
X116970000Y-74380000D02*
X114030000Y-74380000D01*
X115500000Y-79820000D02*
X115500000Y-78800000D01*
X116970000Y-73360000D02*
X114030000Y-73360000D01*
X114030000Y-78800000D01*
X116970000Y-78800000D01*
X116970000Y-73360000D01*
%TO.C,D3*%
X121000000Y-72260000D02*
X121000000Y-73280000D01*
X122470000Y-74060000D02*
X119530000Y-74060000D01*
X122470000Y-74180000D02*
X119530000Y-74180000D01*
X122470000Y-74300000D02*
X119530000Y-74300000D01*
X121000000Y-79740000D02*
X121000000Y-78720000D01*
X122470000Y-73280000D02*
X119530000Y-73280000D01*
X119530000Y-78720000D01*
X122470000Y-78720000D01*
X122470000Y-73280000D01*
%TO.C,R2*%
X126590000Y-83330000D02*
X133130000Y-83330000D01*
X126590000Y-83660000D02*
X126590000Y-83330000D01*
X126590000Y-85740000D02*
X126590000Y-86070000D01*
X126590000Y-86070000D02*
X133130000Y-86070000D01*
X133130000Y-83330000D02*
X133130000Y-83660000D01*
X133130000Y-86070000D02*
X133130000Y-85740000D01*
%TO.C,R1*%
X128370000Y-72730000D02*
X128370000Y-79270000D01*
X128040000Y-72730000D02*
X128370000Y-72730000D01*
X125960000Y-72730000D02*
X125630000Y-72730000D01*
X125630000Y-72730000D02*
X125630000Y-79270000D01*
X128370000Y-79270000D02*
X128040000Y-79270000D01*
X125630000Y-79270000D02*
X125960000Y-79270000D01*
%TO.C,J2*%
X104780000Y-91680000D02*
X104780000Y-85860000D01*
X106500000Y-91680000D02*
X106500000Y-85860000D01*
X109600000Y-91680000D02*
X109600000Y-85860000D01*
X110600000Y-91680000D02*
X110600000Y-85860000D01*
X111520000Y-91680000D02*
X104780000Y-91680000D01*
X111520000Y-90340000D02*
X111520000Y-91680000D01*
X104780000Y-85860000D02*
X111520000Y-85860000D01*
X111520000Y-85860000D02*
X111520000Y-89740000D01*
X112130000Y-90480000D02*
X111520000Y-90040000D01*
X112130000Y-89600000D01*
X112130000Y-90480000D01*
G36*
X112130000Y-90480000D02*
G01*
X111520000Y-90040000D01*
X112130000Y-89600000D01*
X112130000Y-90480000D01*
G37*
%TO.C,J1*%
X104787500Y-80622500D02*
X104787500Y-74802500D01*
X106507500Y-80622500D02*
X106507500Y-74802500D01*
X109607500Y-80622500D02*
X109607500Y-74802500D01*
X110607500Y-80622500D02*
X110607500Y-74802500D01*
X111527500Y-80622500D02*
X104787500Y-80622500D01*
X111527500Y-79282500D02*
X111527500Y-80622500D01*
X104787500Y-74802500D02*
X111527500Y-74802500D01*
X111527500Y-74802500D02*
X111527500Y-78682500D01*
X112137500Y-79422500D02*
X111527500Y-78982500D01*
X112137500Y-78542500D01*
X112137500Y-79422500D01*
G36*
X112137500Y-79422500D02*
G01*
X111527500Y-78982500D01*
X112137500Y-78542500D01*
X112137500Y-79422500D01*
G37*
%TO.C,D5*%
X131210000Y-74601000D02*
X131210000Y-74920000D01*
X131210000Y-77080000D02*
X131210000Y-77399000D01*
X131210000Y-74601251D02*
G75*
G02*
X135513591Y-74920000I2060000J-1398749D01*
G01*
X131586670Y-74920000D02*
G75*
G02*
X134953330Y-74920000I1683330J-1080000D01*
G01*
X134953330Y-77080000D02*
G75*
G02*
X131586670Y-77080000I-1683330J1080000D01*
G01*
X135513591Y-77080000D02*
G75*
G02*
X131210000Y-77398749I-2243591J1080000D01*
G01*
%TO.C,D4*%
X121000000Y-87340000D02*
X121000000Y-88360000D01*
X122470000Y-89140000D02*
X119530000Y-89140000D01*
X122470000Y-89260000D02*
X119530000Y-89260000D01*
X122470000Y-89380000D02*
X119530000Y-89380000D01*
X121000000Y-94820000D02*
X121000000Y-93800000D01*
X122470000Y-88360000D02*
X119530000Y-88360000D01*
X119530000Y-93800000D01*
X122470000Y-93800000D01*
X122470000Y-88360000D01*
%TO.C,D2*%
X115500000Y-87340000D02*
X115500000Y-88360000D01*
X116970000Y-89140000D02*
X114030000Y-89140000D01*
X116970000Y-89260000D02*
X114030000Y-89260000D01*
X116970000Y-89380000D02*
X114030000Y-89380000D01*
X115500000Y-94820000D02*
X115500000Y-93800000D01*
X116970000Y-88360000D02*
X114030000Y-88360000D01*
X114030000Y-93800000D01*
X116970000Y-93800000D01*
X116970000Y-88360000D01*
%TO.C,C1*%
X133370000Y-91500000D02*
G75*
G02*
X125130000Y-91500000I-4120000J0D01*
G01*
X125130000Y-91500000D02*
G75*
G02*
X133370000Y-91500000I4120000J0D01*
G01*
%TD*%
M02*
