%TF.GenerationSoftware,KiCad,Pcbnew,9.0.5*%
%TF.CreationDate,2025-10-11T14:19:14+05:30*%
%TF.ProjectId,new_project,6e65775f-7072-46f6-9a65-63742e6b6963,rev?*%
%TF.SameCoordinates,Original*%
%TF.FileFunction,Legend,Bot*%
%TF.FilePolarity,Positive*%
%FSLAX46Y46*%
G04 Gerber Fmt 4.6, Leading zero omitted, Abs format (unit mm)*
G04 Created by KiCad (PCBNEW 9.0.5) date 2025-10-11 14:19:14*
%MOMM*%
%LPD*%
G01*
G04 APERTURE LIST*
%ADD10C,0.150000*%
G04 APERTURE END LIST*
D10*
X137322200Y-78289160D02*
X137369819Y-78432017D01*
X137369819Y-78432017D02*
X137369819Y-78670112D01*
X137369819Y-78670112D02*
X137322200Y-78765350D01*
X137322200Y-78765350D02*
X137274580Y-78812969D01*
X137274580Y-78812969D02*
X137179342Y-78860588D01*
X137179342Y-78860588D02*
X137084104Y-78860588D01*
X137084104Y-78860588D02*
X136988866Y-78812969D01*
X136988866Y-78812969D02*
X136941247Y-78765350D01*
X136941247Y-78765350D02*
X136893628Y-78670112D01*
X136893628Y-78670112D02*
X136846009Y-78479636D01*
X136846009Y-78479636D02*
X136798390Y-78384398D01*
X136798390Y-78384398D02*
X136750771Y-78336779D01*
X136750771Y-78336779D02*
X136655533Y-78289160D01*
X136655533Y-78289160D02*
X136560295Y-78289160D01*
X136560295Y-78289160D02*
X136465057Y-78336779D01*
X136465057Y-78336779D02*
X136417438Y-78384398D01*
X136417438Y-78384398D02*
X136369819Y-78479636D01*
X136369819Y-78479636D02*
X136369819Y-78717731D01*
X136369819Y-78717731D02*
X136417438Y-78860588D01*
X137369819Y-79289160D02*
X136369819Y-79289160D01*
X137369819Y-79717731D02*
X136846009Y-79717731D01*
X136846009Y-79717731D02*
X136750771Y-79670112D01*
X136750771Y-79670112D02*
X136703152Y-79574874D01*
X136703152Y-79574874D02*
X136703152Y-79432017D01*
X136703152Y-79432017D02*
X136750771Y-79336779D01*
X136750771Y-79336779D02*
X136798390Y-79289160D01*
X137369819Y-80193922D02*
X136703152Y-80193922D01*
X136893628Y-80193922D02*
X136798390Y-80241541D01*
X136798390Y-80241541D02*
X136750771Y-80289160D01*
X136750771Y-80289160D02*
X136703152Y-80384398D01*
X136703152Y-80384398D02*
X136703152Y-80479636D01*
X137322200Y-81193922D02*
X137369819Y-81098684D01*
X137369819Y-81098684D02*
X137369819Y-80908208D01*
X137369819Y-80908208D02*
X137322200Y-80812970D01*
X137322200Y-80812970D02*
X137226961Y-80765351D01*
X137226961Y-80765351D02*
X136846009Y-80765351D01*
X136846009Y-80765351D02*
X136750771Y-80812970D01*
X136750771Y-80812970D02*
X136703152Y-80908208D01*
X136703152Y-80908208D02*
X136703152Y-81098684D01*
X136703152Y-81098684D02*
X136750771Y-81193922D01*
X136750771Y-81193922D02*
X136846009Y-81241541D01*
X136846009Y-81241541D02*
X136941247Y-81241541D01*
X136941247Y-81241541D02*
X137036485Y-80765351D01*
X136703152Y-81574875D02*
X137369819Y-81812970D01*
X136703152Y-82051065D02*
X137369819Y-81812970D01*
X137369819Y-81812970D02*
X137607914Y-81717732D01*
X137607914Y-81717732D02*
X137655533Y-81670113D01*
X137655533Y-81670113D02*
X137703152Y-81574875D01*
X137369819Y-82860589D02*
X136846009Y-82860589D01*
X136846009Y-82860589D02*
X136750771Y-82812970D01*
X136750771Y-82812970D02*
X136703152Y-82717732D01*
X136703152Y-82717732D02*
X136703152Y-82527256D01*
X136703152Y-82527256D02*
X136750771Y-82432018D01*
X137322200Y-82860589D02*
X137369819Y-82765351D01*
X137369819Y-82765351D02*
X137369819Y-82527256D01*
X137369819Y-82527256D02*
X137322200Y-82432018D01*
X137322200Y-82432018D02*
X137226961Y-82384399D01*
X137226961Y-82384399D02*
X137131723Y-82384399D01*
X137131723Y-82384399D02*
X137036485Y-82432018D01*
X137036485Y-82432018D02*
X136988866Y-82527256D01*
X136988866Y-82527256D02*
X136988866Y-82765351D01*
X136988866Y-82765351D02*
X136941247Y-82860589D01*
X137322200Y-83289161D02*
X137369819Y-83384399D01*
X137369819Y-83384399D02*
X137369819Y-83574875D01*
X137369819Y-83574875D02*
X137322200Y-83670113D01*
X137322200Y-83670113D02*
X137226961Y-83717732D01*
X137226961Y-83717732D02*
X137179342Y-83717732D01*
X137179342Y-83717732D02*
X137084104Y-83670113D01*
X137084104Y-83670113D02*
X137036485Y-83574875D01*
X137036485Y-83574875D02*
X137036485Y-83432018D01*
X137036485Y-83432018D02*
X136988866Y-83336780D01*
X136988866Y-83336780D02*
X136893628Y-83289161D01*
X136893628Y-83289161D02*
X136846009Y-83289161D01*
X136846009Y-83289161D02*
X136750771Y-83336780D01*
X136750771Y-83336780D02*
X136703152Y-83432018D01*
X136703152Y-83432018D02*
X136703152Y-83574875D01*
X136703152Y-83574875D02*
X136750771Y-83670113D01*
X137369819Y-84146304D02*
X136369819Y-84146304D01*
X137369819Y-84574875D02*
X136846009Y-84574875D01*
X136846009Y-84574875D02*
X136750771Y-84527256D01*
X136750771Y-84527256D02*
X136703152Y-84432018D01*
X136703152Y-84432018D02*
X136703152Y-84289161D01*
X136703152Y-84289161D02*
X136750771Y-84193923D01*
X136750771Y-84193923D02*
X136798390Y-84146304D01*
X136369819Y-86098685D02*
X137084104Y-86098685D01*
X137084104Y-86098685D02*
X137226961Y-86051066D01*
X137226961Y-86051066D02*
X137322200Y-85955828D01*
X137322200Y-85955828D02*
X137369819Y-85812971D01*
X137369819Y-85812971D02*
X137369819Y-85717733D01*
X137369819Y-87003447D02*
X136846009Y-87003447D01*
X136846009Y-87003447D02*
X136750771Y-86955828D01*
X136750771Y-86955828D02*
X136703152Y-86860590D01*
X136703152Y-86860590D02*
X136703152Y-86670114D01*
X136703152Y-86670114D02*
X136750771Y-86574876D01*
X137322200Y-87003447D02*
X137369819Y-86908209D01*
X137369819Y-86908209D02*
X137369819Y-86670114D01*
X137369819Y-86670114D02*
X137322200Y-86574876D01*
X137322200Y-86574876D02*
X137226961Y-86527257D01*
X137226961Y-86527257D02*
X137131723Y-86527257D01*
X137131723Y-86527257D02*
X137036485Y-86574876D01*
X137036485Y-86574876D02*
X136988866Y-86670114D01*
X136988866Y-86670114D02*
X136988866Y-86908209D01*
X136988866Y-86908209D02*
X136941247Y-87003447D01*
X137369819Y-87479638D02*
X136703152Y-87479638D01*
X136369819Y-87479638D02*
X136417438Y-87432019D01*
X136417438Y-87432019D02*
X136465057Y-87479638D01*
X136465057Y-87479638D02*
X136417438Y-87527257D01*
X136417438Y-87527257D02*
X136369819Y-87479638D01*
X136369819Y-87479638D02*
X136465057Y-87479638D01*
X137322200Y-87908209D02*
X137369819Y-88003447D01*
X137369819Y-88003447D02*
X137369819Y-88193923D01*
X137369819Y-88193923D02*
X137322200Y-88289161D01*
X137322200Y-88289161D02*
X137226961Y-88336780D01*
X137226961Y-88336780D02*
X137179342Y-88336780D01*
X137179342Y-88336780D02*
X137084104Y-88289161D01*
X137084104Y-88289161D02*
X137036485Y-88193923D01*
X137036485Y-88193923D02*
X137036485Y-88051066D01*
X137036485Y-88051066D02*
X136988866Y-87955828D01*
X136988866Y-87955828D02*
X136893628Y-87908209D01*
X136893628Y-87908209D02*
X136846009Y-87908209D01*
X136846009Y-87908209D02*
X136750771Y-87955828D01*
X136750771Y-87955828D02*
X136703152Y-88051066D01*
X136703152Y-88051066D02*
X136703152Y-88193923D01*
X136703152Y-88193923D02*
X136750771Y-88289161D01*
X136703152Y-88670114D02*
X137369819Y-88860590D01*
X137369819Y-88860590D02*
X136893628Y-89051066D01*
X136893628Y-89051066D02*
X137369819Y-89241542D01*
X137369819Y-89241542D02*
X136703152Y-89432018D01*
X137369819Y-90241542D02*
X136846009Y-90241542D01*
X136846009Y-90241542D02*
X136750771Y-90193923D01*
X136750771Y-90193923D02*
X136703152Y-90098685D01*
X136703152Y-90098685D02*
X136703152Y-89908209D01*
X136703152Y-89908209D02*
X136750771Y-89812971D01*
X137322200Y-90241542D02*
X137369819Y-90146304D01*
X137369819Y-90146304D02*
X137369819Y-89908209D01*
X137369819Y-89908209D02*
X137322200Y-89812971D01*
X137322200Y-89812971D02*
X137226961Y-89765352D01*
X137226961Y-89765352D02*
X137131723Y-89765352D01*
X137131723Y-89765352D02*
X137036485Y-89812971D01*
X137036485Y-89812971D02*
X136988866Y-89908209D01*
X136988866Y-89908209D02*
X136988866Y-90146304D01*
X136988866Y-90146304D02*
X136941247Y-90241542D01*
X137369819Y-90860590D02*
X137322200Y-90765352D01*
X137322200Y-90765352D02*
X137226961Y-90717733D01*
X137226961Y-90717733D02*
X136369819Y-90717733D01*
M02*
